<svg width="16" height="16" viewBox="0 0 16 16" fill="none" xmlns="http://www.w3.org/2000/svg">
  <g clip-path="url(#clip0_3156:7537)">
    <path d="M15.5319 4.94739C14.5807 4.94739 13.6874 5.31433 13.0162 5.98071C12.3453 6.64673 11.976 7.53381 11.976 8.47852C11.976 8.73743 11.766 8.94727 11.5072 8.94727C11.2483 8.94727 11.0385 8.73743 11.0385 8.47852C11.0385 7.53381 10.6689 6.64673 9.99805 5.98071C9.32691 5.31433 8.43359 4.94739 7.48242 4.94739C7.22351 4.94739 7.01367 4.73755 7.01367 4.47864C7.01367 4.21973 7.22351 4.00989 7.48242 4.00989C9.44312 4.00989 11.0385 2.42115 11.0385 0.468388C11.0385 0.209476 11.2483 -0.000362396 11.5072 -0.000362396C11.766 -0.000362396 11.976 0.209476 11.976 0.468388C11.976 2.42115 13.5712 4.00989 15.5319 4.00989C15.7908 4.00989 16.0006 4.21973 16.0006 4.47864C16.0006 4.73755 15.7908 4.94739 15.5319 4.94739ZM11.5072 2.45923C11.0719 3.32996 10.3604 4.04053 9.48779 4.47608C9.91565 4.68823 10.3107 4.96997 10.6586 5.31543C11.0081 5.66235 11.2928 6.05664 11.5071 6.48389C11.7214 6.05664 12.0062 5.66235 12.3556 5.31543C12.7035 4.96997 13.0986 4.68823 13.5264 4.47608C12.6539 4.04053 11.9424 3.32996 11.5072 2.45923Z" fill="currentColor" />
    <path d="M6.41357 8.61328C5.03308 8.61328 3.90991 9.72815 3.90991 11.0986C3.90991 11.3574 3.70007 11.5674 3.44116 11.5674C3.18225 11.5674 2.97241 11.3574 2.97241 11.0986C2.97241 9.72815 1.84924 8.61328 0.46875 8.61328C0.209839 8.61328 0 8.40332 0 8.14453C0 7.88562 0.209839 7.67578 0.46875 7.67578C1.84924 7.67578 2.97241 6.55737 2.97241 5.18274C2.97241 4.92395 3.18225 4.71399 3.44116 4.71399C3.70007 4.71399 3.90991 4.92395 3.90991 5.18274C3.90991 6.55737 5.03308 7.67578 6.41357 7.67578C6.67249 7.67578 6.88232 7.88562 6.88232 8.14453C6.88232 8.40332 6.67249 8.61328 6.41357 8.61328ZM3.44116 6.90979C3.14221 7.41919 2.71521 7.84534 2.20459 8.14392C2.71521 8.4419 3.14221 8.86707 3.44116 9.37537C3.74011 8.86707 4.16711 8.4419 4.67773 8.14392C4.16711 7.84534 3.74011 7.41931 3.44116 6.90979Z" fill="currentColor" />
    <path d="M7.17578 12.7607C8.19104 12.7607 9.01709 11.941 9.01709 10.9336C9.01709 10.6748 9.22693 10.4648 9.48584 10.4648C9.74475 10.4648 9.95459 10.6748 9.95459 10.9336C9.95459 11.9443 10.7806 12.7666 11.7959 12.7666C12.0548 12.7666 12.2646 12.9766 12.2646 13.2354C12.2646 13.4943 12.0548 13.7041 11.7959 13.7041C10.7806 13.7041 9.95459 14.5238 9.95459 15.5312C9.95459 15.7902 9.74475 16 9.48584 16C9.22693 16 9.01709 15.7902 9.01709 15.5312C9.01709 14.5205 8.19104 13.6982 7.17578 13.6982C6.91687 13.6982 6.70703 13.4884 6.70703 13.2295C6.70703 12.9706 6.91687 12.7607 7.17578 12.7607ZM9.48694 13.9945C9.68921 13.6947 9.94885 13.4363 10.2501 13.2349C9.94775 13.0323 9.68738 12.7722 9.48474 12.4703C9.28247 12.7701 9.02283 13.0286 8.72156 13.23C9.02393 13.4325 9.28442 13.6926 9.48694 13.9945Z" fill="currentColor" />
  </g>
  <defs>
    <clipPath id="clip0_3156:7537">
      <rect width="16" height="16" fill="white" transform="matrix(1 0 0 -1 0 16)" />
    </clipPath>
  </defs>
</svg>
  