<svg width="768" height="110" viewBox="0 0 768 110" fill="none" xmlns="http://www.w3.org/2000/svg">
<path fill-rule="evenodd" clipRule="evenodd" d="M143.404 100.181C151.495 98.0078 156.76 93.645 157.197 89.4907C157.206 89.413 157.217 89.337 157.232 89.2626L157.231 75.0617C156.953 75.4518 156.658 75.8352 156.331 76.2067C153.677 79.299 149.332 81.9422 143.404 83.4244V100.181ZM143.404 79.9196C146.504 79.0862 149.189 77.9314 151.346 76.59C151.353 76.5858 151.359 76.582 151.366 76.5782C151.372 76.5744 151.379 76.5706 151.385 76.5664C151.84 76.2827 152.265 75.9888 152.672 75.6899C152.681 75.6835 152.69 75.677 152.699 75.6705C152.738 75.6431 152.777 75.6156 152.815 75.5869C153.179 75.3133 153.517 75.0313 153.84 74.7476C153.864 74.727 153.887 74.7066 153.911 74.6862L153.911 74.6859C153.965 74.6394 154.019 74.593 154.07 74.5449C154.351 74.2882 154.607 74.0265 154.852 73.763L154.913 73.6975L154.913 73.6975C154.988 73.6184 155.061 73.5398 155.131 73.459C155.338 73.2209 155.524 72.9811 155.702 72.7396L155.706 72.734L155.706 72.7339C155.802 72.6025 155.897 72.4726 155.984 72.3411C156.129 72.1215 156.257 71.9003 156.377 71.6791C156.462 71.5237 156.543 71.3683 156.615 71.2113C156.711 71.0036 156.793 70.7958 156.866 70.5881C156.924 70.4209 156.977 70.2537 157.021 70.0865C157.074 69.8805 157.116 69.6779 157.146 69.4735L157.155 69.4173C157.194 69.1625 157.232 68.9077 157.232 68.6545C157.232 68.4636 157.219 68.2728 157.199 68.0836C157.171 67.8286 157.187 67.5736 157.232 67.3321L157.231 54.7963C156.953 55.1864 156.658 55.5698 156.331 55.9413C153.677 59.0336 149.332 61.6768 143.404 63.159V79.9196ZM143.404 59.6542C146.504 58.8208 149.189 57.666 151.346 56.3247C151.353 56.3204 151.359 56.3166 151.366 56.3128C151.37 56.3105 151.374 56.3082 151.378 56.3058C151.38 56.3042 151.383 56.3027 151.385 56.301C151.84 56.0173 152.265 55.7235 152.672 55.4245L152.699 55.4051C152.738 55.3777 152.777 55.3502 152.815 55.3215C153.179 55.0479 153.517 54.7659 153.84 54.4822C153.864 54.4615 153.887 54.441 153.911 54.4205L153.911 54.4203C153.965 54.3739 154.019 54.3275 154.07 54.2796C154.351 54.0229 154.607 53.7611 154.852 53.4976L154.913 53.4321L154.913 53.4321C154.988 53.3531 155.061 53.2744 155.131 53.1937C155.338 52.9555 155.524 52.7157 155.702 52.4742L155.706 52.4687L155.706 52.4687C155.802 52.3372 155.897 52.2073 155.984 52.0757C156.129 51.8562 156.257 51.6349 156.377 51.4137C156.462 51.2583 156.543 51.103 156.615 50.9459C156.711 50.7382 156.793 50.5305 156.866 50.3227C156.924 50.1555 156.977 49.9884 157.021 49.8212C157.074 49.6151 157.116 49.4125 157.146 49.2081L157.155 49.1519C157.194 48.8971 157.232 48.6424 157.232 48.3891C157.232 48.1982 157.219 48.0074 157.199 47.8183C157.171 47.5633 157.187 47.3083 157.232 47.0668V34.5293C157.141 34.6586 157.04 34.7863 156.939 34.9141L156.939 34.9142C156.897 34.9682 156.854 35.0222 156.812 35.0764C156.778 35.1198 156.746 35.1633 156.713 35.2067C156.669 35.2646 156.626 35.3225 156.579 35.3804C156.254 35.7806 155.902 36.1724 155.521 36.5558C155.475 36.6019 155.426 36.6475 155.377 36.6932L155.377 36.6933L155.377 36.6933C155.341 36.7262 155.305 36.759 155.271 36.7922C154.952 37.103 154.615 37.4052 154.26 37.7008C154.13 37.8106 153.997 37.9186 153.862 38.0267C153.466 38.3408 153.05 38.6448 152.613 38.942C152.583 38.9626 152.554 38.9834 152.526 39.0041C152.486 39.0329 152.446 39.0615 152.404 39.089C151.896 39.425 151.355 39.7459 150.793 40.0566C150.694 40.1117 150.591 40.1648 150.489 40.2179L150.489 40.218L150.488 40.2182C150.431 40.2481 150.373 40.2779 150.316 40.3083C149.869 40.543 149.407 40.7676 148.928 40.9855C148.873 41.0101 148.819 41.0349 148.765 41.0597C148.648 41.1131 148.53 41.1666 148.41 41.2185C147.775 41.4904 147.12 41.7522 146.432 41.992C146.383 42.0085 146.333 42.0241 146.282 42.0398L146.282 42.0398C146.234 42.0546 146.187 42.0693 146.14 42.0849C145.534 42.2909 144.905 42.4817 144.258 42.6607C144.039 42.7215 143.817 42.779 143.593 42.8364C143.53 42.8524 143.467 42.8682 143.404 42.884V59.6542ZM143.404 39.3957C151.898 37.1253 157.232 32.4469 157.232 28.1237C157.232 23.8005 151.898 19.1221 143.404 16.8517V39.3957Z" fill="#FF6112"/>
<path fill-rule="evenodd" clipRule="evenodd" d="M122.346 100.181C130.436 98.0075 135.7 93.6448 136.138 89.4906C136.147 89.413 136.157 89.3369 136.173 89.2626L136.172 75.0617C135.894 75.4518 135.599 75.8351 135.271 76.2067C132.618 79.2988 128.273 81.9419 122.346 83.4241V100.181ZM122.346 79.9193C125.445 79.0859 128.13 77.9312 130.287 76.59C130.293 76.5858 130.3 76.582 130.306 76.5782C130.309 76.5766 130.312 76.575 130.314 76.5733C130.318 76.5711 130.322 76.5688 130.326 76.5664C130.78 76.2827 131.205 75.9888 131.612 75.6899L131.64 75.6705C131.679 75.6431 131.718 75.6156 131.755 75.5869C132.12 75.3133 132.457 75.0313 132.781 74.7476C132.804 74.7269 132.828 74.7063 132.852 74.6858C132.906 74.6393 132.959 74.5929 133.01 74.5449C133.291 74.2882 133.547 74.0265 133.793 73.763L133.854 73.6974L133.854 73.6973C133.928 73.6184 134.002 73.5397 134.071 73.459C134.279 73.2209 134.464 72.9811 134.642 72.7396L134.646 72.7341C134.742 72.6026 134.837 72.4726 134.924 72.3411C135.069 72.1215 135.197 71.9003 135.318 71.6791C135.402 71.5237 135.484 71.3683 135.555 71.2113C135.652 71.0035 135.733 70.7958 135.806 70.5881C135.865 70.4209 135.918 70.2537 135.961 70.0865C136.014 69.8805 136.057 69.6778 136.087 69.4735L136.095 69.4173C136.134 69.1624 136.173 68.9077 136.173 68.6544C136.173 68.4636 136.16 68.2728 136.139 68.0836C136.112 67.8286 136.127 67.5736 136.173 67.3321L136.172 54.7963C135.894 55.1864 135.599 55.5698 135.271 55.9413C132.618 59.0334 128.273 61.6765 122.346 63.1588V79.9193ZM122.346 59.6539C125.445 58.8205 128.13 57.6658 130.287 56.3246C130.293 56.3204 130.3 56.3166 130.306 56.3128C130.313 56.309 130.319 56.3052 130.326 56.301C130.78 56.0173 131.205 55.7234 131.612 55.4245L131.64 55.4051C131.679 55.3777 131.718 55.3502 131.755 55.3215C132.12 55.0479 132.457 54.7659 132.781 54.4822C132.804 54.4616 132.828 54.4412 132.851 54.4207L132.852 54.4204L132.852 54.4203C132.906 54.3739 132.959 54.3275 133.01 54.2795C133.291 54.0228 133.547 53.7611 133.793 53.4976L133.854 53.4322C133.928 53.3531 134.002 53.2744 134.071 53.1936C134.279 52.9555 134.464 52.7157 134.642 52.4742L134.646 52.4685L134.646 52.4684C134.742 52.337 134.837 52.2072 134.924 52.0757C135.069 51.8561 135.197 51.6349 135.318 51.4137C135.402 51.2583 135.484 51.1029 135.555 50.9459C135.652 50.7382 135.733 50.5304 135.806 50.3227C135.865 50.1555 135.918 49.9883 135.961 49.8212C136.014 49.6151 136.057 49.4125 136.087 49.2081L136.095 49.1519C136.134 48.8971 136.173 48.6423 136.173 48.3891C136.173 48.1982 136.16 48.0074 136.139 47.8183C136.112 47.5633 136.127 47.3082 136.173 47.0667V34.5292C136.081 34.6586 135.981 34.7863 135.88 34.9141C135.837 34.9681 135.795 35.0222 135.753 35.0764C135.719 35.1198 135.686 35.1632 135.653 35.2067C135.61 35.2646 135.566 35.3225 135.52 35.3804C135.194 35.7806 134.843 36.1724 134.462 36.5558C134.416 36.6019 134.367 36.6475 134.317 36.6932L134.317 36.6932C134.281 36.7261 134.246 36.759 134.211 36.7922C133.892 37.1029 133.555 37.4052 133.2 37.7008C133.07 37.8105 132.938 37.9186 132.802 38.0267C132.406 38.3408 131.991 38.6448 131.554 38.942C131.524 38.9625 131.495 38.9833 131.466 39.004L131.466 39.0041C131.426 39.0329 131.386 39.0615 131.344 39.0889C130.837 39.425 130.295 39.7459 129.733 40.0566C129.634 40.1117 129.532 40.1648 129.429 40.2179L129.429 40.218L129.429 40.2182C129.371 40.2481 129.313 40.2779 129.256 40.3082C128.809 40.543 128.347 40.7676 127.869 40.9854C127.814 41.0101 127.76 41.0348 127.705 41.0596C127.588 41.1131 127.471 41.1666 127.35 41.2185C126.715 41.4904 126.06 41.7522 125.373 41.992C125.324 42.0085 125.273 42.0241 125.223 42.0398C125.175 42.0545 125.127 42.0693 125.081 42.0848C124.474 42.2909 123.845 42.4817 123.199 42.6607C122.979 42.7215 122.757 42.7789 122.534 42.8364C122.471 42.8523 122.409 42.8681 122.346 42.8837V59.6539ZM122.346 39.3955C130.839 37.125 136.173 32.4467 136.173 28.1237C136.173 23.8006 130.839 19.1224 122.346 16.8519V39.3955Z" fill="#FF6112"/>
<path fill-rule="evenodd" clipRule="evenodd" d="M101.287 100.181C109.378 98.0075 114.642 93.6448 115.079 89.4906C115.088 89.413 115.099 89.3369 115.114 89.2626L115.113 75.0617C114.835 75.4518 114.54 75.8351 114.213 76.2067C111.559 79.2988 107.214 81.9419 101.287 83.4241V100.181ZM101.287 79.9193C104.387 79.0859 107.071 77.9312 109.228 76.59C109.235 76.5858 109.241 76.582 109.248 76.5782C109.25 76.5766 109.253 76.575 109.256 76.5733C109.26 76.5711 109.263 76.5688 109.267 76.5664C109.722 76.2827 110.147 75.9888 110.554 75.6899L110.581 75.6705C110.62 75.6431 110.659 75.6156 110.697 75.5869C111.061 75.3133 111.399 75.0313 111.722 74.7476C111.746 74.7269 111.769 74.7063 111.793 74.6858C111.847 74.6393 111.901 74.5929 111.952 74.5449C112.233 74.2882 112.489 74.0265 112.734 73.763L112.795 73.6974L112.795 73.6973C112.869 73.6184 112.943 73.5397 113.013 73.459C113.22 73.2209 113.405 72.9811 113.583 72.7396L113.587 72.7341C113.684 72.6026 113.779 72.4726 113.865 72.3411C114.011 72.1215 114.139 71.9003 114.259 71.6791C114.344 71.5237 114.425 71.3683 114.497 71.2113C114.593 71.0035 114.675 70.7958 114.747 70.5881C114.806 70.4209 114.859 70.2537 114.902 70.0865C114.956 69.8805 114.998 69.6778 115.028 69.4735L115.037 69.4173C115.075 69.1624 115.114 68.9077 115.114 68.6544C115.114 68.4636 115.101 68.2728 115.08 68.0836C115.053 67.8286 115.068 67.5736 115.114 67.3321L115.113 54.7963C114.835 55.1864 114.54 55.5698 114.213 55.9413C111.559 59.0334 107.214 61.6765 101.287 63.1588V79.9193ZM101.287 59.6539C104.387 58.8205 107.071 57.6658 109.228 56.3246C109.234 56.3204 109.241 56.3166 109.247 56.3128C109.254 56.309 109.261 56.3052 109.267 56.301C109.722 56.0173 110.147 55.7234 110.554 55.4245L110.581 55.4051C110.62 55.3777 110.659 55.3502 110.697 55.3215C111.061 55.0479 111.399 54.7659 111.722 54.4822C111.745 54.4616 111.769 54.4412 111.793 54.4207L111.793 54.4204L111.793 54.4203C111.847 54.3739 111.901 54.3275 111.952 54.2795C112.233 54.0228 112.489 53.7611 112.734 53.4976L112.795 53.4322C112.869 53.3531 112.943 53.2744 113.013 53.1936C113.22 52.9555 113.405 52.7157 113.583 52.4742L113.588 52.4685L113.588 52.4684C113.684 52.337 113.779 52.2072 113.865 52.0757C114.011 51.8561 114.139 51.6349 114.259 51.4137C114.344 51.2583 114.425 51.1029 114.497 50.9459C114.593 50.7382 114.675 50.5304 114.747 50.3227C114.806 50.1555 114.859 49.9883 114.902 49.8212C114.956 49.6151 114.998 49.4125 115.028 49.2081L115.037 49.1519C115.075 48.8971 115.114 48.6423 115.114 48.3891C115.114 48.1982 115.101 48.0074 115.08 47.8183C115.053 47.5633 115.068 47.3082 115.114 47.0667V34.5292C115.023 34.6586 114.922 34.7863 114.821 34.9141C114.779 34.9681 114.736 35.0222 114.694 35.0764C114.66 35.1198 114.628 35.1632 114.595 35.2067C114.551 35.2646 114.507 35.3225 114.461 35.3804C114.136 35.7806 113.784 36.1724 113.403 36.5558C113.357 36.6019 113.308 36.6475 113.258 36.6932L113.258 36.6932C113.223 36.7261 113.187 36.759 113.153 36.7922C112.834 37.1029 112.496 37.4052 112.142 37.7008C112.012 37.8105 111.879 37.9186 111.744 38.0267C111.348 38.3408 110.932 38.6448 110.495 38.942C110.465 38.9625 110.436 38.9833 110.408 39.004L110.407 39.0041C110.368 39.0329 110.328 39.0615 110.286 39.0889C109.778 39.425 109.237 39.7459 108.675 40.0566C108.575 40.1117 108.473 40.1648 108.371 40.2179L108.37 40.218L108.37 40.2182C108.312 40.2481 108.255 40.2779 108.197 40.3082C107.751 40.543 107.288 40.7676 106.81 40.9854C106.755 41.0101 106.701 41.0348 106.647 41.0596C106.53 41.1131 106.412 41.1666 106.291 41.2185C105.657 41.4904 105.002 41.7522 104.314 41.992C104.265 42.0085 104.215 42.0241 104.164 42.0398C104.116 42.0545 104.068 42.0693 104.022 42.0848C103.416 42.2909 102.787 42.4817 102.14 42.6607C101.921 42.7215 101.699 42.7789 101.475 42.8364C101.413 42.8523 101.35 42.8681 101.287 42.8837V59.6539ZM101.287 39.3955C109.781 37.125 115.114 32.4467 115.114 28.1237C115.114 23.8006 109.781 19.1224 101.287 16.8519V39.3955Z" fill="#FF6112"/>
<path fill-rule="evenodd" clipRule="evenodd" d="M92.2009 71.2932C92.2907 71.0696 92.3622 70.8497 92.4135 70.6279C92.4183 70.6075 92.4231 70.5872 92.4279 70.5669C92.4931 70.2903 92.5583 70.0138 92.5583 69.739C92.5583 69.5319 92.5363 69.3247 92.5015 69.1195C92.4557 68.8427 92.4813 68.5659 92.5583 68.3039L92.5565 54.6987C92.0873 55.1221 91.5887 55.5382 91.0352 55.9414C84.1016 61.132 70.3297 65.1569 50.4032 65.1569C30.3923 65.1569 16.5856 61.099 9.68132 55.8773C9.22311 55.54 8.81622 55.1899 8.41667 54.838C8.39181 54.8158 8.36454 54.7939 8.33731 54.772C8.30631 54.7471 8.27536 54.7223 8.24805 54.6969V68.3039C8.32503 68.5659 8.35069 68.8427 8.30487 69.1195C8.27187 69.3247 8.24805 69.5319 8.24805 69.739C8.24805 70.012 8.31236 70.2865 8.37569 70.5569C8.38081 70.5787 8.38593 70.6006 8.39101 70.6224C8.44233 70.8442 8.51381 71.0659 8.60362 71.2877C8.67876 71.4692 8.76674 71.6506 8.86571 71.8321C8.99034 72.0575 9.12781 72.2829 9.2891 72.5084C9.41006 72.6788 9.54753 72.8474 9.69049 73.0161C9.89393 73.258 10.1102 73.4963 10.3558 73.7345C10.4922 73.8692 10.6425 74.0008 10.7925 74.1322L10.8323 74.1671C11.1329 74.4292 11.4463 74.6894 11.7964 74.9479C11.9001 75.025 12.0099 75.1004 12.1197 75.1758C12.1691 75.2097 12.2185 75.2437 12.2674 75.2778C12.6817 75.5637 13.1142 75.8478 13.5889 76.1264C13.6666 76.1732 13.7485 76.2186 13.8303 76.2639C13.8797 76.2913 13.9291 76.3187 13.9775 76.3463C14.5237 76.6561 15.0937 76.9603 15.7095 77.2572C15.7383 77.2706 15.7678 77.284 15.7975 77.2975C15.8492 77.3209 15.9014 77.3446 15.9514 77.369C16.6369 77.6934 17.3572 78.0124 18.1252 78.3203L18.1254 78.3204C18.1474 78.3295 18.1693 78.3386 18.1912 78.3459C22.3535 80.0083 27.6779 81.4068 33.882 82.3232C33.9132 82.3287 33.9443 82.3324 33.9755 82.336C35.1815 82.512 36.4187 82.6714 37.6888 82.8107C37.7934 82.8218 37.9007 82.8311 38.0083 82.8403C38.1138 82.8494 38.2195 82.8585 38.323 82.8694C39.4318 82.9848 40.5535 83.0911 41.7082 83.1754C42.0376 83.1995 42.377 83.2163 42.7161 83.2332C42.9204 83.2434 43.1247 83.2535 43.3266 83.2653C43.5426 83.2776 43.758 83.2904 43.9735 83.3033C44.6247 83.3422 45.2764 83.3811 45.9457 83.4046C47.4028 83.4559 48.8874 83.4852 50.4032 83.4852C51.9189 83.4852 53.4035 83.4559 54.8588 83.41C55.5893 83.3845 56.2989 83.3417 57.0097 83.2988C57.1657 83.2894 57.3216 83.28 57.4779 83.2708C57.7031 83.2569 57.9312 83.2457 58.159 83.2344C58.4746 83.2188 58.7898 83.2033 59.0963 83.1809C60.251 83.0966 61.3727 82.9903 62.4815 82.8749C62.585 82.864 62.6907 82.8549 62.7962 82.8458C62.9038 82.8366 63.0111 82.8273 63.1157 82.8162C64.3858 82.6769 65.623 82.5193 66.829 82.3415C66.8602 82.336 66.8913 82.3323 66.9225 82.3287C73.1266 81.4123 78.451 80.0138 82.6134 78.3514C82.6354 78.3423 82.6573 78.3349 82.6793 78.3258C83.4473 78.0179 84.1658 77.6989 84.8531 77.3745C84.9337 77.3379 85.0162 77.3012 85.095 77.2627C85.7108 76.9658 86.2809 76.6597 86.827 76.3518C86.867 76.3293 86.9072 76.307 86.9474 76.2847C87.0384 76.2343 87.1292 76.184 87.2156 76.1319C87.6903 75.8533 88.1228 75.5692 88.5371 75.2833C88.5716 75.2595 88.6061 75.2358 88.6407 75.2121C88.7658 75.1263 88.8903 75.041 89.0081 74.9534C89.3582 74.6949 89.6716 74.4347 89.9722 74.1726L89.9792 74.1664C90.1417 74.0238 90.3023 73.8828 90.4487 73.74C90.6943 73.5018 90.9106 73.2617 91.114 73.0216C91.257 72.8529 91.3945 72.6843 91.5154 72.5139C91.6785 72.2884 91.816 72.063 91.9388 71.8376C92.0378 71.6561 92.1276 71.4747 92.2009 71.2932ZM92.5583 46.3099V32.7029C92.4037 32.8433 92.2338 32.9819 92.0637 33.1206C91.9918 33.1792 91.9198 33.2379 91.849 33.2968C91.7916 33.3439 91.7363 33.391 91.681 33.4382C91.6072 33.501 91.5335 33.5638 91.4549 33.6267C90.9051 34.0611 90.3112 34.4863 89.6679 34.9023C89.5901 34.9524 89.5067 35.0019 89.4231 35.0515C89.363 35.0872 89.3028 35.1229 89.2445 35.1589C88.7057 35.4962 88.1357 35.8242 87.5363 36.145C87.3164 36.2641 87.0928 36.3814 86.8637 36.4987C86.1947 36.8396 85.4927 37.1695 84.7541 37.4921C84.7034 37.5144 84.6547 37.537 84.6061 37.5595C84.5388 37.5907 84.4717 37.6218 84.4004 37.6516C83.5426 38.0163 82.628 38.3645 81.6786 38.7018C81.5109 38.7616 81.3379 38.8192 81.1645 38.8769C81.0669 38.9094 80.9692 38.9419 80.8722 38.9749C80.117 39.2296 79.3363 39.4734 78.528 39.7098C78.4356 39.7366 78.3438 39.7635 78.252 39.7904C78.054 39.8484 77.8559 39.9064 77.6519 39.9628C76.5797 40.2579 75.4726 40.542 74.3106 40.8022C74.2285 40.8201 74.143 40.8371 74.0573 40.8541C73.9766 40.8701 73.8958 40.8861 73.8176 40.903C72.793 41.1266 71.73 41.3337 70.6376 41.528C70.2674 41.594 69.8917 41.6563 69.5141 41.7186C68.4731 41.8891 67.4045 42.0449 66.3066 42.1878C66.1851 42.2036 66.0658 42.2204 65.9467 42.2372C65.7892 42.2595 65.6318 42.2816 65.4691 42.3015C64.1054 42.4664 62.6941 42.6094 61.2444 42.7285C61.0437 42.7449 60.8396 42.7584 60.6353 42.772C60.4738 42.7827 60.3122 42.7934 60.152 42.8055C58.9918 42.8898 57.806 42.9595 56.5926 43.0144L56.5405 43.0168C56.1146 43.0362 55.6916 43.0554 55.2602 43.0713C53.6803 43.1244 52.071 43.1629 50.4032 43.1629C48.7353 43.1629 47.1261 43.1244 45.5462 43.0713C45.1041 43.0551 44.6726 43.0354 44.2396 43.0156L44.2137 43.0144C43.0004 42.9595 41.8145 42.8898 40.6543 42.8055C40.531 42.7968 40.4066 42.7885 40.2821 42.7802C40.0403 42.764 39.7979 42.7479 39.562 42.7285C38.1122 42.6076 36.7009 42.4664 35.3373 42.3015C35.1746 42.2816 35.0171 42.2595 34.8597 42.2372C34.7405 42.2204 34.6213 42.2036 34.4997 42.1878C33.4018 42.0449 32.3315 41.8891 31.2922 41.7186C30.9147 41.6563 30.5389 41.594 30.1687 41.528C29.0763 41.3337 28.0133 41.1266 26.9887 40.903C26.9182 40.8878 26.8456 40.8736 26.7728 40.8594C26.6792 40.8411 26.5854 40.8228 26.4957 40.8022C25.3337 40.542 24.2267 40.2597 23.1545 39.9628C22.952 39.9081 22.7555 39.8501 22.5591 39.7922C22.4657 39.7646 22.3723 39.737 22.2784 39.7098C21.4701 39.4734 20.6893 39.2296 19.9342 38.9749C19.8372 38.9419 19.7395 38.9094 19.6419 38.8769C19.4685 38.8192 19.2955 38.7616 19.1277 38.7018C18.1783 38.3645 17.2656 38.0163 16.406 37.6516C16.3346 37.6218 16.2676 37.5907 16.2002 37.5595C16.1517 37.537 16.1029 37.5144 16.0522 37.4921C15.3136 37.1714 14.6116 36.8396 13.9427 36.4987C13.7136 36.3814 13.4918 36.2641 13.27 36.145C12.6707 35.8224 12.1007 35.4943 11.5618 35.1589C11.5035 35.1229 11.4433 35.0872 11.3832 35.0515C11.2997 35.0019 11.2163 34.9524 11.1384 34.9023C10.4951 34.4863 9.90126 34.0592 9.35141 33.6267C9.26186 33.556 9.17913 33.4853 9.0964 33.4146C9.05044 33.3753 9.00448 33.336 8.95735 33.2968C8.88653 33.2379 8.81458 33.1793 8.74265 33.1206C8.57257 32.9819 8.40262 32.8433 8.24805 32.7029V46.3099C8.32503 46.572 8.35069 46.8487 8.30487 47.1255C8.27187 47.3308 8.24805 47.5379 8.24805 47.745C8.24805 48.018 8.31237 48.2926 8.3757 48.5629C8.38082 48.5848 8.38593 48.6066 8.39101 48.6284C8.44233 48.8502 8.51381 49.0719 8.60362 49.2937C8.67876 49.4752 8.76674 49.6566 8.86571 49.8381C8.99034 50.0635 9.12781 50.289 9.2891 50.5144C9.41006 50.6848 9.54753 50.8535 9.69049 51.0221C9.89393 51.264 10.1102 51.5023 10.3558 51.7406C10.4922 51.8752 10.6424 52.0068 10.7924 52.1381C10.8057 52.1498 10.819 52.1614 10.8323 52.1731C11.1329 52.4352 11.4463 52.6955 11.7964 52.9539C11.9001 53.031 12.0099 53.1064 12.1198 53.1819C12.1692 53.2158 12.2186 53.2497 12.2674 53.2838C12.6817 53.5697 13.1142 53.8538 13.5889 54.1324C13.6666 54.1792 13.7486 54.2247 13.8304 54.27C13.8798 54.2974 13.9292 54.3247 13.9775 54.3523C14.5237 54.6621 15.0937 54.9663 15.7095 55.2633C15.7383 55.2766 15.7678 55.29 15.7976 55.3035C15.8492 55.3269 15.9014 55.3506 15.9514 55.3751C16.6369 55.6995 17.3572 56.0184 18.1252 56.3263C18.1472 56.3355 18.1692 56.3446 18.1912 56.352C22.3535 58.0143 27.6779 59.4128 33.882 60.3292C33.9132 60.3347 33.9443 60.3384 33.9755 60.342C35.1815 60.518 36.4187 60.6774 37.6888 60.8167C37.7934 60.8278 37.9007 60.8371 38.0083 60.8463C38.1138 60.8554 38.2195 60.8645 38.323 60.8754C39.4318 60.9909 40.5535 61.0972 41.7082 61.1815C42.0376 61.2055 42.3769 61.2224 42.7159 61.2392C42.9203 61.2494 43.1246 61.2596 43.3266 61.2713C43.5426 61.2836 43.758 61.2964 43.9735 61.3093C44.6247 61.3482 45.2764 61.3872 45.9457 61.4106C47.4028 61.4619 48.8874 61.4912 50.4032 61.4912C51.9189 61.4912 53.4035 61.4619 54.8588 61.4161C55.5892 61.3905 56.2988 61.3477 57.0096 61.3048C57.1655 61.2954 57.3216 61.286 57.4779 61.2768C57.7031 61.2629 57.9312 61.2517 58.1591 61.2404C58.4746 61.2249 58.7898 61.2093 59.0963 61.187C60.251 61.1027 61.3727 60.9964 62.4815 60.8809C62.585 60.87 62.6907 60.8609 62.7962 60.8518C62.9038 60.8426 63.0111 60.8333 63.1157 60.8222C64.3858 60.6829 65.623 60.5253 66.829 60.3475C66.8602 60.342 66.8913 60.3384 66.9225 60.3347C73.1266 59.4183 78.451 58.0198 82.6134 56.3575C82.6244 56.3529 82.6354 56.3487 82.6463 56.3446C82.6573 56.3405 82.6683 56.3364 82.6793 56.3318C83.4473 56.0239 84.1658 55.705 84.8531 55.3806C84.9337 55.3439 85.0162 55.3072 85.095 55.2688C85.7108 54.9718 86.2809 54.6658 86.827 54.3578C86.8669 54.3354 86.9072 54.3131 86.9474 54.2908C87.0383 54.2403 87.1292 54.19 87.2156 54.1379C87.6903 53.8593 88.1228 53.5752 88.5371 53.2893C88.5715 53.2656 88.606 53.2419 88.6404 53.2183C88.7656 53.1325 88.8903 53.0471 89.0081 52.9594C89.3582 52.701 89.6716 52.4407 89.9722 52.1786L89.9792 52.1725C90.1417 52.0298 90.3023 51.8888 90.4487 51.7461C90.6943 51.5078 90.9106 51.2677 91.114 51.0276C91.257 50.859 91.3945 50.6903 91.5154 50.5199C91.6785 50.2945 91.816 50.069 91.9388 49.8436C92.0378 49.6621 92.1276 49.4807 92.2009 49.2992C92.2907 49.0756 92.3622 48.8557 92.4135 48.6339C92.4183 48.6136 92.4231 48.5932 92.4279 48.5729C92.4931 48.2963 92.5583 48.0199 92.5583 47.745C92.5583 47.5379 92.5363 47.3308 92.5015 47.1255C92.4557 46.8487 92.4813 46.572 92.5583 46.3099ZM92.5583 25.751C92.5583 19.2481 75.2472 12.0048 50.4032 12.0048C25.5591 12.0048 8.24805 19.2481 8.24805 25.751C8.24805 32.2539 25.5591 39.4972 50.4032 39.4972C75.2472 39.4972 92.5583 32.2539 92.5583 25.751ZM92.4996 92.3524C92.5143 92.2681 92.5326 92.1856 92.5583 92.105L92.5565 76.6927C92.0873 77.1161 91.5887 77.5322 91.0352 77.9354C84.1016 83.126 70.3297 87.1509 50.4032 87.1509C30.3923 87.1509 16.5856 83.093 9.68132 77.8712C9.22311 77.534 8.81622 77.1839 8.41667 76.832C8.39181 76.8097 8.36454 76.7878 8.3373 76.766C8.30631 76.7411 8.27536 76.7163 8.24805 76.6909V92.1123C8.27187 92.1893 8.29204 92.27 8.3067 92.3524C9.34591 98.6922 26.5104 105.479 50.4032 105.479C74.296 105.479 91.4604 98.6922 92.4996 92.3524Z" fill="#FF6112"/>
<path d="M219.95 99.1C215.843 99.1 212.287 98.9167 209.28 98.55C206.347 98.2567 203.487 97.7067 200.7 96.9V22.1C203.487 21.2933 206.347 20.7433 209.28 20.45C212.287 20.0833 215.843 19.9 219.95 19.9C226.037 19.9 231.133 21.1467 235.24 23.64C239.42 26.1333 242.573 30.2767 244.7 36.07C246.9 41.79 248 49.6 248 59.5C248 69.4 246.9 77.2467 244.7 83.04C242.573 88.8333 239.42 92.9767 235.24 95.47C231.133 97.89 226.037 99.1 219.95 99.1ZM213.9 90.85H219.95C222.883 90.85 225.45 89.97 227.65 88.21C229.923 86.3767 231.683 83.1867 232.93 78.64C234.177 74.0933 234.8 67.7133 234.8 59.5C234.8 51.2133 234.177 44.8333 232.93 40.36C231.683 35.8133 229.923 32.66 227.65 30.9C225.45 29.0667 222.883 28.15 219.95 28.15H213.9V90.85ZM268.891 99.1C265.811 99.1 262.951 98.6233 260.311 97.67C257.745 96.7167 255.691 94.9933 254.151 92.5C252.611 89.9333 251.841 86.2667 251.841 81.5C251.841 76.7333 252.611 73.1033 254.151 70.61C255.765 68.0433 257.928 66.2833 260.641 65.33C263.428 64.3767 266.545 63.9 269.991 63.9C271.678 63.9 273.291 64.01 274.831 64.23C276.445 64.45 277.948 64.7067 279.341 65V60.6C279.341 56.2 278.315 53.2667 276.261 51.8C274.208 50.3333 271.385 49.6 267.791 49.6H256.791V44.1C258.478 43.5133 260.531 43 262.951 42.56C265.445 42.12 267.791 41.9 269.991 41.9C274.978 41.9 279.121 42.4133 282.421 43.44C285.795 44.3933 288.325 46.2267 290.011 48.94C291.698 51.58 292.541 55.4667 292.541 60.6V98H283.191L281.541 94.7H280.991C279.818 95.8 278.241 96.8267 276.261 97.78C274.355 98.66 271.898 99.1 268.891 99.1ZM273.291 91.4C274.685 91.4 275.895 91.18 276.921 90.74C278.021 90.2267 278.828 89.7133 279.341 89.2V71.6H273.291C272.045 71.6 270.761 71.8933 269.441 72.48C268.195 73.0667 267.131 74.0933 266.251 75.56C265.445 76.9533 265.041 78.9333 265.041 81.5C265.041 84.0667 265.445 86.0833 266.251 87.55C267.131 88.9433 268.195 89.9333 269.441 90.52C270.761 91.1067 272.045 91.4 273.291 91.4ZM319.448 99.1C316.368 99.1 313.508 98.6233 310.868 97.67C308.302 96.6433 306.248 94.81 304.708 92.17C303.168 89.4567 302.398 85.5333 302.398 80.4V52.35H296.348V44.1H302.398V30.9H315.598V44.1H330.448V50.15C328.835 50.6633 326.745 51.1767 324.178 51.69C321.612 52.13 318.935 52.35 316.148 52.35H315.598V80.4C315.598 83.3333 315.965 85.6067 316.698 87.22C317.432 88.76 318.348 89.86 319.448 90.52C320.548 91.1067 321.648 91.4 322.748 91.4H332.648V96.9C331.768 97.2667 330.558 97.6333 329.018 98C327.478 98.2933 325.865 98.55 324.178 98.77C322.492 98.99 320.915 99.1 319.448 99.1ZM349.2 99.1C346.12 99.1 343.26 98.6233 340.62 97.67C338.053 96.7167 336 94.9933 334.46 92.5C332.92 89.9333 332.15 86.2667 332.15 81.5C332.15 76.7333 332.92 73.1033 334.46 70.61C336.073 68.0433 338.237 66.2833 340.95 65.33C343.737 64.3767 346.853 63.9 350.3 63.9C351.987 63.9 353.6 64.01 355.14 64.23C356.753 64.45 358.257 64.7067 359.65 65V60.6C359.65 56.2 358.623 53.2667 356.57 51.8C354.517 50.3333 351.693 49.6 348.1 49.6H337.1V44.1C338.787 43.5133 340.84 43 343.26 42.56C345.753 42.12 348.1 41.9 350.3 41.9C355.287 41.9 359.43 42.4133 362.73 43.44C366.103 44.3933 368.633 46.2267 370.32 48.94C372.007 51.58 372.85 55.4667 372.85 60.6V98H363.5L361.85 94.7H361.3C360.127 95.8 358.55 96.8267 356.57 97.78C354.663 98.66 352.207 99.1 349.2 99.1ZM353.6 91.4C354.993 91.4 356.203 91.18 357.23 90.74C358.33 90.2267 359.137 89.7133 359.65 89.2V71.6H353.6C352.353 71.6 351.07 71.8933 349.75 72.48C348.503 73.0667 347.44 74.0933 346.56 75.56C345.753 76.9533 345.35 78.9333 345.35 81.5C345.35 84.0667 345.753 86.0833 346.56 87.55C347.44 88.9433 348.503 89.9333 349.75 90.52C351.07 91.1067 352.353 91.4 353.6 91.4ZM400.307 99.1C396.494 99.1 393.194 98.8067 390.407 98.22C387.694 97.7067 384.944 96.9 382.157 95.8V21H395.357V44.65C396.53 43.8433 397.887 43.1833 399.427 42.67C401.04 42.1567 402.8 41.9 404.707 41.9C408.74 41.9 412.224 42.8533 415.157 44.76C418.164 46.5933 420.474 49.6 422.087 53.78C423.7 57.96 424.507 63.5333 424.507 70.5C424.507 77.4667 423.627 83.04 421.867 87.22C420.18 91.4 417.54 94.4433 413.947 96.35C410.354 98.1833 405.807 99.1 400.307 99.1ZM395.357 91.4H400.307C402.507 91.4 404.414 90.8133 406.027 89.64C407.714 88.3933 408.997 86.2667 409.877 83.26C410.83 80.2533 411.307 76 411.307 70.5C411.307 65 410.867 60.7467 409.987 57.74C409.107 54.66 407.897 52.5333 406.357 51.36C404.89 50.1867 403.24 49.6 401.407 49.6C400.014 49.6 398.804 49.82 397.777 50.26C396.75 50.7 395.944 51.2133 395.357 51.8V91.4ZM444.87 99.1C441.79 99.1 438.93 98.6233 436.29 97.67C433.723 96.7167 431.67 94.9933 430.13 92.5C428.59 89.9333 427.82 86.2667 427.82 81.5C427.82 76.7333 428.59 73.1033 430.13 70.61C431.743 68.0433 433.907 66.2833 436.62 65.33C439.407 64.3767 442.523 63.9 445.97 63.9C447.657 63.9 449.27 64.01 450.81 64.23C452.423 64.45 453.927 64.7067 455.32 65V60.6C455.32 56.2 454.293 53.2667 452.24 51.8C450.187 50.3333 447.363 49.6 443.77 49.6H432.77V44.1C434.457 43.5133 436.51 43 438.93 42.56C441.423 42.12 443.77 41.9 445.97 41.9C450.957 41.9 455.1 42.4133 458.4 43.44C461.773 44.3933 464.303 46.2267 465.99 48.94C467.677 51.58 468.52 55.4667 468.52 60.6V98H459.17L457.52 94.7H456.97C455.797 95.8 454.22 96.8267 452.24 97.78C450.333 98.66 447.877 99.1 444.87 99.1ZM449.27 91.4C450.663 91.4 451.873 91.18 452.9 90.74C454 90.2267 454.807 89.7133 455.32 89.2V71.6H449.27C448.023 71.6 446.74 71.8933 445.42 72.48C444.173 73.0667 443.11 74.0933 442.23 75.56C441.423 76.9533 441.02 78.9333 441.02 81.5C441.02 84.0667 441.423 86.0833 442.23 87.55C443.11 88.9433 444.173 89.9333 445.42 90.52C446.74 91.1067 448.023 91.4 449.27 91.4ZM488.827 99.1C486.114 99.1 483.474 98.8433 480.907 98.33C478.34 97.89 476.214 97.4133 474.527 96.9V91.4H486.627C490.734 91.4 493.85 90.8133 495.977 89.64C498.177 88.3933 499.277 86.4133 499.277 83.7C499.277 81.7933 498.654 80.2533 497.407 79.08C496.16 77.8333 494.547 76.77 492.567 75.89C490.66 75.01 488.57 74.13 486.297 73.25C484.097 72.2967 482.007 71.1967 480.027 69.95C478.12 68.63 476.544 66.98 475.297 65C474.05 62.9467 473.427 60.38 473.427 57.3C473.427 51.2133 475.26 47.1433 478.927 45.09C482.667 42.9633 487.984 41.9 494.877 41.9C497.664 41.9 500.34 42.12 502.907 42.56C505.474 43 507.564 43.5133 509.177 44.1V49.6H497.077C494.07 49.6 491.577 50.15 489.597 51.25C487.617 52.35 486.627 54 486.627 56.2C486.627 58.1067 487.25 59.6833 488.497 60.93C489.744 62.1033 491.32 63.13 493.227 64.01C495.207 64.89 497.297 65.8067 499.497 66.76C501.77 67.64 503.86 68.74 505.767 70.06C507.747 71.3067 509.36 72.92 510.607 74.9C511.854 76.88 512.477 79.4467 512.477 82.6C512.477 87 511.597 90.41 509.837 92.83C508.15 95.1767 505.547 96.8267 502.027 97.78C498.58 98.66 494.18 99.1 488.827 99.1ZM539.431 99.1C533.785 99.1 529.128 98.1833 525.461 96.35C521.795 94.4433 519.081 91.4 517.321 87.22C515.561 83.04 514.681 77.4667 514.681 70.5C514.681 63.5333 515.488 57.96 517.101 53.78C518.788 49.6 521.171 46.5933 524.251 44.76C527.405 42.8533 531.181 41.9 535.581 41.9C539.981 41.9 543.721 42.8533 546.801 44.76C549.955 46.5933 552.338 49.6 553.951 53.78C555.638 57.96 556.481 63.5333 556.481 70.5V74.35H527.881C527.881 80.6567 528.981 85.0933 531.181 87.66C533.455 90.1533 536.938 91.4 541.631 91.4H553.731V96.9C552.118 97.4133 550.028 97.89 547.461 98.33C544.895 98.8433 542.218 99.1 539.431 99.1ZM527.881 66.65H543.281C543.281 61.8833 542.951 58.2533 542.291 55.76C541.631 53.1933 540.715 51.4333 539.541 50.48C538.368 49.5267 537.048 49.05 535.581 49.05C534.115 49.05 532.795 49.5267 531.621 50.48C530.448 51.4333 529.531 53.1933 528.871 55.76C528.211 58.2533 527.881 61.8833 527.881 66.65ZM585.077 98V21H598.277V89.2H625.227V98H585.077ZM642.311 99.1C639.231 99.1 636.371 98.6233 633.731 97.67C631.165 96.7167 629.111 94.9933 627.571 92.5C626.031 89.9333 625.261 86.2667 625.261 81.5C625.261 76.7333 626.031 73.1033 627.571 70.61C629.185 68.0433 631.348 66.2833 634.061 65.33C636.848 64.3767 639.965 63.9 643.411 63.9C645.098 63.9 646.711 64.01 648.251 64.23C649.865 64.45 651.368 64.7067 652.761 65V60.6C652.761 56.2 651.735 53.2667 649.681 51.8C647.628 50.3333 644.805 49.6 641.211 49.6H630.211V44.1C631.898 43.5133 633.951 43 636.371 42.56C638.865 42.12 641.211 41.9 643.411 41.9C648.398 41.9 652.541 42.4133 655.841 43.44C659.215 44.3933 661.745 46.2267 663.431 48.94C665.118 51.58 665.961 55.4667 665.961 60.6V98H656.611L654.961 94.7H654.411C653.238 95.8 651.661 96.8267 649.681 97.78C647.775 98.66 645.318 99.1 642.311 99.1ZM646.711 91.4C648.105 91.4 649.315 91.18 650.341 90.74C651.441 90.2267 652.248 89.7133 652.761 89.2V71.6H646.711C645.465 71.6 644.181 71.8933 642.861 72.48C641.615 73.0667 640.551 74.0933 639.671 75.56C638.865 76.9533 638.461 78.9333 638.461 81.5C638.461 84.0667 638.865 86.0833 639.671 87.55C640.551 88.9433 641.615 89.9333 642.861 90.52C644.181 91.1067 645.465 91.4 646.711 91.4ZM693.418 99.1C689.605 99.1 686.305 98.8067 683.518 98.22C680.805 97.7067 678.055 96.9 675.268 95.8V21H688.468V44.65C689.642 43.8433 690.998 43.1833 692.538 42.67C694.152 42.1567 695.912 41.9 697.818 41.9C701.852 41.9 705.335 42.8533 708.268 44.76C711.275 46.5933 713.585 49.6 715.198 53.78C716.812 57.96 717.618 63.5333 717.618 70.5C717.618 77.4667 716.738 83.04 714.978 87.22C713.292 91.4 710.652 94.4433 707.058 96.35C703.465 98.1833 698.918 99.1 693.418 99.1ZM688.468 91.4H693.418C695.618 91.4 697.525 90.8133 699.138 89.64C700.825 88.3933 702.108 86.2667 702.988 83.26C703.942 80.2533 704.418 76 704.418 70.5C704.418 65 703.978 60.7467 703.098 57.74C702.218 54.66 701.008 52.5333 699.468 51.36C698.002 50.1867 696.352 49.6 694.518 49.6C693.125 49.6 691.915 49.82 690.888 50.26C689.862 50.7 689.055 51.2133 688.468 51.8V91.4Z" fill="white"/>
</svg>
