<svg width="768" height="110" viewBox="0 0 768 110" fill="none" xmlns="http://www.w3.org/2000/svg">
<path fill-rule="evenodd" clipRule="evenodd" d="M143.404 100.181C151.495 98.0079 156.76 93.6452 157.197 89.4908C157.206 89.4131 157.217 89.3371 157.232 89.2628L157.231 75.0618C156.953 75.4519 156.658 75.8353 156.331 76.2068C153.677 79.2991 149.332 81.9423 143.404 83.4245V100.181ZM143.404 79.9197C146.504 79.0863 149.189 77.9315 151.346 76.5902C151.353 76.586 151.359 76.5821 151.366 76.5783C151.372 76.5745 151.379 76.5707 151.385 76.5665C151.84 76.2828 152.265 75.989 152.672 75.69C152.681 75.6836 152.69 75.6771 152.699 75.6706C152.738 75.6433 152.777 75.6157 152.815 75.587C153.179 75.3134 153.517 75.0314 153.84 74.7477C153.864 74.7271 153.887 74.7067 153.911 74.6863L153.911 74.686C153.965 74.6395 154.019 74.5931 154.07 74.5451C154.351 74.2884 154.607 74.0266 154.852 73.7631L154.913 73.6976L154.913 73.6976C154.988 73.6186 155.061 73.5399 155.131 73.4592C155.338 73.2211 155.524 72.9812 155.702 72.7397L155.706 72.7341L155.706 72.7341C155.802 72.6026 155.897 72.4727 155.984 72.3412C156.129 72.1216 156.257 71.9004 156.377 71.6792C156.462 71.5238 156.543 71.3685 156.615 71.2114C156.711 71.0037 156.793 70.796 156.866 70.5882C156.924 70.421 156.977 70.2539 157.021 70.0867C157.074 69.8806 157.116 69.678 157.146 69.4736L157.155 69.4174C157.194 69.1626 157.232 68.9079 157.232 68.6546C157.232 68.4638 157.219 68.2729 157.199 68.0838C157.171 67.8288 157.187 67.5738 157.232 67.3323L157.231 54.7964C156.953 55.1866 156.658 55.5699 156.331 55.9414C153.677 59.0337 149.332 61.677 143.404 63.1591V79.9197ZM143.404 59.6543C146.504 58.8209 149.189 57.6661 151.346 56.3248C151.353 56.3206 151.359 56.3168 151.366 56.313C151.37 56.3106 151.374 56.3083 151.378 56.3059C151.38 56.3043 151.383 56.3028 151.385 56.3011C151.84 56.0174 152.265 55.7236 152.672 55.4247L152.699 55.4052C152.738 55.3779 152.777 55.3503 152.815 55.3217C153.179 55.0481 153.517 54.766 153.84 54.4823C153.864 54.4616 153.887 54.4411 153.911 54.4206L153.911 54.4205C153.965 54.374 154.019 54.3277 154.07 54.2797C154.351 54.023 154.607 53.7612 154.852 53.4978L154.913 53.4323L154.913 53.4322C154.988 53.3532 155.061 53.2745 155.131 53.1938C155.338 52.9557 155.524 52.7159 155.702 52.4744L155.706 52.4689L155.706 52.4688C155.802 52.3373 155.897 52.2074 155.984 52.0758C156.129 51.8563 156.257 51.635 156.377 51.4138C156.462 51.2584 156.543 51.1031 156.615 50.946C156.711 50.7383 156.793 50.5306 156.866 50.3229C156.924 50.1557 156.977 49.9885 157.021 49.8213C157.074 49.6153 157.116 49.4126 157.146 49.2083L157.155 49.1521C157.194 48.8972 157.232 48.6425 157.232 48.3892C157.232 48.1984 157.219 48.0075 157.199 47.8184C157.171 47.5634 157.187 47.3084 157.232 47.0669V34.5294C157.141 34.6587 157.04 34.7864 156.939 34.9142L156.939 34.9143C156.897 34.9683 156.854 35.0224 156.812 35.0765C156.778 35.12 156.746 35.1634 156.713 35.2068C156.669 35.2647 156.626 35.3226 156.579 35.3805C156.254 35.7808 155.902 36.1726 155.521 36.5559C155.475 36.6021 155.426 36.6476 155.377 36.6933L155.377 36.6934L155.377 36.6934C155.341 36.7263 155.305 36.7592 155.271 36.7923C154.952 37.1031 154.615 37.4054 154.26 37.7009C154.13 37.8107 153.997 37.9188 153.862 38.0268C153.466 38.341 153.05 38.6449 152.613 38.9422C152.583 38.9627 152.554 38.9835 152.526 39.0042C152.486 39.033 152.446 39.0616 152.404 39.0891C151.896 39.4252 151.355 39.746 150.793 40.0568C150.694 40.1119 150.591 40.1649 150.489 40.218L150.489 40.2181L150.488 40.2183C150.431 40.2482 150.373 40.2781 150.316 40.3084C149.869 40.5431 149.407 40.7677 148.928 40.9856C148.873 41.0102 148.819 41.035 148.765 41.0598C148.648 41.1133 148.53 41.1667 148.41 41.2186C147.775 41.4905 147.12 41.7523 146.432 41.9921C146.383 42.0086 146.333 42.0243 146.282 42.0399L146.282 42.04C146.234 42.0547 146.187 42.0694 146.14 42.085C145.534 42.291 144.905 42.4818 144.258 42.6609C144.039 42.7217 143.817 42.7791 143.593 42.8365C143.53 42.8525 143.467 42.8684 143.404 42.8841V59.6543ZM143.404 39.3958C151.898 37.1255 157.232 32.447 157.232 28.1238C157.232 23.8006 151.898 19.1222 143.404 16.8518V39.3958Z" fill="#FF6112"/>
<path fill-rule="evenodd" clipRule="evenodd" d="M122.346 100.181C130.436 98.0076 135.7 93.645 136.138 89.4908C136.147 89.4131 136.157 89.3371 136.173 89.2628L136.172 75.0618C135.894 75.4519 135.599 75.8353 135.271 76.2068C132.618 79.2989 128.273 81.942 122.346 83.4242V100.181ZM122.346 79.9194C125.445 79.0861 128.13 77.9313 130.287 76.5902C130.293 76.5859 130.3 76.5821 130.306 76.5783C130.309 76.5767 130.312 76.5751 130.314 76.5735C130.318 76.5712 130.322 76.5689 130.326 76.5665C130.78 76.2828 131.205 75.9889 131.612 75.69L131.64 75.6706C131.679 75.6433 131.718 75.6157 131.755 75.587C132.12 75.3134 132.457 75.0314 132.781 74.7477C132.804 74.727 132.828 74.7064 132.852 74.6859C132.906 74.6395 132.959 74.5931 133.01 74.545C133.291 74.2883 133.547 74.0266 133.793 73.7631L133.854 73.6975L133.854 73.6975C133.928 73.6185 134.002 73.5399 134.071 73.4592C134.279 73.221 134.464 72.9812 134.642 72.7397L134.646 72.7342C134.742 72.6027 134.837 72.4728 134.924 72.3412C135.069 72.1216 135.197 71.9004 135.318 71.6792C135.402 71.5238 135.484 71.3684 135.555 71.2114C135.652 71.0037 135.733 70.7959 135.806 70.5882C135.865 70.421 135.918 70.2538 135.961 70.0867C136.014 69.8806 136.057 69.678 136.087 69.4736L136.095 69.4174C136.134 69.1626 136.173 68.9078 136.173 68.6546C136.173 68.4637 136.16 68.2729 136.139 68.0838C136.112 67.8288 136.127 67.5737 136.173 67.3322L136.172 54.7964C135.894 55.1865 135.599 55.5699 135.271 55.9414C132.618 59.0335 128.273 61.6767 122.346 63.1589V79.9194ZM122.346 59.6541C125.445 58.8207 128.13 57.6659 130.287 56.3248C130.293 56.3206 130.3 56.3168 130.306 56.313C130.313 56.3092 130.319 56.3054 130.326 56.3011C130.78 56.0174 131.205 55.7236 131.612 55.4247L131.64 55.4052C131.679 55.3778 131.718 55.3503 131.755 55.3216C132.12 55.0481 132.457 54.766 132.781 54.4823C132.804 54.4617 132.828 54.4413 132.851 54.4209L132.852 54.4206L132.852 54.4205C132.906 54.374 132.959 54.3277 133.01 54.2797C133.291 54.023 133.547 53.7612 133.793 53.4978L133.854 53.4323C133.928 53.3532 134.002 53.2745 134.071 53.1938C134.279 52.9557 134.464 52.7159 134.642 52.4744L134.646 52.4686L134.646 52.4685C134.742 52.3371 134.837 52.2073 134.924 52.0758C135.069 51.8563 135.197 51.635 135.318 51.4138C135.402 51.2584 135.484 51.1031 135.555 50.946C135.652 50.7383 135.733 50.5306 135.806 50.3228C135.865 50.1557 135.918 49.9885 135.961 49.8213C136.014 49.6152 136.057 49.4126 136.087 49.2082L136.095 49.152C136.134 48.8972 136.173 48.6425 136.173 48.3892C136.173 48.1984 136.16 48.0075 136.139 47.8184C136.112 47.5634 136.127 47.3084 136.173 47.0669V34.5294C136.081 34.6587 135.981 34.7864 135.88 34.9142C135.837 34.9683 135.795 35.0223 135.753 35.0765C135.719 35.1199 135.686 35.1634 135.653 35.2068C135.61 35.2647 135.566 35.3226 135.52 35.3805C135.194 35.7807 134.843 36.1725 134.462 36.5559C134.416 36.6021 134.367 36.6476 134.317 36.6933L134.317 36.6934C134.281 36.7262 134.246 36.7591 134.211 36.7923C133.892 37.1031 133.555 37.4054 133.2 37.7009C133.07 37.8107 132.938 37.9187 132.802 38.0268C132.406 38.3409 131.991 38.6449 131.554 38.9421C131.524 38.9626 131.495 38.9834 131.466 39.0041L131.466 39.0042C131.426 39.033 131.386 39.0616 131.344 39.0891C130.837 39.4251 130.295 39.746 129.733 40.0567C129.634 40.1118 129.532 40.1649 129.429 40.2181L129.429 40.2181L129.429 40.2183C129.371 40.2482 129.313 40.2781 129.256 40.3084C128.809 40.5431 128.347 40.7677 127.869 40.9856C127.814 41.0102 127.76 41.035 127.705 41.0598C127.588 41.1132 127.471 41.1667 127.35 41.2186C126.715 41.4905 126.06 41.7523 125.373 41.9921C125.324 42.0086 125.273 42.0243 125.223 42.0399C125.175 42.0546 125.127 42.0694 125.081 42.085C124.474 42.291 123.845 42.4818 123.199 42.6608C122.979 42.7216 122.757 42.7791 122.534 42.8365C122.471 42.8524 122.409 42.8682 122.346 42.8838V59.6541ZM122.346 39.3956C130.839 37.1251 136.173 32.4469 136.173 28.1238C136.173 23.8008 130.839 19.1225 122.346 16.8521V39.3956Z" fill="#FF6112"/>
<path fill-rule="evenodd" clipRule="evenodd" d="M101.287 100.181C109.378 98.0076 114.642 93.645 115.079 89.4908C115.088 89.4131 115.099 89.3371 115.114 89.2628L115.113 75.0618C114.835 75.4519 114.54 75.8353 114.213 76.2068C111.559 79.2989 107.214 81.942 101.287 83.4242V100.181ZM101.287 79.9194C104.387 79.0861 107.071 77.9313 109.228 76.5902C109.235 76.5859 109.241 76.5821 109.248 76.5783C109.25 76.5767 109.253 76.5751 109.256 76.5735C109.26 76.5712 109.263 76.5689 109.267 76.5665C109.722 76.2828 110.147 75.9889 110.554 75.69L110.581 75.6706C110.62 75.6433 110.659 75.6157 110.697 75.587C111.061 75.3134 111.399 75.0314 111.722 74.7477C111.746 74.727 111.769 74.7064 111.793 74.6859C111.847 74.6395 111.901 74.5931 111.952 74.545C112.233 74.2883 112.489 74.0266 112.734 73.7631L112.795 73.6975L112.795 73.6975C112.869 73.6185 112.943 73.5399 113.013 73.4592C113.22 73.221 113.405 72.9812 113.583 72.7397L113.587 72.7342C113.684 72.6027 113.779 72.4728 113.865 72.3412C114.011 72.1216 114.139 71.9004 114.259 71.6792C114.344 71.5238 114.425 71.3684 114.497 71.2114C114.593 71.0037 114.675 70.7959 114.747 70.5882C114.806 70.421 114.859 70.2538 114.902 70.0867C114.956 69.8806 114.998 69.678 115.028 69.4736L115.037 69.4174C115.075 69.1626 115.114 68.9078 115.114 68.6546C115.114 68.4637 115.101 68.2729 115.08 68.0838C115.053 67.8288 115.068 67.5737 115.114 67.3322L115.113 54.7964C114.835 55.1865 114.54 55.5699 114.213 55.9414C111.559 59.0335 107.214 61.6767 101.287 63.1589V79.9194ZM101.287 59.6541C104.387 58.8207 107.071 57.6659 109.228 56.3248C109.234 56.3206 109.241 56.3168 109.247 56.313C109.254 56.3092 109.261 56.3054 109.267 56.3011C109.722 56.0174 110.147 55.7236 110.554 55.4247L110.581 55.4052C110.62 55.3778 110.659 55.3503 110.697 55.3216C111.061 55.0481 111.399 54.766 111.722 54.4823C111.745 54.4617 111.769 54.4413 111.793 54.4209L111.793 54.4206L111.793 54.4205C111.847 54.374 111.901 54.3277 111.952 54.2797C112.233 54.023 112.489 53.7612 112.734 53.4978L112.795 53.4323C112.869 53.3532 112.943 53.2745 113.013 53.1938C113.22 52.9557 113.405 52.7159 113.583 52.4744L113.588 52.4686L113.588 52.4685C113.684 52.3371 113.779 52.2073 113.865 52.0758C114.011 51.8563 114.139 51.635 114.259 51.4138C114.344 51.2584 114.425 51.1031 114.497 50.946C114.593 50.7383 114.675 50.5306 114.747 50.3228C114.806 50.1557 114.859 49.9885 114.902 49.8213C114.956 49.6152 114.998 49.4126 115.028 49.2082L115.037 49.152C115.075 48.8972 115.114 48.6425 115.114 48.3892C115.114 48.1984 115.101 48.0075 115.08 47.8184C115.053 47.5634 115.068 47.3084 115.114 47.0669V34.5294C115.023 34.6587 114.922 34.7864 114.821 34.9142C114.779 34.9683 114.736 35.0223 114.694 35.0765C114.66 35.1199 114.628 35.1634 114.595 35.2068C114.551 35.2647 114.507 35.3226 114.461 35.3805C114.136 35.7807 113.784 36.1725 113.403 36.5559C113.357 36.6021 113.308 36.6476 113.258 36.6933L113.258 36.6934C113.223 36.7262 113.187 36.7591 113.153 36.7923C112.834 37.1031 112.496 37.4054 112.142 37.7009C112.012 37.8107 111.879 37.9187 111.744 38.0268C111.348 38.3409 110.932 38.6449 110.495 38.9421C110.465 38.9626 110.436 38.9834 110.408 39.0041L110.407 39.0042C110.368 39.033 110.328 39.0616 110.286 39.0891C109.778 39.4251 109.237 39.746 108.675 40.0567C108.575 40.1118 108.473 40.1649 108.371 40.2181L108.37 40.2181L108.37 40.2183C108.312 40.2482 108.255 40.2781 108.197 40.3084C107.751 40.5431 107.288 40.7677 106.81 40.9856C106.755 41.0102 106.701 41.035 106.647 41.0598C106.53 41.1132 106.412 41.1667 106.291 41.2186C105.657 41.4905 105.002 41.7523 104.314 41.9921C104.265 42.0086 104.215 42.0243 104.164 42.0399C104.116 42.0546 104.068 42.0694 104.022 42.085C103.416 42.291 102.787 42.4818 102.14 42.6608C101.921 42.7216 101.699 42.7791 101.475 42.8365C101.413 42.8524 101.35 42.8682 101.287 42.8838V59.6541ZM101.287 39.3956C109.781 37.1251 115.114 32.4469 115.114 28.1238C115.114 23.8008 109.781 19.1225 101.287 16.8521V39.3956Z" fill="#FF6112"/>
<path fill-rule="evenodd" clipRule="evenodd" d="M92.2009 71.2933C92.2907 71.0697 92.3622 70.8498 92.4135 70.628C92.4183 70.6077 92.4231 70.5873 92.4279 70.567C92.4931 70.2904 92.5583 70.014 92.5583 69.7391C92.5583 69.532 92.5363 69.3249 92.5015 69.1196C92.4557 68.8428 92.4813 68.5661 92.5583 68.304L92.5565 54.6989C92.0873 55.1222 91.5887 55.5383 91.0352 55.9415C84.1016 61.1321 70.3297 65.157 50.4032 65.157C30.3923 65.157 16.5856 61.0991 9.68132 55.8774C9.22311 55.5401 8.81622 55.1901 8.41667 54.8382C8.39181 54.8159 8.36454 54.794 8.33731 54.7721C8.30631 54.7472 8.27536 54.7224 8.24805 54.697V68.304C8.32503 68.5661 8.35069 68.8428 8.30487 69.1196C8.27187 69.3249 8.24805 69.532 8.24805 69.7391C8.24805 70.0121 8.31236 70.2866 8.37569 70.557C8.38081 70.5788 8.38593 70.6007 8.39101 70.6225C8.44233 70.8443 8.51381 71.0661 8.60362 71.2878C8.67876 71.4693 8.76674 71.6507 8.86571 71.8322C8.99034 72.0576 9.12781 72.2831 9.2891 72.5085C9.41006 72.6789 9.54753 72.8476 9.69049 73.0162C9.89393 73.2581 10.1102 73.4964 10.3558 73.7347C10.4922 73.8694 10.6425 74.001 10.7925 74.1323L10.8323 74.1672C11.1329 74.4293 11.4463 74.6896 11.7964 74.948C11.9001 75.0251 12.0099 75.1005 12.1197 75.1759C12.1691 75.2098 12.2185 75.2438 12.2674 75.2779C12.6817 75.5638 13.1142 75.8479 13.5889 76.1265C13.6666 76.1733 13.7485 76.2187 13.8303 76.264C13.8797 76.2914 13.9291 76.3188 13.9775 76.3464C14.5237 76.6562 15.0937 76.9604 15.7095 77.2574C15.7383 77.2708 15.7678 77.2841 15.7975 77.2976C15.8492 77.321 15.9014 77.3447 15.9514 77.3692C16.6369 77.6936 17.3572 78.0125 18.1252 78.3204L18.1254 78.3205C18.1474 78.3296 18.1693 78.3388 18.1912 78.3461C22.3535 80.0084 27.6779 81.4069 33.882 82.3233C33.9132 82.3288 33.9443 82.3325 33.9755 82.3361C35.1815 82.5121 36.4187 82.6715 37.6888 82.8108C37.7934 82.8219 37.9007 82.8312 38.0083 82.8404C38.1138 82.8495 38.2195 82.8586 38.323 82.8695C39.4318 82.985 40.5535 83.0913 41.7082 83.1756C42.0376 83.1996 42.377 83.2165 42.7161 83.2333C42.9204 83.2435 43.1247 83.2537 43.3266 83.2654C43.5426 83.2777 43.758 83.2906 43.9735 83.3034C44.6247 83.3423 45.2764 83.3813 45.9457 83.4047C47.4028 83.456 48.8874 83.4853 50.4032 83.4853C51.9189 83.4853 53.4035 83.456 54.8588 83.4102C55.5893 83.3846 56.2989 83.3418 57.0097 83.2989C57.1657 83.2895 57.3216 83.2801 57.4779 83.2709C57.7031 83.257 57.9312 83.2458 58.159 83.2345C58.4746 83.219 58.7898 83.2034 59.0963 83.1811C60.251 83.0968 61.3727 82.9905 62.4815 82.875C62.585 82.8641 62.6907 82.855 62.7962 82.8459C62.9038 82.8367 63.0111 82.8274 63.1157 82.8163C64.3858 82.677 65.623 82.5194 66.829 82.3416C66.8602 82.3361 66.8913 82.3325 66.9225 82.3288C73.1266 81.4124 78.451 80.0139 82.6134 78.3516C82.6354 78.3424 82.6573 78.3351 82.6793 78.3259C83.4473 78.018 84.1658 77.6991 84.8531 77.3747C84.9337 77.338 85.0162 77.3013 85.095 77.2629C85.7108 76.9659 86.2809 76.6599 86.827 76.3519C86.867 76.3295 86.9072 76.3071 86.9474 76.2848C87.0384 76.2344 87.1292 76.1841 87.2156 76.132C87.6903 75.8534 88.1228 75.5693 88.5371 75.2834C88.5716 75.2596 88.6061 75.2359 88.6407 75.2122C88.7658 75.1265 88.8903 75.0411 89.0081 74.9535C89.3582 74.6951 89.6716 74.4348 89.9722 74.1727L89.9792 74.1666C90.1417 74.0239 90.3023 73.8829 90.4487 73.7402C90.6943 73.5019 90.9106 73.2618 91.114 73.0217C91.257 72.8531 91.3945 72.6844 91.5154 72.514C91.6785 72.2886 91.816 72.0631 91.9388 71.8377C92.0378 71.6562 92.1276 71.4748 92.2009 71.2933ZM92.5583 46.31V32.7031C92.4037 32.8434 92.2338 32.982 92.0637 33.1207C91.9918 33.1794 91.9198 33.238 91.849 33.2969C91.7916 33.344 91.7363 33.3911 91.681 33.4383C91.6072 33.5011 91.5335 33.564 91.4549 33.6268C90.9051 34.0612 90.3112 34.4864 89.6679 34.9025C89.5901 34.9526 89.5067 35.0021 89.4231 35.0517C89.363 35.0873 89.3028 35.123 89.2445 35.159C88.7057 35.4963 88.1357 35.8244 87.5363 36.1451C87.3164 36.2642 87.0928 36.3815 86.8637 36.4988C86.1947 36.8398 85.4927 37.1697 84.7541 37.4922C84.7034 37.5145 84.6547 37.5371 84.6061 37.5596C84.5388 37.5908 84.4717 37.6219 84.4004 37.6517C83.5426 38.0164 82.628 38.3647 81.6786 38.7019C81.5109 38.7617 81.3379 38.8193 81.1645 38.877C81.0669 38.9095 80.9692 38.942 80.8722 38.975C80.117 39.2298 79.3363 39.4735 78.528 39.71C78.4356 39.7367 78.3438 39.7636 78.252 39.7905C78.054 39.8485 77.8559 39.9066 77.6519 39.9629C76.5797 40.258 75.4726 40.5421 74.3106 40.8023C74.2285 40.8203 74.143 40.8372 74.0573 40.8542C73.9766 40.8702 73.8958 40.8863 73.8176 40.9031C72.793 41.1267 71.73 41.3339 70.6376 41.5281C70.2674 41.5941 69.8917 41.6564 69.5141 41.7188C68.4731 41.8892 67.4045 42.045 66.3066 42.188C66.1851 42.2037 66.0658 42.2206 65.9467 42.2374C65.7892 42.2596 65.6318 42.2818 65.4691 42.3016C64.1054 42.4665 62.6941 42.6095 61.2444 42.7286C61.0437 42.745 60.8396 42.7585 60.6353 42.7721C60.4738 42.7828 60.3122 42.7935 60.152 42.8056C58.9918 42.8899 57.806 42.9596 56.5926 43.0146L56.5405 43.0169C56.1146 43.0363 55.6916 43.0555 55.2602 43.0714C53.6803 43.1245 52.071 43.163 50.4032 43.163C48.7353 43.163 47.1261 43.1245 45.5462 43.0714C45.1041 43.0552 44.6726 43.0355 44.2396 43.0157L44.2137 43.0146C43.0004 42.9596 41.8145 42.8899 40.6543 42.8056C40.531 42.7969 40.4066 42.7886 40.2821 42.7803C40.0403 42.7642 39.7979 42.748 39.562 42.7286C38.1122 42.6077 36.7009 42.4665 35.3373 42.3016C35.1746 42.2818 35.0171 42.2596 34.8597 42.2374C34.7405 42.2206 34.6213 42.2037 34.4997 42.188C33.4018 42.045 32.3315 41.8892 31.2922 41.7188C30.9147 41.6564 30.5389 41.5941 30.1687 41.5281C29.0763 41.3339 28.0133 41.1267 26.9887 40.9031C26.9182 40.8879 26.8456 40.8737 26.7728 40.8595C26.6792 40.8413 26.5854 40.823 26.4957 40.8023C25.3337 40.5421 24.2267 40.2598 23.1545 39.9629C22.952 39.9083 22.7555 39.8502 22.5591 39.7923C22.4657 39.7647 22.3723 39.7371 22.2784 39.71C21.4701 39.4735 20.6893 39.2298 19.9342 38.975C19.8372 38.942 19.7395 38.9095 19.6419 38.877C19.4685 38.8193 19.2955 38.7617 19.1277 38.7019C18.1783 38.3647 17.2656 38.0164 16.406 37.6517C16.3346 37.6219 16.2676 37.5908 16.2002 37.5596C16.1517 37.5371 16.1029 37.5145 16.0522 37.4922C15.3136 37.1715 14.6116 36.8398 13.9427 36.4988C13.7136 36.3815 13.4918 36.2642 13.27 36.1451C12.6707 35.8225 12.1007 35.4945 11.5618 35.159C11.5035 35.123 11.4433 35.0873 11.3832 35.0516C11.2997 35.002 11.2163 34.9526 11.1384 34.9025C10.4951 34.4864 9.90126 34.0593 9.35141 33.6268C9.26186 33.5561 9.17913 33.4854 9.0964 33.4147C9.05044 33.3754 9.00448 33.3362 8.95735 33.2969C8.88653 33.2381 8.81458 33.1794 8.74265 33.1207C8.57257 32.982 8.40262 32.8435 8.24805 32.7031V46.31C8.32503 46.5721 8.35069 46.8488 8.30487 47.1256C8.27187 47.3309 8.24805 47.538 8.24805 47.7451C8.24805 48.0181 8.31237 48.2927 8.3757 48.563C8.38082 48.5849 8.38593 48.6067 8.39101 48.6285C8.44233 48.8503 8.51381 49.0721 8.60362 49.2938C8.67876 49.4753 8.76674 49.6567 8.86571 49.8382C8.99034 50.0636 9.12781 50.2891 9.2891 50.5145C9.41006 50.685 9.54753 50.8536 9.69049 51.0222C9.89393 51.2641 10.1102 51.5024 10.3558 51.7407C10.4922 51.8753 10.6424 52.0069 10.7924 52.1382C10.8057 52.1499 10.819 52.1616 10.8323 52.1732C11.1329 52.4353 11.4463 52.6956 11.7964 52.954C11.9001 53.0312 12.0099 53.1066 12.1198 53.182C12.1692 53.2159 12.2186 53.2498 12.2674 53.2839C12.6817 53.5698 13.1142 53.8539 13.5889 54.1325C13.6666 54.1794 13.7486 54.2248 13.8304 54.2701C13.8798 54.2975 13.9292 54.3249 13.9775 54.3525C14.5237 54.6622 15.0937 54.9665 15.7095 55.2634C15.7383 55.2768 15.7678 55.2902 15.7976 55.3036C15.8492 55.3271 15.9014 55.3508 15.9514 55.3752C16.6369 55.6996 17.3572 56.0185 18.1252 56.3264C18.1472 56.3356 18.1692 56.3447 18.1912 56.3521C22.3535 58.0145 27.6779 59.4129 33.882 60.3293C33.9132 60.3348 33.9443 60.3385 33.9755 60.3422C35.1815 60.5181 36.4187 60.6776 37.6888 60.8169C37.7934 60.828 37.9007 60.8372 38.0083 60.8465C38.1138 60.8555 38.2195 60.8646 38.323 60.8755C39.4318 60.991 40.5535 61.0973 41.7082 61.1816C42.0376 61.2056 42.3769 61.2225 42.7159 61.2394C42.9203 61.2495 43.1246 61.2597 43.3266 61.2714C43.5426 61.2837 43.758 61.2966 43.9735 61.3094C44.6247 61.3483 45.2764 61.3873 45.9457 61.4107C47.4028 61.462 48.8874 61.4913 50.4032 61.4913C51.9189 61.4913 53.4035 61.462 54.8588 61.4162C55.5892 61.3906 56.2988 61.3478 57.0096 61.305C57.1655 61.2955 57.3216 61.2861 57.4779 61.2769C57.7031 61.2631 57.9312 61.2518 58.1591 61.2406C58.4746 61.225 58.7898 61.2094 59.0963 61.1871C60.251 61.1028 61.3727 60.9965 62.4815 60.881C62.585 60.8701 62.6907 60.861 62.7962 60.8519C62.9038 60.8427 63.0111 60.8335 63.1157 60.8224C64.3858 60.6831 65.623 60.5254 66.829 60.3477C66.8602 60.3422 66.8913 60.3385 66.9225 60.3348C73.1266 59.4184 78.451 58.02 82.6134 56.3576C82.6244 56.353 82.6354 56.3489 82.6463 56.3447C82.6573 56.3406 82.6683 56.3365 82.6793 56.3319C83.4473 56.024 84.1658 55.7051 84.8531 55.3807C84.9337 55.344 85.0162 55.3074 85.095 55.2689C85.7108 54.972 86.2809 54.6659 86.827 54.358C86.8669 54.3355 86.9072 54.3132 86.9474 54.2909C87.0383 54.2405 87.1292 54.1901 87.2156 54.138C87.6903 53.8594 88.1228 53.5753 88.5371 53.2894C88.5715 53.2657 88.606 53.242 88.6404 53.2184C88.7656 53.1326 88.8903 53.0472 89.0081 52.9595C89.3582 52.7011 89.6716 52.4408 89.9722 52.1787L89.9792 52.1726C90.1417 52.0299 90.3023 51.8889 90.4487 51.7462C90.6943 51.5079 90.9106 51.2678 91.114 51.0277C91.257 50.8591 91.3945 50.6905 91.5154 50.52C91.6785 50.2946 91.816 50.0691 91.9388 49.8437C92.0378 49.6622 92.1276 49.4808 92.2009 49.2993C92.2907 49.0757 92.3622 48.8558 92.4135 48.634C92.4183 48.6137 92.4231 48.5934 92.4279 48.573C92.4931 48.2965 92.5583 48.02 92.5583 47.7451C92.5583 47.538 92.5363 47.3309 92.5015 47.1256C92.4557 46.8488 92.4813 46.5721 92.5583 46.31ZM92.5583 25.7511C92.5583 19.2482 75.2472 12.0049 50.4032 12.0049C25.5591 12.0049 8.24805 19.2482 8.24805 25.7511C8.24805 32.254 25.5591 39.4974 50.4032 39.4974C75.2472 39.4974 92.5583 32.254 92.5583 25.7511ZM92.4996 92.3526C92.5143 92.2683 92.5326 92.1858 92.5583 92.1051L92.5565 76.6928C92.0873 77.1162 91.5887 77.5323 91.0352 77.9355C84.1016 83.1261 70.3297 87.151 50.4032 87.151C30.3923 87.151 16.5856 83.0931 9.68132 77.8714C9.22311 77.5341 8.81622 77.184 8.41667 76.8321C8.39181 76.8098 8.36454 76.788 8.3373 76.7661C8.30631 76.7412 8.27536 76.7164 8.24805 76.691V92.1125C8.27187 92.1894 8.29204 92.2701 8.3067 92.3526C9.34591 98.6923 26.5104 105.479 50.4032 105.479C74.296 105.479 91.4604 98.6923 92.4996 92.3526Z" fill="#FF6112"/>
<path d="M219.95 99.1C215.843 99.1 212.287 98.9167 209.28 98.55C206.347 98.2567 203.487 97.7067 200.7 96.9V22.1C203.487 21.2933 206.347 20.7433 209.28 20.45C212.287 20.0833 215.843 19.9 219.95 19.9C226.037 19.9 231.133 21.1467 235.24 23.64C239.42 26.1333 242.573 30.2767 244.7 36.07C246.9 41.79 248 49.6 248 59.5C248 69.4 246.9 77.2467 244.7 83.04C242.573 88.8333 239.42 92.9767 235.24 95.47C231.133 97.89 226.037 99.1 219.95 99.1ZM213.9 90.85H219.95C222.883 90.85 225.45 89.97 227.65 88.21C229.923 86.3767 231.683 83.1867 232.93 78.64C234.177 74.0933 234.8 67.7133 234.8 59.5C234.8 51.2133 234.177 44.8333 232.93 40.36C231.683 35.8133 229.923 32.66 227.65 30.9C225.45 29.0667 222.883 28.15 219.95 28.15H213.9V90.85ZM268.891 99.1C265.811 99.1 262.951 98.6233 260.311 97.67C257.745 96.7167 255.691 94.9933 254.151 92.5C252.611 89.9333 251.841 86.2667 251.841 81.5C251.841 76.7333 252.611 73.1033 254.151 70.61C255.765 68.0433 257.928 66.2833 260.641 65.33C263.428 64.3767 266.545 63.9 269.991 63.9C271.678 63.9 273.291 64.01 274.831 64.23C276.445 64.45 277.948 64.7067 279.341 65V60.6C279.341 56.2 278.315 53.2667 276.261 51.8C274.208 50.3333 271.385 49.6 267.791 49.6H256.791V44.1C258.478 43.5133 260.531 43 262.951 42.56C265.445 42.12 267.791 41.9 269.991 41.9C274.978 41.9 279.121 42.4133 282.421 43.44C285.795 44.3933 288.325 46.2267 290.011 48.94C291.698 51.58 292.541 55.4667 292.541 60.6V98H283.191L281.541 94.7H280.991C279.818 95.8 278.241 96.8267 276.261 97.78C274.355 98.66 271.898 99.1 268.891 99.1ZM273.291 91.4C274.685 91.4 275.895 91.18 276.921 90.74C278.021 90.2267 278.828 89.7133 279.341 89.2V71.6H273.291C272.045 71.6 270.761 71.8933 269.441 72.48C268.195 73.0667 267.131 74.0933 266.251 75.56C265.445 76.9533 265.041 78.9333 265.041 81.5C265.041 84.0667 265.445 86.0833 266.251 87.55C267.131 88.9433 268.195 89.9333 269.441 90.52C270.761 91.1067 272.045 91.4 273.291 91.4ZM319.448 99.1C316.368 99.1 313.508 98.6233 310.868 97.67C308.302 96.6433 306.248 94.81 304.708 92.17C303.168 89.4567 302.398 85.5333 302.398 80.4V52.35H296.348V44.1H302.398V30.9H315.598V44.1H330.448V50.15C328.835 50.6633 326.745 51.1767 324.178 51.69C321.612 52.13 318.935 52.35 316.148 52.35H315.598V80.4C315.598 83.3333 315.965 85.6067 316.698 87.22C317.432 88.76 318.348 89.86 319.448 90.52C320.548 91.1067 321.648 91.4 322.748 91.4H332.648V96.9C331.768 97.2667 330.558 97.6333 329.018 98C327.478 98.2933 325.865 98.55 324.178 98.77C322.492 98.99 320.915 99.1 319.448 99.1ZM349.2 99.1C346.12 99.1 343.26 98.6233 340.62 97.67C338.053 96.7167 336 94.9933 334.46 92.5C332.92 89.9333 332.15 86.2667 332.15 81.5C332.15 76.7333 332.92 73.1033 334.46 70.61C336.073 68.0433 338.237 66.2833 340.95 65.33C343.737 64.3767 346.853 63.9 350.3 63.9C351.987 63.9 353.6 64.01 355.14 64.23C356.753 64.45 358.257 64.7067 359.65 65V60.6C359.65 56.2 358.623 53.2667 356.57 51.8C354.517 50.3333 351.693 49.6 348.1 49.6H337.1V44.1C338.787 43.5133 340.84 43 343.26 42.56C345.753 42.12 348.1 41.9 350.3 41.9C355.287 41.9 359.43 42.4133 362.73 43.44C366.103 44.3933 368.633 46.2267 370.32 48.94C372.007 51.58 372.85 55.4667 372.85 60.6V98H363.5L361.85 94.7H361.3C360.127 95.8 358.55 96.8267 356.57 97.78C354.663 98.66 352.207 99.1 349.2 99.1ZM353.6 91.4C354.993 91.4 356.203 91.18 357.23 90.74C358.33 90.2267 359.137 89.7133 359.65 89.2V71.6H353.6C352.353 71.6 351.07 71.8933 349.75 72.48C348.503 73.0667 347.44 74.0933 346.56 75.56C345.753 76.9533 345.35 78.9333 345.35 81.5C345.35 84.0667 345.753 86.0833 346.56 87.55C347.44 88.9433 348.503 89.9333 349.75 90.52C351.07 91.1067 352.353 91.4 353.6 91.4ZM400.307 99.1C396.494 99.1 393.194 98.8067 390.407 98.22C387.694 97.7067 384.944 96.9 382.157 95.8V21H395.357V44.65C396.53 43.8433 397.887 43.1833 399.427 42.67C401.04 42.1567 402.8 41.9 404.707 41.9C408.74 41.9 412.224 42.8533 415.157 44.76C418.164 46.5933 420.474 49.6 422.087 53.78C423.7 57.96 424.507 63.5333 424.507 70.5C424.507 77.4667 423.627 83.04 421.867 87.22C420.18 91.4 417.54 94.4433 413.947 96.35C410.354 98.1833 405.807 99.1 400.307 99.1ZM395.357 91.4H400.307C402.507 91.4 404.414 90.8133 406.027 89.64C407.714 88.3933 408.997 86.2667 409.877 83.26C410.83 80.2533 411.307 76 411.307 70.5C411.307 65 410.867 60.7467 409.987 57.74C409.107 54.66 407.897 52.5333 406.357 51.36C404.89 50.1867 403.24 49.6 401.407 49.6C400.014 49.6 398.804 49.82 397.777 50.26C396.75 50.7 395.944 51.2133 395.357 51.8V91.4ZM444.87 99.1C441.79 99.1 438.93 98.6233 436.29 97.67C433.723 96.7167 431.67 94.9933 430.13 92.5C428.59 89.9333 427.82 86.2667 427.82 81.5C427.82 76.7333 428.59 73.1033 430.13 70.61C431.743 68.0433 433.907 66.2833 436.62 65.33C439.407 64.3767 442.523 63.9 445.97 63.9C447.657 63.9 449.27 64.01 450.81 64.23C452.423 64.45 453.927 64.7067 455.32 65V60.6C455.32 56.2 454.293 53.2667 452.24 51.8C450.187 50.3333 447.363 49.6 443.77 49.6H432.77V44.1C434.457 43.5133 436.51 43 438.93 42.56C441.423 42.12 443.77 41.9 445.97 41.9C450.957 41.9 455.1 42.4133 458.4 43.44C461.773 44.3933 464.303 46.2267 465.99 48.94C467.677 51.58 468.52 55.4667 468.52 60.6V98H459.17L457.52 94.7H456.97C455.797 95.8 454.22 96.8267 452.24 97.78C450.333 98.66 447.877 99.1 444.87 99.1ZM449.27 91.4C450.663 91.4 451.873 91.18 452.9 90.74C454 90.2267 454.807 89.7133 455.32 89.2V71.6H449.27C448.023 71.6 446.74 71.8933 445.42 72.48C444.173 73.0667 443.11 74.0933 442.23 75.56C441.423 76.9533 441.02 78.9333 441.02 81.5C441.02 84.0667 441.423 86.0833 442.23 87.55C443.11 88.9433 444.173 89.9333 445.42 90.52C446.74 91.1067 448.023 91.4 449.27 91.4ZM488.827 99.1C486.114 99.1 483.474 98.8433 480.907 98.33C478.34 97.89 476.214 97.4133 474.527 96.9V91.4H486.627C490.734 91.4 493.85 90.8133 495.977 89.64C498.177 88.3933 499.277 86.4133 499.277 83.7C499.277 81.7933 498.654 80.2533 497.407 79.08C496.16 77.8333 494.547 76.77 492.567 75.89C490.66 75.01 488.57 74.13 486.297 73.25C484.097 72.2967 482.007 71.1967 480.027 69.95C478.12 68.63 476.544 66.98 475.297 65C474.05 62.9467 473.427 60.38 473.427 57.3C473.427 51.2133 475.26 47.1433 478.927 45.09C482.667 42.9633 487.984 41.9 494.877 41.9C497.664 41.9 500.34 42.12 502.907 42.56C505.474 43 507.564 43.5133 509.177 44.1V49.6H497.077C494.07 49.6 491.577 50.15 489.597 51.25C487.617 52.35 486.627 54 486.627 56.2C486.627 58.1067 487.25 59.6833 488.497 60.93C489.744 62.1033 491.32 63.13 493.227 64.01C495.207 64.89 497.297 65.8067 499.497 66.76C501.77 67.64 503.86 68.74 505.767 70.06C507.747 71.3067 509.36 72.92 510.607 74.9C511.854 76.88 512.477 79.4467 512.477 82.6C512.477 87 511.597 90.41 509.837 92.83C508.15 95.1767 505.547 96.8267 502.027 97.78C498.58 98.66 494.18 99.1 488.827 99.1ZM539.431 99.1C533.785 99.1 529.128 98.1833 525.461 96.35C521.795 94.4433 519.081 91.4 517.321 87.22C515.561 83.04 514.681 77.4667 514.681 70.5C514.681 63.5333 515.488 57.96 517.101 53.78C518.788 49.6 521.171 46.5933 524.251 44.76C527.405 42.8533 531.181 41.9 535.581 41.9C539.981 41.9 543.721 42.8533 546.801 44.76C549.955 46.5933 552.338 49.6 553.951 53.78C555.638 57.96 556.481 63.5333 556.481 70.5V74.35H527.881C527.881 80.6567 528.981 85.0933 531.181 87.66C533.455 90.1533 536.938 91.4 541.631 91.4H553.731V96.9C552.118 97.4133 550.028 97.89 547.461 98.33C544.895 98.8433 542.218 99.1 539.431 99.1ZM527.881 66.65H543.281C543.281 61.8833 542.951 58.2533 542.291 55.76C541.631 53.1933 540.715 51.4333 539.541 50.48C538.368 49.5267 537.048 49.05 535.581 49.05C534.115 49.05 532.795 49.5267 531.621 50.48C530.448 51.4333 529.531 53.1933 528.871 55.76C528.211 58.2533 527.881 61.8833 527.881 66.65ZM585.077 98V21H598.277V89.2H625.227V98H585.077ZM642.311 99.1C639.231 99.1 636.371 98.6233 633.731 97.67C631.165 96.7167 629.111 94.9933 627.571 92.5C626.031 89.9333 625.261 86.2667 625.261 81.5C625.261 76.7333 626.031 73.1033 627.571 70.61C629.185 68.0433 631.348 66.2833 634.061 65.33C636.848 64.3767 639.965 63.9 643.411 63.9C645.098 63.9 646.711 64.01 648.251 64.23C649.865 64.45 651.368 64.7067 652.761 65V60.6C652.761 56.2 651.735 53.2667 649.681 51.8C647.628 50.3333 644.805 49.6 641.211 49.6H630.211V44.1C631.898 43.5133 633.951 43 636.371 42.56C638.865 42.12 641.211 41.9 643.411 41.9C648.398 41.9 652.541 42.4133 655.841 43.44C659.215 44.3933 661.745 46.2267 663.431 48.94C665.118 51.58 665.961 55.4667 665.961 60.6V98H656.611L654.961 94.7H654.411C653.238 95.8 651.661 96.8267 649.681 97.78C647.775 98.66 645.318 99.1 642.311 99.1ZM646.711 91.4C648.105 91.4 649.315 91.18 650.341 90.74C651.441 90.2267 652.248 89.7133 652.761 89.2V71.6H646.711C645.465 71.6 644.181 71.8933 642.861 72.48C641.615 73.0667 640.551 74.0933 639.671 75.56C638.865 76.9533 638.461 78.9333 638.461 81.5C638.461 84.0667 638.865 86.0833 639.671 87.55C640.551 88.9433 641.615 89.9333 642.861 90.52C644.181 91.1067 645.465 91.4 646.711 91.4ZM693.418 99.1C689.605 99.1 686.305 98.8067 683.518 98.22C680.805 97.7067 678.055 96.9 675.268 95.8V21H688.468V44.65C689.642 43.8433 690.998 43.1833 692.538 42.67C694.152 42.1567 695.912 41.9 697.818 41.9C701.852 41.9 705.335 42.8533 708.268 44.76C711.275 46.5933 713.585 49.6 715.198 53.78C716.812 57.96 717.618 63.5333 717.618 70.5C717.618 77.4667 716.738 83.04 714.978 87.22C713.292 91.4 710.652 94.4433 707.058 96.35C703.465 98.1833 698.918 99.1 693.418 99.1ZM688.468 91.4H693.418C695.618 91.4 697.525 90.8133 699.138 89.64C700.825 88.3933 702.108 86.2667 702.988 83.26C703.942 80.2533 704.418 76 704.418 70.5C704.418 65 703.978 60.7467 703.098 57.74C702.218 54.66 701.008 52.5333 699.468 51.36C698.002 50.1867 696.352 49.6 694.518 49.6C693.125 49.6 691.915 49.82 690.888 50.26C689.862 50.7 689.055 51.2133 688.468 51.8V91.4Z" fill="#1D1D1D"/>
</svg>
