<svg width="158" height="101" viewBox="0 0 158 101" fill="none" xmlns="http://www.w3.org/2000/svg">
<path fill-rule="evenodd" clipRule="evenodd" d="M143.404 91.8423C151.495 89.6687 156.76 85.3059 157.197 81.1515C157.206 81.0739 157.217 80.9978 157.232 80.9235L157.231 66.7226C156.953 67.1127 156.658 67.496 156.331 67.8676C153.677 70.9598 149.332 73.6031 143.404 75.0853V91.8423ZM143.404 71.5805C146.504 70.7471 149.189 69.5922 151.346 68.2509C151.353 68.2467 151.359 68.2429 151.366 68.2391C151.372 68.2353 151.379 68.2315 151.385 68.2273C151.84 67.9436 152.265 67.6497 152.672 67.3508C152.681 67.3443 152.69 67.3379 152.699 67.3314C152.738 67.304 152.777 67.2765 152.815 67.2478C153.179 66.9742 153.517 66.6922 153.84 66.4085C153.864 66.3879 153.887 66.3675 153.911 66.3471L153.911 66.3467C153.965 66.3003 154.019 66.2539 154.07 66.2058C154.351 65.9491 154.607 65.6874 154.852 65.4239L154.913 65.3584L154.913 65.3583C154.988 65.2793 155.061 65.2007 155.131 65.1199C155.338 64.8818 155.524 64.642 155.702 64.4005L155.706 64.3949L155.706 64.3948C155.802 64.2634 155.897 64.1335 155.984 64.002C156.129 63.7824 156.257 63.5612 156.377 63.34C156.462 63.1846 156.543 63.0292 156.615 62.8722C156.711 62.6644 156.793 62.4567 156.866 62.249C156.924 62.0818 156.977 61.9146 157.021 61.7474C157.074 61.5414 157.116 61.3387 157.146 61.1344L157.155 61.0782C157.194 60.8233 157.232 60.5686 157.232 60.3154C157.232 60.1245 157.219 59.9337 157.199 59.7445C157.171 59.4895 157.187 59.2345 157.232 58.993L157.231 46.4572C156.953 46.8473 156.658 47.2307 156.331 47.6022C153.677 50.6945 149.332 53.3377 143.404 54.8199V71.5805ZM143.404 51.3151C146.504 50.4817 149.189 49.3269 151.346 47.9856C151.353 47.9813 151.359 47.9775 151.366 47.9737C151.37 47.9714 151.374 47.9691 151.378 47.9666C151.38 47.9651 151.383 47.9635 151.385 47.9619C151.84 47.6782 152.265 47.3843 152.672 47.0854L152.699 47.066C152.738 47.0386 152.777 47.0111 152.815 46.9824C153.179 46.7088 153.517 46.4268 153.84 46.1431C153.864 46.1224 153.887 46.1019 153.911 46.0813L153.911 46.0812C153.965 46.0348 154.019 45.9884 154.07 45.9404C154.351 45.6837 154.607 45.422 154.852 45.1585L154.913 45.093L154.913 45.093C154.988 45.0139 155.061 44.9353 155.131 44.8546C155.338 44.6164 155.524 44.3766 155.702 44.1351L155.706 44.1296L155.706 44.1296C155.802 43.9981 155.897 43.8682 155.984 43.7366C156.129 43.517 156.257 43.2958 156.377 43.0746C156.462 42.9192 156.543 42.7638 156.615 42.6068C156.711 42.3991 156.793 42.1913 156.866 41.9836C156.924 41.8164 156.977 41.6492 157.021 41.4821C157.074 41.276 157.116 41.0734 157.146 40.869L157.155 40.8128C157.194 40.558 157.232 40.3032 157.232 40.05C157.232 39.8591 157.219 39.6683 157.199 39.4792C157.171 39.2242 157.187 38.9691 157.232 38.7277V26.1901C157.141 26.3195 157.04 26.4472 156.939 26.575L156.939 26.5751C156.897 26.6291 156.854 26.6831 156.812 26.7373C156.778 26.7807 156.746 26.8241 156.713 26.8676C156.669 26.9255 156.626 26.9834 156.579 27.0413C156.254 27.4415 155.902 27.8333 155.521 28.2167C155.475 28.2628 155.426 28.3084 155.377 28.3541L155.377 28.3541L155.377 28.3542C155.341 28.387 155.305 28.4199 155.271 28.4531C154.952 28.7638 154.615 29.0661 154.26 29.3617C154.13 29.4714 153.997 29.5795 153.862 29.6876C153.466 30.0017 153.05 30.3057 152.613 30.6029C152.583 30.6234 152.554 30.6443 152.526 30.665C152.486 30.6938 152.446 30.7224 152.404 30.7499C151.896 31.0859 151.355 31.4068 150.793 31.7175C150.694 31.7726 150.591 31.8256 150.489 31.8788L150.489 31.8789L150.488 31.8791C150.431 31.9089 150.373 31.9388 150.316 31.9692C149.869 32.2039 149.407 32.4285 148.928 32.6464C148.873 32.671 148.819 32.6958 148.765 32.7206C148.648 32.774 148.53 32.8275 148.41 32.8794C147.775 33.1513 147.12 33.4131 146.432 33.6529C146.383 33.6694 146.333 33.685 146.282 33.7007L146.282 33.7007C146.234 33.7155 146.187 33.7302 146.14 33.7458C145.534 33.9518 144.905 34.1426 144.258 34.3216C144.039 34.3824 143.817 34.4398 143.593 34.4973C143.53 34.5133 143.467 34.5291 143.404 34.5449V51.3151ZM143.404 31.0566C151.898 28.7862 157.232 24.1078 157.232 19.7846C157.232 15.4614 151.898 10.783 143.404 8.51257V31.0566Z" fill="#FF6112"/>
<path fill-rule="evenodd" clipRule="evenodd" d="M122.346 91.842C130.436 89.6683 135.7 85.3057 136.138 81.1515C136.147 81.0738 136.157 80.9978 136.173 80.9235L136.172 66.7226C135.894 67.1127 135.599 67.496 135.271 67.8676C132.618 70.9597 128.273 73.6028 122.346 75.085V91.842ZM122.346 71.5802C125.445 70.7468 128.13 69.5921 130.287 68.2509C130.293 68.2467 130.3 68.2429 130.306 68.2391C130.309 68.2375 130.312 68.2359 130.314 68.2342C130.318 68.232 130.322 68.2297 130.326 68.2273C130.78 67.9436 131.205 67.6497 131.612 67.3508L131.64 67.3314C131.679 67.304 131.718 67.2765 131.755 67.2478C132.12 66.9742 132.457 66.6922 132.781 66.4085C132.804 66.3878 132.828 66.3672 132.852 66.3467C132.906 66.3002 132.959 66.2538 133.01 66.2058C133.291 65.9491 133.547 65.6873 133.793 65.4239L133.854 65.3583L133.854 65.3582C133.928 65.2792 134.002 65.2006 134.071 65.1199C134.279 64.8818 134.464 64.642 134.642 64.4005L134.646 64.395C134.742 64.2635 134.837 64.1335 134.924 64.0019C135.069 63.7824 135.197 63.5612 135.318 63.3399C135.402 63.1846 135.484 63.0292 135.555 62.8721C135.652 62.6644 135.733 62.4567 135.806 62.249C135.865 62.0818 135.918 61.9146 135.961 61.7474C136.014 61.5414 136.057 61.3387 136.087 61.1344L136.095 61.0782C136.134 60.8233 136.173 60.5686 136.173 60.3153C136.173 60.1245 136.16 59.9337 136.139 59.7445C136.112 59.4895 136.127 59.2345 136.173 58.993L136.172 46.4572C135.894 46.8473 135.599 47.2307 135.271 47.6022C132.618 50.6943 128.273 53.3374 122.346 54.8196V71.5802ZM122.346 51.3148C125.445 50.4814 128.13 49.3267 130.287 47.9855C130.293 47.9813 130.3 47.9775 130.306 47.9737C130.313 47.9699 130.319 47.9661 130.326 47.9619C130.78 47.6782 131.205 47.3843 131.612 47.0854L131.64 47.0659C131.679 47.0386 131.718 47.0111 131.755 46.9824C132.12 46.7088 132.457 46.4268 132.781 46.1431C132.804 46.1225 132.828 46.1021 132.851 46.0816L132.852 46.0813L132.852 46.0812C132.906 46.0348 132.959 45.9884 133.01 45.9404C133.291 45.6837 133.547 45.422 133.793 45.1585L133.854 45.0931C133.928 45.014 134.002 44.9353 134.071 44.8545C134.279 44.6164 134.464 44.3766 134.642 44.1351L134.646 44.1294L134.646 44.1293C134.742 43.9979 134.837 43.868 134.924 43.7366C135.069 43.517 135.197 43.2958 135.318 43.0746C135.402 42.9192 135.484 42.7638 135.555 42.6068C135.652 42.3991 135.733 42.1913 135.806 41.9836C135.865 41.8164 135.918 41.6492 135.961 41.482C136.014 41.276 136.057 41.0734 136.087 40.869L136.095 40.8128C136.134 40.558 136.173 40.3032 136.173 40.05C136.173 39.8591 136.16 39.6683 136.139 39.4791C136.112 39.2241 136.127 38.9691 136.173 38.7276V26.1901C136.081 26.3195 135.981 26.4472 135.88 26.575C135.837 26.629 135.795 26.6831 135.753 26.7373C135.719 26.7807 135.686 26.8241 135.653 26.8676C135.61 26.9255 135.566 26.9834 135.52 27.0413C135.194 27.4415 134.843 27.8333 134.462 28.2167C134.416 28.2628 134.367 28.3084 134.317 28.3541L134.317 28.3541C134.281 28.387 134.246 28.4199 134.211 28.4531C133.892 28.7638 133.555 29.0661 133.2 29.3617C133.07 29.4714 132.938 29.5795 132.802 29.6876C132.406 30.0017 131.991 30.3057 131.554 30.6029C131.524 30.6234 131.495 30.6441 131.466 30.6648L131.466 30.665C131.426 30.6937 131.386 30.7224 131.344 30.7498C130.837 31.0859 130.295 31.4068 129.733 31.7175C129.634 31.7726 129.532 31.8256 129.429 31.8788L129.429 31.8789L129.429 31.8791C129.371 31.9089 129.313 31.9388 129.256 31.9691C128.809 32.2039 128.347 32.4285 127.869 32.6463C127.814 32.6709 127.76 32.6957 127.705 32.7205C127.588 32.774 127.471 32.8275 127.35 32.8794C126.715 33.1513 126.06 33.413 125.373 33.6529C125.324 33.6694 125.273 33.685 125.223 33.7007C125.175 33.7154 125.127 33.7302 125.081 33.7457C124.474 33.9518 123.845 34.1426 123.199 34.3216C122.979 34.3824 122.757 34.4398 122.534 34.4972C122.471 34.5132 122.409 34.529 122.346 34.5446V51.3148ZM122.346 31.0563C130.839 28.7859 136.173 24.1076 136.173 19.7846C136.173 15.4615 130.839 10.7833 122.346 8.51282V31.0563Z" fill="#FF6112"/>
<path fill-rule="evenodd" clipRule="evenodd" d="M101.287 91.842C109.378 89.6683 114.642 85.3057 115.079 81.1515C115.088 81.0738 115.099 80.9978 115.114 80.9235L115.113 66.7226C114.835 67.1127 114.54 67.496 114.213 67.8676C111.559 70.9597 107.214 73.6028 101.287 75.085V91.842ZM101.287 71.5802C104.387 70.7468 107.071 69.5921 109.228 68.2509C109.235 68.2467 109.241 68.2429 109.248 68.2391C109.25 68.2375 109.253 68.2359 109.256 68.2342C109.26 68.232 109.263 68.2297 109.267 68.2273C109.722 67.9436 110.147 67.6497 110.554 67.3508L110.581 67.3314C110.62 67.304 110.659 67.2765 110.697 67.2478C111.061 66.9742 111.399 66.6922 111.722 66.4085C111.746 66.3878 111.769 66.3672 111.793 66.3467C111.847 66.3002 111.901 66.2538 111.952 66.2058C112.233 65.9491 112.489 65.6873 112.734 65.4239L112.795 65.3583L112.795 65.3582C112.869 65.2792 112.943 65.2006 113.013 65.1199C113.22 64.8818 113.405 64.642 113.583 64.4005L113.587 64.395C113.684 64.2635 113.779 64.1335 113.865 64.0019C114.011 63.7824 114.139 63.5612 114.259 63.3399C114.344 63.1846 114.425 63.0292 114.497 62.8721C114.593 62.6644 114.675 62.4567 114.747 62.249C114.806 62.0818 114.859 61.9146 114.902 61.7474C114.956 61.5414 114.998 61.3387 115.028 61.1344L115.037 61.0782C115.075 60.8233 115.114 60.5686 115.114 60.3153C115.114 60.1245 115.101 59.9337 115.08 59.7445C115.053 59.4895 115.068 59.2345 115.114 58.993L115.113 46.4572C114.835 46.8473 114.54 47.2307 114.213 47.6022C111.559 50.6943 107.214 53.3374 101.287 54.8196V71.5802ZM101.287 51.3148C104.387 50.4814 107.071 49.3267 109.228 47.9855C109.234 47.9813 109.241 47.9775 109.247 47.9737C109.254 47.9699 109.261 47.9661 109.267 47.9619C109.722 47.6782 110.147 47.3843 110.554 47.0854L110.581 47.0659C110.62 47.0386 110.659 47.0111 110.697 46.9824C111.061 46.7088 111.399 46.4268 111.722 46.1431C111.745 46.1225 111.769 46.1021 111.793 46.0816L111.793 46.0813L111.793 46.0812C111.847 46.0348 111.901 45.9884 111.952 45.9404C112.233 45.6837 112.489 45.422 112.734 45.1585L112.795 45.0931C112.869 45.014 112.943 44.9353 113.013 44.8545C113.22 44.6164 113.405 44.3766 113.583 44.1351L113.588 44.1294L113.588 44.1293C113.684 43.9979 113.779 43.868 113.865 43.7366C114.011 43.517 114.139 43.2958 114.259 43.0746C114.344 42.9192 114.425 42.7638 114.497 42.6068C114.593 42.3991 114.675 42.1913 114.747 41.9836C114.806 41.8164 114.859 41.6492 114.902 41.482C114.956 41.276 114.998 41.0734 115.028 40.869L115.037 40.8128C115.075 40.558 115.114 40.3032 115.114 40.05C115.114 39.8591 115.101 39.6683 115.08 39.4791C115.053 39.2241 115.068 38.9691 115.114 38.7276V26.1901C115.023 26.3195 114.922 26.4472 114.821 26.575C114.779 26.629 114.736 26.6831 114.694 26.7373C114.66 26.7807 114.628 26.8241 114.595 26.8676C114.551 26.9255 114.507 26.9834 114.461 27.0413C114.136 27.4415 113.784 27.8333 113.403 28.2167C113.357 28.2628 113.308 28.3084 113.258 28.3541L113.258 28.3541C113.223 28.387 113.187 28.4199 113.153 28.4531C112.834 28.7638 112.496 29.0661 112.142 29.3617C112.012 29.4714 111.879 29.5795 111.744 29.6876C111.348 30.0017 110.932 30.3057 110.495 30.6029C110.465 30.6234 110.436 30.6441 110.408 30.6648L110.407 30.665C110.368 30.6937 110.328 30.7224 110.286 30.7498C109.778 31.0859 109.237 31.4068 108.675 31.7175C108.575 31.7726 108.473 31.8256 108.371 31.8788L108.37 31.8789L108.37 31.8791C108.312 31.9089 108.255 31.9388 108.197 31.9691C107.751 32.2039 107.288 32.4285 106.81 32.6463C106.755 32.6709 106.701 32.6957 106.647 32.7205C106.53 32.774 106.412 32.8275 106.291 32.8794C105.657 33.1513 105.002 33.413 104.314 33.6529C104.265 33.6694 104.215 33.685 104.164 33.7007C104.116 33.7154 104.068 33.7302 104.022 33.7457C103.416 33.9518 102.787 34.1426 102.14 34.3216C101.921 34.3824 101.699 34.4398 101.475 34.4972C101.413 34.5132 101.35 34.529 101.287 34.5446V51.3148ZM101.287 31.0563C109.781 28.7859 115.114 24.1076 115.114 19.7846C115.114 15.4615 109.781 10.7833 101.287 8.51282V31.0563Z" fill="#FF6112"/>
<path fill-rule="evenodd" clipRule="evenodd" d="M92.2009 62.9541C92.2907 62.7305 92.3622 62.5105 92.4135 62.2888C92.4183 62.2684 92.4231 62.2481 92.4279 62.2277C92.4931 61.9512 92.5583 61.6747 92.5583 61.3999C92.5583 61.1927 92.5363 60.9856 92.5015 60.7803C92.4557 60.5036 92.4813 60.2268 92.5583 59.9647L92.5565 46.3596C92.0873 46.783 91.5887 47.1991 91.0352 47.6023C84.1016 52.7929 70.3297 56.8178 50.4032 56.8178C30.3923 56.8178 16.5856 52.7599 9.68132 47.5381C9.22311 47.2009 8.81622 46.8508 8.41667 46.4989C8.39181 46.4766 8.36454 46.4548 8.33731 46.4329C8.30631 46.408 8.27536 46.3832 8.24805 46.3578V59.9647C8.32503 60.2268 8.35069 60.5036 8.30487 60.7803C8.27187 60.9856 8.24805 61.1927 8.24805 61.3999C8.24805 61.6728 8.31236 61.9474 8.37569 62.2177C8.38081 62.2396 8.38593 62.2615 8.39101 62.2833C8.44233 62.505 8.51381 62.7268 8.60362 62.9486C8.67876 63.13 8.76674 63.3115 8.86571 63.4929C8.99034 63.7184 9.12781 63.9438 9.2891 64.1693C9.41006 64.3397 9.54753 64.5083 9.69049 64.6769C9.89393 64.9189 10.1102 65.1572 10.3558 65.3954C10.4922 65.5301 10.6425 65.6617 10.7925 65.7931L10.8323 65.828C11.1329 66.0901 11.4463 66.3503 11.7964 66.6088C11.9001 66.6859 12.0099 66.7612 12.1197 66.8367C12.1691 66.8706 12.2185 66.9045 12.2674 66.9387C12.6817 67.2246 13.1142 67.5087 13.5889 67.7873C13.6666 67.8341 13.7485 67.8795 13.8303 67.9248C13.8797 67.9522 13.9291 67.9796 13.9775 68.0072C14.5237 68.317 15.0937 68.6212 15.7095 68.9181C15.7383 68.9315 15.7678 68.9449 15.7975 68.9584C15.8492 68.9818 15.9014 69.0055 15.9514 69.0299C16.6369 69.3543 17.3572 69.6732 18.1252 69.9812L18.1254 69.9813C18.1474 69.9904 18.1693 69.9995 18.1912 70.0068C22.3535 71.6692 27.6779 73.0677 33.882 73.9841C33.9132 73.9896 33.9443 73.9932 33.9755 73.9969C35.1815 74.1729 36.4187 74.3323 37.6888 74.4716C37.7934 74.4827 37.9007 74.4919 38.0083 74.5012C38.1138 74.5103 38.2195 74.5194 38.323 74.5303C39.4318 74.6457 40.5535 74.752 41.7082 74.8363C42.0376 74.8604 42.377 74.8772 42.7161 74.8941C42.9204 74.9043 43.1247 74.9144 43.3266 74.9262C43.5426 74.9385 43.758 74.9513 43.9735 74.9642C44.6247 75.0031 45.2764 75.042 45.9457 75.0654C47.4028 75.1168 48.8874 75.1461 50.4032 75.1461C51.9189 75.1461 53.4035 75.1168 54.8588 75.0709C55.5893 75.0454 56.2989 75.0026 57.0097 74.9597C57.1657 74.9503 57.3216 74.9409 57.4779 74.9316C57.7031 74.9178 57.9312 74.9066 58.159 74.8953C58.4746 74.8797 58.7898 74.8642 59.0963 74.8418C60.251 74.7575 61.3727 74.6512 62.4815 74.5358C62.585 74.5249 62.6907 74.5158 62.7962 74.5067C62.9038 74.4974 63.0111 74.4882 63.1157 74.4771C64.3858 74.3378 65.623 74.1802 66.829 74.0024C66.8602 73.9969 66.8913 73.9932 66.9225 73.9896C73.1266 73.0732 78.451 71.6747 82.6134 70.0123C82.6354 70.0032 82.6573 69.9958 82.6793 69.9867C83.4473 69.6787 84.1658 69.3598 84.8531 69.0354C84.9337 68.9988 85.0162 68.9621 85.095 68.9236C85.7108 68.6267 86.2809 68.3206 86.827 68.0127C86.867 67.9902 86.9072 67.9679 86.9474 67.9456C87.0384 67.8952 87.1292 67.8449 87.2156 67.7928C87.6903 67.5142 88.1228 67.2301 88.5371 66.9442C88.5716 66.9204 88.6061 66.8967 88.6407 66.873C88.7658 66.7872 88.8903 66.7019 89.0081 66.6143C89.3582 66.3558 89.6716 66.0956 89.9722 65.8335L89.9792 65.8273C90.1417 65.6846 90.3023 65.5437 90.4487 65.4009C90.6943 65.1627 90.9106 64.9226 91.114 64.6825C91.257 64.5138 91.3945 64.3452 91.5154 64.1748C91.6785 63.9493 91.816 63.7239 91.9388 63.4984C92.0378 63.317 92.1276 63.1355 92.2009 62.9541ZM92.5583 37.9708V24.3638C92.4037 24.5042 92.2338 24.6428 92.0637 24.7815C91.9918 24.8401 91.9198 24.8988 91.849 24.9577C91.7916 25.0048 91.7363 25.0519 91.681 25.099C91.6072 25.1619 91.5335 25.2247 91.4549 25.2876C90.9051 25.7219 90.3112 26.1472 89.6679 26.5632C89.5901 26.6133 89.5067 26.6628 89.4231 26.7124C89.363 26.7481 89.3028 26.7838 89.2445 26.8198C88.7057 27.1571 88.1357 27.4851 87.5363 27.8059C87.3164 27.925 87.0928 28.0423 86.8637 28.1596C86.1947 28.5005 85.4927 28.8304 84.7541 29.153C84.7034 29.1753 84.6547 29.1979 84.6061 29.2204C84.5388 29.2516 84.4717 29.2826 84.4004 29.3125C83.5426 29.6772 82.628 30.0254 81.6786 30.3627C81.5109 30.4225 81.3379 30.4801 81.1645 30.5378C81.0669 30.5703 80.9692 30.6028 80.8722 30.6358C80.117 30.8905 79.3363 31.1343 78.528 31.3707C78.4356 31.3975 78.3438 31.4244 78.252 31.4513C78.054 31.5093 77.8559 31.5673 77.6519 31.6237C76.5797 31.9188 75.4726 32.2028 74.3106 32.4631C74.2285 32.481 74.143 32.498 74.0573 32.515C73.9766 32.531 73.8958 32.547 73.8176 32.5639C72.793 32.7875 71.73 32.9946 70.6376 33.1889C70.2674 33.2549 69.8917 33.3172 69.5141 33.3795C68.4731 33.55 67.4045 33.7058 66.3066 33.8487C66.1851 33.8645 66.0658 33.8813 65.9467 33.8981C65.7892 33.9203 65.6318 33.9425 65.4691 33.9624C64.1054 34.1273 62.6941 34.2703 61.2444 34.3894C61.0437 34.4058 60.8396 34.4193 60.6353 34.4328C60.4738 34.4435 60.3122 34.4543 60.152 34.4664C58.9918 34.5507 57.806 34.6203 56.5926 34.6753L56.5405 34.6777C56.1146 34.6971 55.6916 34.7163 55.2602 34.7321C53.6803 34.7853 52.071 34.8238 50.4032 34.8238C48.7353 34.8238 47.1261 34.7853 45.5462 34.7321C45.1041 34.716 44.6726 34.6963 44.2396 34.6765L44.2137 34.6753C43.0004 34.6203 41.8145 34.5507 40.6543 34.4664C40.531 34.4577 40.4066 34.4494 40.2821 34.4411C40.0403 34.4249 39.7979 34.4088 39.562 34.3894C38.1122 34.2684 36.7009 34.1273 35.3373 33.9624C35.1746 33.9425 35.0171 33.9203 34.8597 33.8981C34.7405 33.8813 34.6213 33.8645 34.4997 33.8487C33.4018 33.7058 32.3315 33.55 31.2922 33.3795C30.9147 33.3172 30.5389 33.2549 30.1687 33.1889C29.0763 32.9946 28.0133 32.7875 26.9887 32.5639C26.9182 32.5487 26.8456 32.5345 26.7728 32.5203C26.6792 32.502 26.5854 32.4837 26.4957 32.4631C25.3337 32.2028 24.2267 31.9206 23.1545 31.6237C22.952 31.569 22.7555 31.511 22.5591 31.453C22.4657 31.4255 22.3723 31.3979 22.2784 31.3707C21.4701 31.1343 20.6893 30.8905 19.9342 30.6358C19.8372 30.6028 19.7395 30.5703 19.6419 30.5378C19.4685 30.4801 19.2955 30.4225 19.1277 30.3627C18.1783 30.0254 17.2656 29.6772 16.406 29.3125C16.3346 29.2826 16.2676 29.2516 16.2002 29.2204C16.1517 29.1979 16.1029 29.1753 16.0522 29.153C15.3136 28.8323 14.6116 28.5005 13.9427 28.1596C13.7136 28.0423 13.4918 27.925 13.27 27.8059C12.6707 27.4833 12.1007 27.1552 11.5618 26.8198C11.5035 26.7838 11.4433 26.7481 11.3832 26.7124C11.2997 26.6628 11.2163 26.6133 11.1384 26.5632C10.4951 26.1472 9.90126 25.7201 9.35141 25.2876C9.26186 25.2169 9.17913 25.1462 9.0964 25.0755C9.05044 25.0362 9.00448 24.9969 8.95735 24.9577C8.88653 24.8988 8.81458 24.8401 8.74265 24.7815C8.57257 24.6428 8.40262 24.5042 8.24805 24.3638V37.9708C8.32503 38.2329 8.35069 38.5096 8.30487 38.7864C8.27187 38.9916 8.24805 39.1988 8.24805 39.4059C8.24805 39.6789 8.31237 39.9535 8.3757 40.2238C8.38082 40.2457 8.38593 40.2675 8.39101 40.2893C8.44233 40.5111 8.51381 40.7328 8.60362 40.9546C8.67876 41.1361 8.76674 41.3175 8.86571 41.499C8.99034 41.7244 9.12781 41.9498 9.2891 42.1753C9.41006 42.3457 9.54753 42.5144 9.69049 42.683C9.89393 42.9249 10.1102 43.1632 10.3558 43.4014C10.4922 43.5361 10.6424 43.6677 10.7924 43.799C10.8057 43.8107 10.819 43.8223 10.8323 43.834C11.1329 44.0961 11.4463 44.3563 11.7964 44.6148C11.9001 44.6919 12.0099 44.7673 12.1198 44.8428C12.1692 44.8767 12.2186 44.9106 12.2674 44.9447C12.6817 45.2306 13.1142 45.5147 13.5889 45.7933C13.6666 45.8401 13.7486 45.8856 13.8304 45.9309C13.8798 45.9583 13.9292 45.9856 13.9775 46.0132C14.5237 46.323 15.0937 46.6272 15.7095 46.9241C15.7383 46.9375 15.7678 46.9509 15.7976 46.9644C15.8492 46.9878 15.9014 47.0115 15.9514 47.0359C16.6369 47.3604 17.3572 47.6793 18.1252 47.9872C18.1472 47.9963 18.1692 48.0055 18.1912 48.0128C22.3535 49.6752 27.6779 51.0737 33.882 51.9901C33.9132 51.9956 33.9443 51.9993 33.9755 52.0029C35.1815 52.1789 36.4187 52.3383 37.6888 52.4776C37.7934 52.4887 37.9007 52.498 38.0083 52.5072C38.1138 52.5163 38.2195 52.5254 38.323 52.5363C39.4318 52.6517 40.5535 52.758 41.7082 52.8424C42.0376 52.8664 42.3769 52.8833 42.7159 52.9001C42.9203 52.9103 43.1246 52.9204 43.3266 52.9322C43.5426 52.9445 43.758 52.9573 43.9735 52.9702C44.6247 53.0091 45.2764 53.048 45.9457 53.0715C47.4028 53.1228 48.8874 53.1521 50.4032 53.1521C51.9189 53.1521 53.4035 53.1228 54.8588 53.077C55.5892 53.0514 56.2988 53.0086 57.0096 52.9657C57.1655 52.9563 57.3216 52.9469 57.4779 52.9377C57.7031 52.9238 57.9312 52.9126 58.1591 52.9013C58.4746 52.8858 58.7898 52.8702 59.0963 52.8479C60.251 52.7635 61.3727 52.6572 62.4815 52.5418C62.585 52.5309 62.6907 52.5218 62.7962 52.5127C62.9038 52.5035 63.0111 52.4942 63.1157 52.4831C64.3858 52.3438 65.623 52.1862 66.829 52.0084C66.8602 52.0029 66.8913 51.9993 66.9225 51.9956C73.1266 51.0792 78.451 49.6807 82.6134 48.0183C82.6244 48.0138 82.6354 48.0096 82.6463 48.0055C82.6573 48.0014 82.6683 47.9973 82.6793 47.9927C83.4473 47.6848 84.1658 47.3659 84.8531 47.0414C84.9337 47.0048 85.0162 46.9681 85.095 46.9296C85.7108 46.6327 86.2809 46.3266 86.827 46.0187C86.8669 45.9963 86.9072 45.9739 86.9474 45.9517C87.0383 45.9012 87.1292 45.8509 87.2156 45.7988C87.6903 45.5202 88.1228 45.2361 88.5371 44.9502C88.5715 44.9264 88.606 44.9028 88.6404 44.8792C88.7656 44.7934 88.8903 44.7079 89.0081 44.6203C89.3582 44.3618 89.6716 44.1016 89.9722 43.8395L89.9792 43.8334C90.1417 43.6907 90.3023 43.5497 90.4487 43.4069C90.6943 43.1687 90.9106 42.9286 91.114 42.6885C91.257 42.5199 91.3945 42.3512 91.5154 42.1808C91.6785 41.9553 91.816 41.7299 91.9388 41.5045C92.0378 41.323 92.1276 41.1416 92.2009 40.9601C92.2907 40.7365 92.3622 40.5166 92.4135 40.2948C92.4183 40.2745 92.4231 40.2541 92.4279 40.2338C92.4931 39.9572 92.5583 39.6807 92.5583 39.4059C92.5583 39.1988 92.5363 38.9916 92.5015 38.7864C92.4557 38.5096 92.4813 38.2329 92.5583 37.9708ZM92.5583 17.4119C92.5583 10.909 75.2472 3.66565 50.4032 3.66565C25.5591 3.66565 8.24805 10.909 8.24805 17.4119C8.24805 23.9148 25.5591 31.1581 50.4032 31.1581C75.2472 31.1581 92.5583 23.9148 92.5583 17.4119ZM92.4996 84.0133C92.5143 83.929 92.5326 83.8465 92.5583 83.7659L92.5565 68.3536C92.0873 68.777 91.5887 69.1931 91.0352 69.5963C84.1016 74.7868 70.3297 78.8117 50.4032 78.8117C30.3923 78.8117 16.5856 74.7539 9.68132 69.5321C9.22311 69.1949 8.81622 68.8448 8.41667 68.4929C8.39181 68.4706 8.36454 68.4487 8.3373 68.4269C8.30631 68.402 8.27536 68.3771 8.24805 68.3518V83.7732C8.27187 83.8502 8.29204 83.9309 8.3067 84.0133C9.34591 90.3531 26.5104 97.1401 50.4032 97.1401C74.296 97.1401 91.4604 90.3531 92.4996 84.0133Z" fill="#FF6112"/>
</svg>
