<svg width="218" height="49" viewBox="0 0 218 49" fill="none" xmlns="http://www.w3.org/2000/svg">
<rect width="218" height="49" rx="4" fill="white"/>
<path d="M65.86 34.28C64.8147 34.28 63.9093 34.2333 63.144 34.14C62.3973 34.0653 61.6693 33.9253 60.96 33.72V14.68C61.6693 14.4747 62.3973 14.3347 63.144 14.26C63.9093 14.1667 64.8147 14.12 65.86 14.12C67.4093 14.12 68.7067 14.4373 69.752 15.072C70.816 15.7067 71.6187 16.7613 72.16 18.236C72.72 19.692 73 21.68 73 24.2C73 26.72 72.72 28.7173 72.16 30.192C71.6187 31.6667 70.816 32.7213 69.752 33.356C68.7067 33.972 67.4093 34.28 65.86 34.28ZM64.32 32.18H65.86C66.6067 32.18 67.26 31.956 67.82 31.508C68.3987 31.0413 68.8467 30.2293 69.164 29.072C69.4813 27.9147 69.64 26.2907 69.64 24.2C69.64 22.0907 69.4813 20.4667 69.164 19.328C68.8467 18.1707 68.3987 17.368 67.82 16.92C67.26 16.4533 66.6067 16.22 65.86 16.22H64.32V32.18ZM79.7178 34.28C78.9338 34.28 78.2058 34.1587 77.5338 33.916C76.8805 33.6733 76.3578 33.2347 75.9658 32.6C75.5738 31.9467 75.3778 31.0133 75.3778 29.8C75.3778 28.5867 75.5738 27.6627 75.9658 27.028C76.3765 26.3747 76.9271 25.9267 77.6178 25.684C78.3271 25.4413 79.1205 25.32 79.9978 25.32C80.4271 25.32 80.8378 25.348 81.2298 25.404C81.6405 25.46 82.0231 25.5253 82.3778 25.6V24.48C82.3778 23.36 82.1165 22.6133 81.5938 22.24C81.0711 21.8667 80.3525 21.68 79.4378 21.68H76.6378V20.28C77.0671 20.1307 77.5898 20 78.2058 19.888C78.8405 19.776 79.4378 19.72 79.9978 19.72C81.2671 19.72 82.3218 19.8507 83.1618 20.112C84.0205 20.3547 84.6645 20.8213 85.0938 21.512C85.5231 22.184 85.7378 23.1733 85.7378 24.48V34H83.3578L82.9378 33.16H82.7978C82.4991 33.44 82.0978 33.7013 81.5938 33.944C81.1085 34.168 80.4831 34.28 79.7178 34.28ZM80.8378 32.32C81.1925 32.32 81.5005 32.264 81.7618 32.152C82.0418 32.0213 82.2471 31.8907 82.3778 31.76V27.28H80.8378C80.5205 27.28 80.1938 27.3547 79.8578 27.504C79.5405 27.6533 79.2698 27.9147 79.0458 28.288C78.8405 28.6427 78.7378 29.1467 78.7378 29.8C78.7378 30.4533 78.8405 30.9667 79.0458 31.34C79.2698 31.6947 79.5405 31.9467 79.8578 32.096C80.1938 32.2453 80.5205 32.32 80.8378 32.32ZM93.9869 34.28C93.2029 34.28 92.4749 34.1587 91.8029 33.916C91.1495 33.6547 90.6269 33.188 90.2349 32.516C89.8429 31.8253 89.6469 30.8267 89.6469 29.52V22.38H88.1069V20.28H89.6469V16.92H93.0069V20.28H96.7869V21.82C96.3762 21.9507 95.8442 22.0813 95.1909 22.212C94.5375 22.324 93.8562 22.38 93.1469 22.38H93.0069V29.52C93.0069 30.2667 93.1002 30.8453 93.2869 31.256C93.4735 31.648 93.7069 31.928 93.9869 32.096C94.2669 32.2453 94.5469 32.32 94.8269 32.32H97.3469V33.72C97.1229 33.8133 96.8149 33.9067 96.4229 34C96.0309 34.0747 95.6202 34.14 95.1909 34.196C94.7615 34.252 94.3602 34.28 93.9869 34.28ZM102.96 34.28C102.176 34.28 101.448 34.1587 100.776 33.916C100.123 33.6733 99.6 33.2347 99.208 32.6C98.816 31.9467 98.62 31.0133 98.62 29.8C98.62 28.5867 98.816 27.6627 99.208 27.028C99.6187 26.3747 100.169 25.9267 100.86 25.684C101.569 25.4413 102.363 25.32 103.24 25.32C103.669 25.32 104.08 25.348 104.472 25.404C104.883 25.46 105.265 25.5253 105.62 25.6V24.48C105.62 23.36 105.359 22.6133 104.836 22.24C104.313 21.8667 103.595 21.68 102.68 21.68H99.88V20.28C100.309 20.1307 100.832 20 101.448 19.888C102.083 19.776 102.68 19.72 103.24 19.72C104.509 19.72 105.564 19.8507 106.404 20.112C107.263 20.3547 107.907 20.8213 108.336 21.512C108.765 22.184 108.98 23.1733 108.98 24.48V34H106.6L106.18 33.16H106.04C105.741 33.44 105.34 33.7013 104.836 33.944C104.351 34.168 103.725 34.28 102.96 34.28ZM104.08 32.32C104.435 32.32 104.743 32.264 105.004 32.152C105.284 32.0213 105.489 31.8907 105.62 31.76V27.28H104.08C103.763 27.28 103.436 27.3547 103.1 27.504C102.783 27.6533 102.512 27.9147 102.288 28.288C102.083 28.6427 101.98 29.1467 101.98 29.8C101.98 30.4533 102.083 30.9667 102.288 31.34C102.512 31.6947 102.783 31.9467 103.1 32.096C103.436 32.2453 103.763 32.32 104.08 32.32ZM117.369 34.28C116.398 34.28 115.558 34.2053 114.849 34.056C114.158 33.9253 113.458 33.72 112.749 33.44V14.4H116.109V20.42C116.408 20.2147 116.753 20.0467 117.145 19.916C117.556 19.7853 118.004 19.72 118.489 19.72C119.516 19.72 120.402 19.9627 121.149 20.448C121.914 20.9147 122.502 21.68 122.913 22.744C123.324 23.808 123.529 25.2267 123.529 27C123.529 28.7733 123.305 30.192 122.857 31.256C122.428 32.32 121.756 33.0947 120.841 33.58C119.926 34.0467 118.769 34.28 117.369 34.28ZM116.109 32.32H117.369C117.929 32.32 118.414 32.1707 118.825 31.872C119.254 31.5547 119.581 31.0133 119.805 30.248C120.048 29.4827 120.169 28.4 120.169 27C120.169 25.6 120.057 24.5173 119.833 23.752C119.609 22.968 119.301 22.4267 118.909 22.128C118.536 21.8293 118.116 21.68 117.649 21.68C117.294 21.68 116.986 21.736 116.725 21.848C116.464 21.96 116.258 22.0907 116.109 22.24V32.32ZM130.112 34.28C129.328 34.28 128.6 34.1587 127.928 33.916C127.275 33.6733 126.752 33.2347 126.36 32.6C125.968 31.9467 125.772 31.0133 125.772 29.8C125.772 28.5867 125.968 27.6627 126.36 27.028C126.771 26.3747 127.322 25.9267 128.012 25.684C128.722 25.4413 129.515 25.32 130.392 25.32C130.822 25.32 131.232 25.348 131.624 25.404C132.035 25.46 132.418 25.5253 132.772 25.6V24.48C132.772 23.36 132.511 22.6133 131.988 22.24C131.466 21.8667 130.747 21.68 129.832 21.68H127.032V20.28C127.462 20.1307 127.984 20 128.6 19.888C129.235 19.776 129.832 19.72 130.392 19.72C131.662 19.72 132.716 19.8507 133.556 20.112C134.415 20.3547 135.059 20.8213 135.488 21.512C135.918 22.184 136.132 23.1733 136.132 24.48V34H133.752L133.332 33.16H133.192C132.894 33.44 132.492 33.7013 131.988 33.944C131.503 34.168 130.878 34.28 130.112 34.28ZM131.232 32.32C131.587 32.32 131.895 32.264 132.156 32.152C132.436 32.0213 132.642 31.8907 132.772 31.76V27.28H131.232C130.915 27.28 130.588 27.3547 130.252 27.504C129.935 27.6533 129.664 27.9147 129.44 28.288C129.235 28.6427 129.132 29.1467 129.132 29.8C129.132 30.4533 129.235 30.9667 129.44 31.34C129.664 31.6947 129.935 31.9467 130.252 32.096C130.588 32.2453 130.915 32.32 131.232 32.32ZM142.701 34.28C142.011 34.28 141.339 34.2147 140.685 34.084C140.032 33.972 139.491 33.8507 139.061 33.72V32.32H142.141C143.187 32.32 143.98 32.1707 144.521 31.872C145.081 31.5547 145.361 31.0507 145.361 30.36C145.361 29.8747 145.203 29.4827 144.885 29.184C144.568 28.8667 144.157 28.596 143.653 28.372C143.168 28.148 142.636 27.924 142.057 27.7C141.497 27.4573 140.965 27.1773 140.461 26.86C139.976 26.524 139.575 26.104 139.257 25.6C138.94 25.0773 138.781 24.424 138.781 23.64C138.781 22.0907 139.248 21.0547 140.181 20.532C141.133 19.9907 142.487 19.72 144.241 19.72C144.951 19.72 145.632 19.776 146.285 19.888C146.939 20 147.471 20.1307 147.881 20.28V21.68H144.801C144.036 21.68 143.401 21.82 142.897 22.1C142.393 22.38 142.141 22.8 142.141 23.36C142.141 23.8453 142.3 24.2467 142.617 24.564C142.935 24.8627 143.336 25.124 143.821 25.348C144.325 25.572 144.857 25.8053 145.417 26.048C145.996 26.272 146.528 26.552 147.013 26.888C147.517 27.2053 147.928 27.616 148.245 28.12C148.563 28.624 148.721 29.2773 148.721 30.08C148.721 31.2 148.497 32.068 148.049 32.684C147.62 33.2813 146.957 33.7013 146.061 33.944C145.184 34.168 144.064 34.28 142.701 34.28ZM156.983 34.28C155.545 34.28 154.36 34.0467 153.427 33.58C152.493 33.0947 151.803 32.32 151.355 31.256C150.907 30.192 150.683 28.7733 150.683 27C150.683 25.2267 150.888 23.808 151.299 22.744C151.728 21.68 152.335 20.9147 153.119 20.448C153.921 19.9627 154.883 19.72 156.003 19.72C157.123 19.72 158.075 19.9627 158.859 20.448C159.661 20.9147 160.268 21.68 160.679 22.744C161.108 23.808 161.323 25.2267 161.323 27V27.98H154.043C154.043 29.5853 154.323 30.7147 154.883 31.368C155.461 32.0027 156.348 32.32 157.543 32.32H160.623V33.72C160.212 33.8507 159.68 33.972 159.027 34.084C158.373 34.2147 157.692 34.28 156.983 34.28ZM154.043 26.02H157.963C157.963 24.8067 157.879 23.8827 157.711 23.248C157.543 22.5947 157.309 22.1467 157.011 21.904C156.712 21.6613 156.376 21.54 156.003 21.54C155.629 21.54 155.293 21.6613 154.995 21.904C154.696 22.1467 154.463 22.5947 154.295 23.248C154.127 23.8827 154.043 24.8067 154.043 26.02ZM171.401 34V14.4H174.761V31.76H181.621V34H171.401ZM187.37 34.28C186.586 34.28 185.858 34.1587 185.186 33.916C184.533 33.6733 184.01 33.2347 183.618 32.6C183.226 31.9467 183.03 31.0133 183.03 29.8C183.03 28.5867 183.226 27.6627 183.618 27.028C184.029 26.3747 184.579 25.9267 185.27 25.684C185.979 25.4413 186.773 25.32 187.65 25.32C188.079 25.32 188.49 25.348 188.882 25.404C189.293 25.46 189.675 25.5253 190.03 25.6V24.48C190.03 23.36 189.769 22.6133 189.246 22.24C188.723 21.8667 188.005 21.68 187.09 21.68H184.29V20.28C184.719 20.1307 185.242 20 185.858 19.888C186.493 19.776 187.09 19.72 187.65 19.72C188.919 19.72 189.974 19.8507 190.814 20.112C191.673 20.3547 192.317 20.8213 192.746 21.512C193.175 22.184 193.39 23.1733 193.39 24.48V34H191.01L190.59 33.16H190.45C190.151 33.44 189.75 33.7013 189.246 33.944C188.761 34.168 188.135 34.28 187.37 34.28ZM188.49 32.32C188.845 32.32 189.153 32.264 189.414 32.152C189.694 32.0213 189.899 31.8907 190.03 31.76V27.28H188.49C188.173 27.28 187.846 27.3547 187.51 27.504C187.193 27.6533 186.922 27.9147 186.698 28.288C186.493 28.6427 186.39 29.1467 186.39 29.8C186.39 30.4533 186.493 30.9667 186.698 31.34C186.922 31.6947 187.193 31.9467 187.51 32.096C187.846 32.2453 188.173 32.32 188.49 32.32ZM201.779 34.28C200.809 34.28 199.969 34.2053 199.259 34.056C198.569 33.9253 197.869 33.72 197.159 33.44V14.4H200.519V20.42C200.818 20.2147 201.163 20.0467 201.555 19.916C201.966 19.7853 202.414 19.72 202.899 19.72C203.926 19.72 204.813 19.9627 205.559 20.448C206.325 20.9147 206.913 21.68 207.323 22.744C207.734 23.808 207.939 25.2267 207.939 27C207.939 28.7733 207.715 30.192 207.267 31.256C206.838 32.32 206.166 33.0947 205.251 33.58C204.337 34.0467 203.179 34.28 201.779 34.28ZM200.519 32.32H201.779C202.339 32.32 202.825 32.1707 203.235 31.872C203.665 31.5547 203.991 31.0133 204.215 30.248C204.458 29.4827 204.579 28.4 204.579 27C204.579 25.6 204.467 24.5173 204.243 23.752C204.019 22.968 203.711 22.4267 203.319 22.128C202.946 21.8293 202.526 21.68 202.059 21.68C201.705 21.68 201.397 21.736 201.135 21.848C200.874 21.96 200.669 22.0907 200.519 22.24V32.32Z" fill="black"/>
<path d="M33.4728 15.7091C28.0182 9.81819 13.1819 13.0909 12.5273 15.7091V32.2909C16.0182 37.0909 31.5092 36 33.4728 32.2909V15.7091Z" fill="#FF6112"/>
<path d="M33.8454 15.7135C33.34 13.8415 29.579 12 23 12C16.4209 12 12.6595 13.8415 12.1546 15.7135C12.1179 15.7776 12.0909 15.8479 12.0909 15.9273V16.1455V21.1636V21.3818V21.6V26.4V26.6182V26.8364V32.0727C12.0909 32.1434 12.1096 32.2102 12.1419 32.2695C12.6573 34.4055 17.2679 36 23 36C28.719 36 33.3222 34.4121 33.8545 32.2839C33.8894 32.2215 33.9091 32.1495 33.9091 32.0727V26.8364V26.6182V26.4V21.6V21.3818V21.1636V16.1455V15.9273C33.9091 15.8479 33.882 15.7776 33.8454 15.7135ZM33.0019 26.8298C32.9896 26.8826 32.9726 26.935 32.9512 26.9882C32.9338 27.0314 32.9124 27.0746 32.8888 27.1178C32.8596 27.1715 32.8269 27.2252 32.788 27.2788C32.7592 27.3194 32.7265 27.3596 32.6925 27.3997C32.644 27.4569 32.5925 27.514 32.5341 27.5708C32.4987 27.6052 32.4599 27.6393 32.4206 27.6737C32.3491 27.7361 32.2744 27.7981 32.1911 27.8596C32.1553 27.8863 32.1169 27.912 32.079 27.9382C31.9803 28.0063 31.8774 28.0739 31.7643 28.1402C31.7347 28.1581 31.7028 28.1751 31.6718 28.1926C31.5418 28.2659 31.4061 28.3388 31.2595 28.4095C31.2407 28.4186 31.2211 28.4273 31.2019 28.4361C31.0382 28.5133 30.8672 28.5892 30.6843 28.6625C30.6791 28.6647 30.6739 28.6665 30.6686 28.6687C29.6776 29.0644 28.41 29.3974 26.9329 29.6156C26.9255 29.6164 26.9181 29.6173 26.9107 29.6186C26.6235 29.6609 26.329 29.6985 26.0266 29.7316C25.9773 29.7369 25.9254 29.7404 25.8756 29.7456C25.6116 29.7731 25.3446 29.7984 25.0696 29.8185C24.944 29.8276 24.8122 29.832 24.6843 29.8399C24.4775 29.8521 24.2728 29.8656 24.0608 29.873C23.7143 29.8839 23.3608 29.8909 23 29.8909C22.6391 29.8909 22.2856 29.8839 21.9387 29.8717C21.7267 29.8643 21.522 29.8503 21.3152 29.8385C21.1873 29.8311 21.0555 29.8263 20.9299 29.8172C20.655 29.7971 20.3879 29.7718 20.1239 29.7443C20.0742 29.7391 20.0222 29.7356 19.9729 29.7303C19.6705 29.6972 19.376 29.6592 19.0888 29.6173C19.0814 29.6164 19.074 29.6156 19.0666 29.6143C17.5895 29.3961 16.3219 29.0631 15.3309 28.6673C15.3256 28.6656 15.3204 28.6634 15.3152 28.6612C15.1323 28.5879 14.9608 28.512 14.7976 28.4348C14.7789 28.4256 14.7588 28.4169 14.74 28.4081C14.5934 28.3375 14.4577 28.265 14.3277 28.1913C14.2971 28.1738 14.2648 28.1568 14.2352 28.1389C14.1222 28.0726 14.0192 28.0049 13.9206 27.9369C13.883 27.9107 13.8442 27.8849 13.8084 27.8583C13.7251 27.7968 13.6504 27.7348 13.5789 27.6724C13.54 27.6384 13.5008 27.6044 13.4654 27.5695C13.407 27.5127 13.3555 27.456 13.307 27.3984C13.273 27.3583 13.2403 27.3181 13.2115 27.2775C13.1731 27.2239 13.1403 27.1702 13.1107 27.1165C13.0871 27.0733 13.0662 27.0301 13.0483 26.9869C13.0269 26.9341 13.0099 26.8813 12.9976 26.8285C12.9815 26.7591 12.9636 26.6884 12.9636 26.6182C12.9636 26.5689 12.9693 26.5196 12.9771 26.4707C12.988 26.4048 12.9819 26.3389 12.9636 26.2765V23.0369C12.9758 23.0483 12.9911 23.0592 13.0038 23.0705C13.0989 23.1543 13.1958 23.2377 13.3048 23.318C14.9486 24.5612 18.2358 25.5273 23 25.5273C27.7441 25.5273 31.023 24.569 32.6737 23.3332C32.8055 23.2372 32.9242 23.1382 33.0359 23.0374L33.0363 26.2765C33.018 26.3389 33.0119 26.4048 33.0228 26.4707C33.0311 26.5196 33.0363 26.5689 33.0363 26.6182C33.0363 26.6884 33.0184 26.7591 33.0019 26.8298ZM33.0363 17.8006V21.0401C33.018 21.1025 33.0119 21.1684 33.0228 21.2343C33.0311 21.2832 33.0363 21.3325 33.0363 21.3818C33.0363 21.4521 33.0184 21.5228 33.0019 21.5935C32.9896 21.6463 32.9726 21.6986 32.9512 21.7519C32.9338 21.7951 32.9124 21.8383 32.8888 21.8815C32.8596 21.9351 32.8269 21.9888 32.788 22.0425C32.7592 22.0831 32.7265 22.1232 32.6925 22.1633C32.644 22.2205 32.5925 22.2777 32.5341 22.3344C32.4987 22.3689 32.4599 22.4029 32.4206 22.4374C32.3491 22.4998 32.2744 22.5617 32.1911 22.6233C32.1553 22.6499 32.1169 22.6756 32.079 22.7018C31.9803 22.7699 31.8774 22.8375 31.7643 22.9039C31.7347 22.9217 31.7028 22.9388 31.6718 22.9562C31.5418 23.0295 31.4061 23.1024 31.2595 23.1731C31.2407 23.1823 31.2211 23.191 31.2019 23.1997C31.0382 23.2769 30.8672 23.3529 30.6843 23.4262C30.6791 23.4284 30.6739 23.4301 30.6686 23.4323C29.6776 23.8281 28.41 24.161 26.9329 24.3792C26.9255 24.3801 26.9181 24.3809 26.9107 24.3823C26.6235 24.4246 26.329 24.4621 26.0266 24.4953C25.9773 24.5005 25.9254 24.504 25.8756 24.5092C25.6116 24.5367 25.3446 24.562 25.0696 24.5821C24.944 24.5913 24.8122 24.5956 24.6843 24.6035C24.4775 24.6157 24.2728 24.6292 24.0608 24.6367C23.7143 24.6476 23.3608 24.6545 23 24.6545C22.6391 24.6545 22.2856 24.6476 21.9387 24.6353C21.7267 24.6279 21.522 24.614 21.3152 24.6022C21.1873 24.5948 21.0555 24.59 20.9299 24.5808C20.655 24.5607 20.3879 24.5354 20.1239 24.5079C20.0742 24.5027 20.0222 24.4992 19.9729 24.494C19.6705 24.4608 19.376 24.4228 19.0888 24.3809C19.0814 24.3801 19.074 24.3792 19.0666 24.3779C17.5895 24.1597 16.3219 23.8268 15.3309 23.431C15.3256 23.4292 15.3204 23.4271 15.3152 23.4249C15.1323 23.3516 14.9608 23.2756 14.7976 23.1984C14.7789 23.1892 14.7588 23.1805 14.74 23.1718C14.5934 23.1011 14.4577 23.0287 14.3277 22.9549C14.2971 22.9375 14.2648 22.9204 14.2352 22.9025C14.1222 22.8362 14.0192 22.7686 13.9206 22.7005C13.883 22.6743 13.8442 22.6486 13.8084 22.622C13.7251 22.5604 13.6504 22.4985 13.5789 22.4361C13.54 22.402 13.5008 22.368 13.4654 22.3331C13.407 22.2764 13.3555 22.2196 13.307 22.162C13.273 22.1219 13.2403 22.0817 13.2115 22.0412C13.1731 21.9875 13.1403 21.9338 13.1107 21.8801C13.0871 21.8369 13.0662 21.7937 13.0483 21.7505C13.0269 21.6977 13.0099 21.6449 12.9976 21.5921C12.9815 21.5228 12.9636 21.4521 12.9636 21.3818C12.9636 21.3325 12.9693 21.2832 12.9771 21.2343C12.988 21.1684 12.9819 21.1025 12.9636 21.0401V17.8006C13.016 17.8481 13.0758 17.8948 13.1325 17.942C13.1639 17.9681 13.1931 17.9943 13.2263 18.0205C13.3572 18.1235 13.4986 18.2252 13.6518 18.3242C13.6836 18.3447 13.7194 18.3648 13.7526 18.3853C13.8808 18.4652 14.0166 18.5433 14.1592 18.6201C14.212 18.6484 14.2648 18.6764 14.3194 18.7043C14.4787 18.7855 14.6458 18.8644 14.8216 18.9408C14.8504 18.9535 14.8766 18.9665 14.9059 18.9788C15.1105 19.0656 15.3278 19.1485 15.5539 19.2288C15.6163 19.2511 15.6817 19.272 15.7459 19.2938C15.9256 19.3545 16.1115 19.4125 16.304 19.4688C16.3734 19.4889 16.4414 19.5098 16.5126 19.529C16.7678 19.5997 17.0314 19.6669 17.308 19.7289C17.346 19.7376 17.387 19.7446 17.4254 19.7529C17.6694 19.8061 17.9224 19.8554 18.1825 19.9017C18.2707 19.9174 18.3601 19.9322 18.45 19.9471C18.6974 19.9876 18.9523 20.0247 19.2136 20.0588C19.2808 20.0675 19.345 20.0775 19.4131 20.0858C19.7377 20.1251 20.0737 20.1587 20.4189 20.1875C20.504 20.1945 20.5926 20.1997 20.679 20.2058C20.9552 20.2259 21.2375 20.2425 21.5264 20.2556C21.6315 20.2604 21.7363 20.2652 21.8436 20.2691C22.2198 20.2817 22.6029 20.2909 23 20.2909C23.3971 20.2909 23.7802 20.2817 24.1563 20.2691C24.2632 20.2652 24.368 20.2604 24.4736 20.2556C24.7624 20.2425 25.0448 20.2259 25.321 20.2058C25.4074 20.1993 25.4955 20.1945 25.5811 20.1875C25.9262 20.1591 26.2622 20.1251 26.5869 20.0858C26.655 20.0775 26.7191 20.0675 26.7863 20.0588C27.0477 20.0247 27.3021 19.9876 27.5499 19.9471C27.6398 19.9322 27.7293 19.9174 27.8174 19.9017C28.0775 19.8554 28.3306 19.8061 28.5745 19.7529C28.6129 19.7446 28.6539 19.7372 28.6919 19.7289C28.9686 19.6669 29.2321 19.5993 29.4874 19.529C29.5585 19.5094 29.6266 19.4889 29.696 19.4688C29.8884 19.4125 30.0743 19.3545 30.2541 19.2938C30.3182 19.272 30.3837 19.2511 30.4461 19.2288C30.6721 19.1485 30.8899 19.0656 31.0941 18.9788C31.1233 18.9665 31.1495 18.9535 31.1783 18.9408C31.3542 18.864 31.5213 18.7855 31.6806 18.7043C31.7351 18.6764 31.7883 18.6484 31.8407 18.6201C31.9834 18.5437 32.1191 18.4656 32.2474 18.3853C32.2806 18.3648 32.3163 18.3447 32.3482 18.3242C32.5014 18.2252 32.6427 18.1239 32.7736 18.0205C32.8064 17.9943 32.8356 17.9681 32.8675 17.942C32.9242 17.8948 32.984 17.8481 33.0363 17.8006ZM23 12.8727C28.9149 12.8727 33.0363 14.5972 33.0363 16.1455C33.0363 17.6937 28.9149 19.4182 23 19.4182C17.0851 19.4182 12.9636 17.6937 12.9636 16.1455C12.9636 14.5972 17.0851 12.8727 23 12.8727ZM33.0363 31.9431C33.0302 31.9623 33.0259 31.982 33.0224 32.002C32.775 33.5114 28.6884 35.1273 23 35.1273C17.3115 35.1273 13.225 33.5114 12.9776 32.002C12.9741 31.9824 12.9693 31.9632 12.9636 31.9449V28.2733C12.9758 28.2847 12.9911 28.2956 13.0038 28.3069C13.0989 28.3907 13.1958 28.474 13.3048 28.5543C14.9486 29.7975 18.2358 30.7636 23 30.7636C27.7441 30.7636 31.023 29.8054 32.6737 28.5696C32.8055 28.4736 32.9242 28.3745 33.0359 28.2737L33.0363 31.9431Z" fill="white"/>
<path fill-rule="evenodd" clip-rule="evenodd" d="M35.1144 34.1691C36.8514 33.6959 38.2552 32.7912 38.6648 31.5868V16.3082C37.7941 14.8442 36.5194 13.9945 35.1144 13.5814V34.1691Z" fill="#FF6112"/>
<path fill-rule="evenodd" clip-rule="evenodd" d="M35.1144 34.6819C37.1873 34.1466 38.6638 32.9926 38.8907 31.5805C38.9114 31.523 38.923 31.4566 38.923 31.3859V26.561V26.36V26.159V21.7362V21.5352V21.3342V16.7104V16.5093C38.923 16.4362 38.907 16.3714 38.8853 16.3123C38.6625 15.0271 37.3698 13.7575 35.1144 13.1938V14.0267C37.1366 14.5673 38.4065 15.6811 38.4065 16.7104C38.4065 17.7396 37.1366 18.8535 35.1144 19.394V20.2245C35.1294 20.2208 35.1444 20.217 35.1593 20.2132C35.2125 20.1995 35.2654 20.1859 35.3176 20.1714C35.4715 20.1288 35.6213 20.0833 35.7657 20.0343C35.7767 20.0306 35.7881 20.0271 35.7995 20.0235C35.8116 20.0198 35.8236 20.0161 35.8352 20.0122C35.9989 19.9551 36.1549 19.8927 36.306 19.828C36.3348 19.8157 36.3627 19.8029 36.3906 19.7902C36.4035 19.7843 36.4164 19.7784 36.4295 19.7725C36.5433 19.7207 36.6534 19.6672 36.7598 19.6113C36.7734 19.6041 36.7872 19.5969 36.801 19.5898C36.8254 19.5771 36.8498 19.5645 36.8734 19.5514C37.0072 19.4774 37.1361 19.401 37.2569 19.321C37.267 19.3145 37.2764 19.3076 37.2859 19.3008C37.2928 19.2959 37.2996 19.2909 37.3068 19.286C37.4109 19.2153 37.5098 19.1429 37.604 19.0681C37.6363 19.0424 37.6678 19.0166 37.6988 18.9905C37.7833 18.9201 37.8636 18.8482 37.9395 18.7742C37.9478 18.7663 37.9562 18.7585 37.9647 18.7506C37.9765 18.7398 37.9882 18.7289 37.9992 18.7179C38.0899 18.6266 38.1735 18.5334 38.251 18.4381C38.2621 18.4243 38.2725 18.4105 38.2829 18.3967C38.2907 18.3864 38.2985 18.376 38.3065 18.3657C38.3165 18.3528 38.3267 18.3399 38.3368 18.3271C38.3608 18.2966 38.3847 18.2662 38.4065 18.2354V21.2204C38.3956 21.2779 38.392 21.3386 38.3985 21.3993C38.4034 21.4443 38.4065 21.4898 38.4065 21.5352C38.4065 21.5955 38.3973 21.6561 38.3881 21.7168C38.3874 21.7213 38.3868 21.7257 38.3861 21.7302C38.3789 21.7788 38.3688 21.8271 38.3561 21.8761C38.3458 21.916 38.3331 21.9558 38.3192 21.9956C38.3019 22.045 38.2825 22.0945 38.2595 22.1439C38.2425 22.1813 38.2231 22.2183 38.203 22.2553C38.1743 22.308 38.1438 22.3606 38.1092 22.4129C38.0886 22.4442 38.066 22.4752 38.043 22.5065L38.0421 22.5078C37.9997 22.5653 37.9556 22.6224 37.9062 22.6791C37.8896 22.6983 37.8721 22.717 37.8544 22.7358C37.8496 22.741 37.8447 22.7462 37.8398 22.7514C37.7815 22.8142 37.7205 22.8765 37.6536 22.9376C37.6415 22.949 37.6287 22.9601 37.6158 22.9711C37.6102 22.976 37.6045 22.9809 37.5989 22.9859C37.5219 23.0534 37.4416 23.1205 37.3548 23.1857C37.3458 23.1925 37.3365 23.1991 37.3273 23.2056C37.3251 23.2071 37.3229 23.2087 37.3207 23.2102C37.2239 23.2814 37.1226 23.3513 37.0144 23.4189C37.0123 23.4202 37.0102 23.4214 37.0081 23.4227C37.0071 23.4233 37.0061 23.4239 37.0051 23.4245C36.4915 23.7438 35.8524 24.0188 35.1144 24.2172V25.0516C36.5257 24.6987 37.5602 24.0694 38.1919 23.3332C38.2699 23.2448 38.3401 23.1535 38.4062 23.0606L38.4065 26.0452C38.3956 26.1027 38.392 26.1634 38.3985 26.2241C38.4034 26.2691 38.4065 26.3146 38.4065 26.36C38.4065 26.4203 38.3973 26.481 38.3881 26.5416C38.3874 26.5461 38.3868 26.5505 38.3861 26.555C38.3789 26.6037 38.3688 26.6519 38.3561 26.701C38.3458 26.7408 38.3331 26.7806 38.3192 26.8204C38.3019 26.8698 38.2825 26.9193 38.2595 26.9687C38.2425 27.0061 38.2231 27.0431 38.203 27.0801C38.1743 27.1328 38.1438 27.1855 38.1092 27.2377C38.0886 27.269 38.066 27.3 38.043 27.3313L38.0421 27.3326C37.9997 27.3901 37.9556 27.4472 37.9062 27.5039C37.8896 27.5231 37.8721 27.5418 37.8544 27.5607C37.8496 27.5659 37.8447 27.571 37.8398 27.5763C37.7815 27.639 37.7205 27.7013 37.6536 27.7624C37.6415 27.7739 37.6287 27.7849 37.6158 27.796C37.6102 27.8008 37.6045 27.8057 37.5989 27.8107C37.5219 27.8782 37.4416 27.9454 37.3548 28.0105C37.3458 28.0173 37.3365 28.0239 37.3273 28.0304C37.3251 28.0319 37.3229 28.0335 37.3207 28.035C37.2239 28.1062 37.1226 28.1761 37.0144 28.2437C37.0113 28.2457 37.0082 28.2473 37.0051 28.2493C36.4915 28.5686 35.8524 28.8436 35.1144 29.042V29.8764C36.5257 29.5235 37.5602 28.8942 38.1919 28.1581C38.2699 28.0696 38.3401 27.9783 38.4062 27.8855L38.4065 31.2664C38.4029 31.2841 38.4003 31.3022 38.3982 31.3207C38.2941 32.3098 37.0407 33.3485 35.1144 33.866V34.6819Z" fill="white"/>
<path fill-rule="evenodd" clip-rule="evenodd" d="M40.1283 34.1691C41.8652 33.6959 43.269 32.7911 43.6786 31.5868V16.3082C42.8079 14.8442 41.5332 13.9945 40.1283 13.5814V34.1691Z" fill="#FF6112"/>
<path fill-rule="evenodd" clip-rule="evenodd" d="M40.1283 34.6819C42.2011 34.1466 43.6776 32.9926 43.9045 31.5804C43.9252 31.5229 43.9368 31.4566 43.9368 31.3858V26.561V26.36V26.159V21.7362V21.5352V21.3341V16.7104V16.5093C43.9368 16.4362 43.9208 16.3714 43.8991 16.3123C43.6763 15.0271 42.3836 13.7575 40.1283 13.1938V14.0268C42.1505 14.5673 43.4203 15.6811 43.4203 16.7104C43.4203 17.7396 42.1505 18.8534 40.1283 19.394V20.2245C40.1433 20.2207 40.1582 20.217 40.1731 20.2132C40.2263 20.1995 40.2792 20.1858 40.3314 20.1714C40.4853 20.1287 40.6351 20.0833 40.7795 20.0343C40.7905 20.0306 40.8019 20.027 40.8133 20.0235C40.8254 20.0198 40.8374 20.0161 40.849 20.0121C41.0127 19.9551 41.1687 19.8927 41.3198 19.828C41.3486 19.8156 41.3765 19.8029 41.4044 19.7902C41.4173 19.7843 41.4302 19.7784 41.4433 19.7725C41.5571 19.7206 41.6672 19.6672 41.7736 19.6113C41.7872 19.604 41.801 19.5969 41.8148 19.5898C41.8392 19.5771 41.8636 19.5645 41.8872 19.5514C42.021 19.4774 42.1499 19.401 42.2707 19.321C42.2808 19.3144 42.2902 19.3076 42.2997 19.3008C42.3066 19.2958 42.3134 19.2909 42.3206 19.286C42.4247 19.2152 42.5236 19.1429 42.6178 19.0681C42.6501 19.0424 42.6816 19.0166 42.7126 18.9905C42.7971 18.9201 42.8774 18.8482 42.9533 18.7742C42.9615 18.7663 42.97 18.7584 42.9785 18.7506C42.9903 18.7397 43.002 18.7289 43.013 18.7179C43.1036 18.6266 43.1873 18.5333 43.2648 18.438C43.2759 18.4243 43.2863 18.4105 43.2967 18.3967C43.3045 18.3864 43.3123 18.376 43.3203 18.3657C43.3303 18.3528 43.3405 18.3399 43.3506 18.327C43.3746 18.2966 43.3985 18.2662 43.4203 18.2354V21.2204C43.4094 21.2779 43.4058 21.3386 43.4123 21.3993C43.4172 21.4443 43.4203 21.4897 43.4203 21.5352C43.4203 21.5955 43.4111 21.6561 43.4019 21.7168C43.4012 21.7213 43.4006 21.7257 43.3999 21.7302C43.3927 21.7788 43.3826 21.8271 43.3699 21.8761C43.3596 21.9159 43.3469 21.9557 43.333 21.9955C43.3157 22.045 43.2963 22.0945 43.2733 22.1439C43.2563 22.1813 43.2369 22.2183 43.2168 22.2553C43.1881 22.308 43.1576 22.3606 43.123 22.4129C43.1024 22.4442 43.0798 22.4751 43.0568 22.5064L43.0559 22.5078C43.0135 22.5653 42.9694 22.6224 42.92 22.6791C42.9034 22.6983 42.8859 22.717 42.8682 22.7358C42.8634 22.741 42.8585 22.7462 42.8536 22.7514C42.7953 22.8142 42.7343 22.8765 42.6674 22.9376C42.6553 22.949 42.6425 22.9601 42.6296 22.9711C42.624 22.976 42.6183 22.9809 42.6127 22.9858C42.5357 23.0534 42.4554 23.1205 42.3686 23.1857C42.3596 23.1925 42.3503 23.1991 42.3411 23.2056C42.3389 23.2071 42.3367 23.2087 42.3345 23.2102C42.2377 23.2814 42.1364 23.3513 42.0282 23.4189C42.0267 23.4199 42.0251 23.4208 42.0236 23.4217C42.022 23.4226 42.0205 23.4235 42.0189 23.4245C41.5054 23.7438 40.8662 24.0187 40.1283 24.2172V25.0516C41.5395 24.6987 42.574 24.0694 43.2057 23.3332C43.2837 23.2448 43.3539 23.1535 43.42 23.0606L43.4203 26.0452C43.4094 26.1027 43.4058 26.1634 43.4123 26.2241C43.4172 26.2691 43.4203 26.3146 43.4203 26.36C43.4203 26.4203 43.4111 26.4809 43.4019 26.5416C43.4012 26.5461 43.4006 26.5505 43.3999 26.555C43.3927 26.6036 43.3826 26.6519 43.3699 26.7009C43.3596 26.7408 43.3469 26.7806 43.333 26.8204C43.3157 26.8698 43.2963 26.9193 43.2733 26.9687C43.2563 27.0061 43.2369 27.0431 43.2168 27.0801C43.1881 27.1328 43.1576 27.1854 43.123 27.2377C43.1024 27.269 43.0798 27.3 43.0568 27.3313L43.0559 27.3326C43.0135 27.3901 42.9694 27.4472 42.92 27.5039C42.9034 27.5231 42.8859 27.5418 42.8682 27.5606C42.8634 27.5658 42.8585 27.571 42.8536 27.5762C42.7953 27.639 42.7343 27.7013 42.6674 27.7624C42.6553 27.7738 42.6425 27.7849 42.6296 27.7959C42.624 27.8008 42.6183 27.8057 42.6127 27.8107C42.5357 27.8782 42.4554 27.9453 42.3686 28.0105C42.3575 28.0189 42.3459 28.027 42.3345 28.035C42.2377 28.1062 42.1364 28.1761 42.0282 28.2437C42.0267 28.2447 42.0251 28.2456 42.0236 28.2465C42.022 28.2474 42.0205 28.2483 42.0189 28.2493C41.5054 28.5686 40.8662 28.8436 40.1283 29.042V29.8764C41.5395 29.5235 42.574 28.8942 43.2057 28.158C43.2837 28.0696 43.3539 27.9783 43.42 27.8854L43.4203 31.2664C43.4167 31.2841 43.4141 31.3022 43.412 31.3207C43.3079 32.3098 42.0546 33.3484 40.1283 33.8659V34.6819Z" fill="white"/>
<path fill-rule="evenodd" clip-rule="evenodd" d="M45.1422 34.1691C46.8791 33.6959 48.283 32.7911 48.6925 31.5868V16.3082C47.8218 14.8442 46.5472 13.9945 45.1422 13.5814V34.1691Z" fill="#FF6112"/>
<path fill-rule="evenodd" clip-rule="evenodd" d="M45.1422 34.6819C47.215 34.1466 48.6915 32.9926 48.9185 31.5804C48.9391 31.5229 48.9507 31.4566 48.9507 31.3858V26.561V26.36V26.159V21.7362V21.5352V21.3341V16.7104V16.5093C48.9507 16.4362 48.9347 16.3714 48.913 16.3123C48.6902 15.0271 47.3975 13.7575 45.1422 13.1938V14.0268C47.1644 14.5673 48.4342 15.6811 48.4342 16.7104C48.4342 17.7396 47.1644 18.8534 45.1422 19.394V20.2245C45.1572 20.2207 45.1721 20.217 45.187 20.2132C45.2402 20.1995 45.2932 20.1858 45.3453 20.1714C45.4993 20.1287 45.649 20.0833 45.7934 20.0343C45.8044 20.0306 45.8158 20.027 45.8272 20.0235C45.8393 20.0198 45.8513 20.0161 45.8629 20.0121C46.0266 19.9551 46.1826 19.8927 46.3337 19.828C46.3625 19.8156 46.3904 19.8029 46.4183 19.7902C46.4312 19.7843 46.4442 19.7784 46.4572 19.7725C46.5711 19.7206 46.6811 19.6672 46.7875 19.6113C46.8012 19.604 46.8149 19.5969 46.8287 19.5898C46.8531 19.5771 46.8775 19.5645 46.9011 19.5514C47.0349 19.4774 47.1638 19.401 47.2847 19.321C47.2947 19.3144 47.3042 19.3076 47.3137 19.3008C47.3205 19.2958 47.3274 19.2909 47.3345 19.286C47.4386 19.2152 47.5375 19.1429 47.6318 19.0681C47.664 19.0424 47.6956 19.0166 47.7265 18.9905C47.811 18.9201 47.8913 18.8482 47.9673 18.7742C47.9755 18.7663 47.9839 18.7584 47.9924 18.7506C48.0042 18.7397 48.0159 18.7289 48.0269 18.7179C48.1176 18.6266 48.2012 18.5333 48.2787 18.438C48.2898 18.4243 48.3002 18.4105 48.3106 18.3967C48.3184 18.3864 48.3262 18.376 48.3343 18.3657C48.3442 18.3528 48.3544 18.3399 48.3645 18.327C48.3885 18.2966 48.4124 18.2662 48.4342 18.2354V21.2204C48.4234 21.2779 48.4197 21.3386 48.4262 21.3993C48.4311 21.4443 48.4342 21.4897 48.4342 21.5352C48.4342 21.5955 48.425 21.6561 48.4158 21.7168C48.4151 21.7213 48.4145 21.7257 48.4138 21.7302C48.4066 21.7788 48.3965 21.8271 48.3838 21.8761C48.3735 21.9159 48.3609 21.9557 48.3469 21.9955C48.3296 22.045 48.3102 22.0945 48.2872 22.1439C48.2702 22.1813 48.2508 22.2183 48.2307 22.2553C48.202 22.308 48.1715 22.3606 48.1369 22.4129C48.1163 22.4442 48.0937 22.4751 48.0708 22.5064L48.0698 22.5078C48.0274 22.5653 47.9833 22.6224 47.9339 22.6791C47.9173 22.6983 47.8998 22.717 47.8821 22.7358C47.8773 22.741 47.8724 22.7462 47.8676 22.7514C47.8092 22.8142 47.7482 22.8765 47.6814 22.9376C47.6692 22.949 47.6564 22.9601 47.6436 22.9711C47.6379 22.976 47.6322 22.9809 47.6266 22.9858C47.5496 23.0534 47.4693 23.1205 47.3825 23.1857C47.3736 23.1925 47.3642 23.1991 47.355 23.2056C47.3528 23.2071 47.3506 23.2087 47.3484 23.2102C47.2516 23.2814 47.1504 23.3513 47.0421 23.4189C47.0406 23.4199 47.039 23.4208 47.0375 23.4217C47.0359 23.4226 47.0344 23.4235 47.0328 23.4245C46.5193 23.7438 45.8802 24.0187 45.1422 24.2172V25.0516C46.5534 24.6987 47.5879 24.0694 48.2196 23.3332C48.2976 23.2448 48.3678 23.1535 48.4339 23.0606L48.4342 26.0452C48.4234 26.1027 48.4197 26.1634 48.4262 26.2241C48.4311 26.2691 48.4342 26.3146 48.4342 26.36C48.4342 26.4203 48.425 26.4809 48.4158 26.5416C48.4151 26.5461 48.4145 26.5505 48.4138 26.555C48.4066 26.6036 48.3965 26.6519 48.3838 26.7009C48.3735 26.7408 48.3609 26.7806 48.3469 26.8204C48.3296 26.8698 48.3102 26.9193 48.2872 26.9687C48.2702 27.0061 48.2508 27.0431 48.2307 27.0801C48.202 27.1328 48.1715 27.1854 48.1369 27.2377C48.1163 27.269 48.0937 27.3 48.0708 27.3313L48.0698 27.3326C48.0274 27.3901 47.9833 27.4472 47.9339 27.5039C47.9173 27.5231 47.8998 27.5418 47.8822 27.5606C47.8773 27.5658 47.8724 27.571 47.8676 27.5762C47.8092 27.639 47.7482 27.7013 47.6814 27.7624C47.6692 27.7738 47.6564 27.7849 47.6435 27.7959C47.6379 27.8008 47.6322 27.8057 47.6266 27.8107C47.5496 27.8782 47.4693 27.9453 47.3825 28.0105C47.3736 28.0173 47.3642 28.0239 47.355 28.0304C47.3528 28.0319 47.3506 28.0335 47.3484 28.035C47.2516 28.1062 47.1504 28.1761 47.0421 28.2437C47.0406 28.2447 47.039 28.2456 47.0375 28.2465C47.0359 28.2474 47.0344 28.2483 47.0328 28.2493C46.5193 28.5686 45.8802 28.8436 45.1422 29.042V29.8764C46.5534 29.5235 47.5879 28.8942 48.2196 28.158C48.2976 28.0696 48.3678 27.9783 48.4339 27.8854L48.4342 31.2664C48.4306 31.2841 48.428 31.3022 48.4259 31.3207C48.3218 32.3098 47.0685 33.3484 45.1422 33.8659V34.6819Z" fill="white"/>
</svg>
