<svg width="217" height="50" viewBox="0 0 217 50" fill="none" xmlns="http://www.w3.org/2000/svg">
<g filter="url(#filter0_d_668_5)">
<rect width="215" height="48" rx="4" fill="white"/>
<path d="M64.86 35.28C63.8147 35.28 62.9093 35.2333 62.144 35.14C61.3973 35.0653 60.6693 34.9253 59.96 34.72V15.68C60.6693 15.4747 61.3973 15.3347 62.144 15.26C62.9093 15.1667 63.8147 15.12 64.86 15.12C66.4093 15.12 67.7067 15.4373 68.752 16.072C69.816 16.7067 70.6187 17.7613 71.16 19.236C71.72 20.692 72 22.68 72 25.2C72 27.72 71.72 29.7173 71.16 31.192C70.6187 32.6667 69.816 33.7213 68.752 34.356C67.7067 34.972 66.4093 35.28 64.86 35.28ZM63.32 33.18H64.86C65.6067 33.18 66.26 32.956 66.82 32.508C67.3987 32.0413 67.8467 31.2293 68.164 30.072C68.4813 28.9147 68.64 27.2907 68.64 25.2C68.64 23.0907 68.4813 21.4667 68.164 20.328C67.8467 19.1707 67.3987 18.368 66.82 17.92C66.26 17.4533 65.6067 17.22 64.86 17.22H63.32V33.18ZM78.7178 35.28C77.9338 35.28 77.2058 35.1587 76.5338 34.916C75.8805 34.6733 75.3578 34.2347 74.9658 33.6C74.5738 32.9467 74.3778 32.0133 74.3778 30.8C74.3778 29.5867 74.5738 28.6627 74.9658 28.028C75.3765 27.3747 75.9271 26.9267 76.6178 26.684C77.3271 26.4413 78.1205 26.32 78.9978 26.32C79.4271 26.32 79.8378 26.348 80.2298 26.404C80.6405 26.46 81.0231 26.5253 81.3778 26.6V25.48C81.3778 24.36 81.1165 23.6133 80.5938 23.24C80.0711 22.8667 79.3525 22.68 78.4378 22.68H75.6378V21.28C76.0671 21.1307 76.5898 21 77.2058 20.888C77.8405 20.776 78.4378 20.72 78.9978 20.72C80.2671 20.72 81.3218 20.8507 82.1618 21.112C83.0205 21.3547 83.6645 21.8213 84.0938 22.512C84.5231 23.184 84.7378 24.1733 84.7378 25.48V35H82.3578L81.9378 34.16H81.7978C81.4991 34.44 81.0978 34.7013 80.5938 34.944C80.1085 35.168 79.4831 35.28 78.7178 35.28ZM79.8378 33.32C80.1925 33.32 80.5005 33.264 80.7618 33.152C81.0418 33.0213 81.2471 32.8907 81.3778 32.76V28.28H79.8378C79.5205 28.28 79.1938 28.3547 78.8578 28.504C78.5405 28.6533 78.2698 28.9147 78.0458 29.288C77.8405 29.6427 77.7378 30.1467 77.7378 30.8C77.7378 31.4533 77.8405 31.9667 78.0458 32.34C78.2698 32.6947 78.5405 32.9467 78.8578 33.096C79.1938 33.2453 79.5205 33.32 79.8378 33.32ZM92.9869 35.28C92.2029 35.28 91.4749 35.1587 90.8029 34.916C90.1495 34.6547 89.6269 34.188 89.2349 33.516C88.8429 32.8253 88.6469 31.8267 88.6469 30.52V23.38H87.1069V21.28H88.6469V17.92H92.0069V21.28H95.7869V22.82C95.3762 22.9507 94.8442 23.0813 94.1909 23.212C93.5375 23.324 92.8562 23.38 92.1469 23.38H92.0069V30.52C92.0069 31.2667 92.1002 31.8453 92.2869 32.256C92.4735 32.648 92.7069 32.928 92.9869 33.096C93.2669 33.2453 93.5469 33.32 93.8269 33.32H96.3469V34.72C96.1229 34.8133 95.8149 34.9067 95.4229 35C95.0309 35.0747 94.6202 35.14 94.1909 35.196C93.7615 35.252 93.3602 35.28 92.9869 35.28ZM101.96 35.28C101.176 35.28 100.448 35.1587 99.776 34.916C99.1227 34.6733 98.6 34.2347 98.208 33.6C97.816 32.9467 97.62 32.0133 97.62 30.8C97.62 29.5867 97.816 28.6627 98.208 28.028C98.6187 27.3747 99.1693 26.9267 99.86 26.684C100.569 26.4413 101.363 26.32 102.24 26.32C102.669 26.32 103.08 26.348 103.472 26.404C103.883 26.46 104.265 26.5253 104.62 26.6V25.48C104.62 24.36 104.359 23.6133 103.836 23.24C103.313 22.8667 102.595 22.68 101.68 22.68H98.88V21.28C99.3093 21.1307 99.832 21 100.448 20.888C101.083 20.776 101.68 20.72 102.24 20.72C103.509 20.72 104.564 20.8507 105.404 21.112C106.263 21.3547 106.907 21.8213 107.336 22.512C107.765 23.184 107.98 24.1733 107.98 25.48V35H105.6L105.18 34.16H105.04C104.741 34.44 104.34 34.7013 103.836 34.944C103.351 35.168 102.725 35.28 101.96 35.28ZM103.08 33.32C103.435 33.32 103.743 33.264 104.004 33.152C104.284 33.0213 104.489 32.8907 104.62 32.76V28.28H103.08C102.763 28.28 102.436 28.3547 102.1 28.504C101.783 28.6533 101.512 28.9147 101.288 29.288C101.083 29.6427 100.98 30.1467 100.98 30.8C100.98 31.4533 101.083 31.9667 101.288 32.34C101.512 32.6947 101.783 32.9467 102.1 33.096C102.436 33.2453 102.763 33.32 103.08 33.32ZM116.369 35.28C115.398 35.28 114.558 35.2053 113.849 35.056C113.158 34.9253 112.458 34.72 111.749 34.44V15.4H115.109V21.42C115.408 21.2147 115.753 21.0467 116.145 20.916C116.556 20.7853 117.004 20.72 117.489 20.72C118.516 20.72 119.402 20.9627 120.149 21.448C120.914 21.9147 121.502 22.68 121.913 23.744C122.324 24.808 122.529 26.2267 122.529 28C122.529 29.7733 122.305 31.192 121.857 32.256C121.428 33.32 120.756 34.0947 119.841 34.58C118.926 35.0467 117.769 35.28 116.369 35.28ZM115.109 33.32H116.369C116.929 33.32 117.414 33.1707 117.825 32.872C118.254 32.5547 118.581 32.0133 118.805 31.248C119.048 30.4827 119.169 29.4 119.169 28C119.169 26.6 119.057 25.5173 118.833 24.752C118.609 23.968 118.301 23.4267 117.909 23.128C117.536 22.8293 117.116 22.68 116.649 22.68C116.294 22.68 115.986 22.736 115.725 22.848C115.464 22.96 115.258 23.0907 115.109 23.24V33.32ZM129.112 35.28C128.328 35.28 127.6 35.1587 126.928 34.916C126.275 34.6733 125.752 34.2347 125.36 33.6C124.968 32.9467 124.772 32.0133 124.772 30.8C124.772 29.5867 124.968 28.6627 125.36 28.028C125.771 27.3747 126.322 26.9267 127.012 26.684C127.722 26.4413 128.515 26.32 129.392 26.32C129.822 26.32 130.232 26.348 130.624 26.404C131.035 26.46 131.418 26.5253 131.772 26.6V25.48C131.772 24.36 131.511 23.6133 130.988 23.24C130.466 22.8667 129.747 22.68 128.832 22.68H126.032V21.28C126.462 21.1307 126.984 21 127.6 20.888C128.235 20.776 128.832 20.72 129.392 20.72C130.662 20.72 131.716 20.8507 132.556 21.112C133.415 21.3547 134.059 21.8213 134.488 22.512C134.918 23.184 135.132 24.1733 135.132 25.48V35H132.752L132.332 34.16H132.192C131.894 34.44 131.492 34.7013 130.988 34.944C130.503 35.168 129.878 35.28 129.112 35.28ZM130.232 33.32C130.587 33.32 130.895 33.264 131.156 33.152C131.436 33.0213 131.642 32.8907 131.772 32.76V28.28H130.232C129.915 28.28 129.588 28.3547 129.252 28.504C128.935 28.6533 128.664 28.9147 128.44 29.288C128.235 29.6427 128.132 30.1467 128.132 30.8C128.132 31.4533 128.235 31.9667 128.44 32.34C128.664 32.6947 128.935 32.9467 129.252 33.096C129.588 33.2453 129.915 33.32 130.232 33.32ZM141.701 35.28C141.011 35.28 140.339 35.2147 139.685 35.084C139.032 34.972 138.491 34.8507 138.061 34.72V33.32H141.141C142.187 33.32 142.98 33.1707 143.521 32.872C144.081 32.5547 144.361 32.0507 144.361 31.36C144.361 30.8747 144.203 30.4827 143.885 30.184C143.568 29.8667 143.157 29.596 142.653 29.372C142.168 29.148 141.636 28.924 141.057 28.7C140.497 28.4573 139.965 28.1773 139.461 27.86C138.976 27.524 138.575 27.104 138.257 26.6C137.94 26.0773 137.781 25.424 137.781 24.64C137.781 23.0907 138.248 22.0547 139.181 21.532C140.133 20.9907 141.487 20.72 143.241 20.72C143.951 20.72 144.632 20.776 145.285 20.888C145.939 21 146.471 21.1307 146.881 21.28V22.68H143.801C143.036 22.68 142.401 22.82 141.897 23.1C141.393 23.38 141.141 23.8 141.141 24.36C141.141 24.8453 141.3 25.2467 141.617 25.564C141.935 25.8627 142.336 26.124 142.821 26.348C143.325 26.572 143.857 26.8053 144.417 27.048C144.996 27.272 145.528 27.552 146.013 27.888C146.517 28.2053 146.928 28.616 147.245 29.12C147.563 29.624 147.721 30.2773 147.721 31.08C147.721 32.2 147.497 33.068 147.049 33.684C146.62 34.2813 145.957 34.7013 145.061 34.944C144.184 35.168 143.064 35.28 141.701 35.28ZM155.983 35.28C154.545 35.28 153.36 35.0467 152.427 34.58C151.493 34.0947 150.803 33.32 150.355 32.256C149.907 31.192 149.683 29.7733 149.683 28C149.683 26.2267 149.888 24.808 150.299 23.744C150.728 22.68 151.335 21.9147 152.119 21.448C152.921 20.9627 153.883 20.72 155.003 20.72C156.123 20.72 157.075 20.9627 157.859 21.448C158.661 21.9147 159.268 22.68 159.679 23.744C160.108 24.808 160.323 26.2267 160.323 28V28.98H153.043C153.043 30.5853 153.323 31.7147 153.883 32.368C154.461 33.0027 155.348 33.32 156.543 33.32H159.623V34.72C159.212 34.8507 158.68 34.972 158.027 35.084C157.373 35.2147 156.692 35.28 155.983 35.28ZM153.043 27.02H156.963C156.963 25.8067 156.879 24.8827 156.711 24.248C156.543 23.5947 156.309 23.1467 156.011 22.904C155.712 22.6613 155.376 22.54 155.003 22.54C154.629 22.54 154.293 22.6613 153.995 22.904C153.696 23.1467 153.463 23.5947 153.295 24.248C153.127 24.8827 153.043 25.8067 153.043 27.02ZM170.401 35V15.4H173.761V32.76H180.621V35H170.401ZM186.37 35.28C185.586 35.28 184.858 35.1587 184.186 34.916C183.533 34.6733 183.01 34.2347 182.618 33.6C182.226 32.9467 182.03 32.0133 182.03 30.8C182.03 29.5867 182.226 28.6627 182.618 28.028C183.029 27.3747 183.579 26.9267 184.27 26.684C184.979 26.4413 185.773 26.32 186.65 26.32C187.079 26.32 187.49 26.348 187.882 26.404C188.293 26.46 188.675 26.5253 189.03 26.6V25.48C189.03 24.36 188.769 23.6133 188.246 23.24C187.723 22.8667 187.005 22.68 186.09 22.68H183.29V21.28C183.719 21.1307 184.242 21 184.858 20.888C185.493 20.776 186.09 20.72 186.65 20.72C187.919 20.72 188.974 20.8507 189.814 21.112C190.673 21.3547 191.317 21.8213 191.746 22.512C192.175 23.184 192.39 24.1733 192.39 25.48V35H190.01L189.59 34.16H189.45C189.151 34.44 188.75 34.7013 188.246 34.944C187.761 35.168 187.135 35.28 186.37 35.28ZM187.49 33.32C187.845 33.32 188.153 33.264 188.414 33.152C188.694 33.0213 188.899 32.8907 189.03 32.76V28.28H187.49C187.173 28.28 186.846 28.3547 186.51 28.504C186.193 28.6533 185.922 28.9147 185.698 29.288C185.493 29.6427 185.39 30.1467 185.39 30.8C185.39 31.4533 185.493 31.9667 185.698 32.34C185.922 32.6947 186.193 32.9467 186.51 33.096C186.846 33.2453 187.173 33.32 187.49 33.32ZM200.779 35.28C199.809 35.28 198.969 35.2053 198.259 35.056C197.569 34.9253 196.869 34.72 196.159 34.44V15.4H199.519V21.42C199.818 21.2147 200.163 21.0467 200.555 20.916C200.966 20.7853 201.414 20.72 201.899 20.72C202.926 20.72 203.813 20.9627 204.559 21.448C205.325 21.9147 205.913 22.68 206.323 23.744C206.734 24.808 206.939 26.2267 206.939 28C206.939 29.7733 206.715 31.192 206.267 32.256C205.838 33.32 205.166 34.0947 204.251 34.58C203.337 35.0467 202.179 35.28 200.779 35.28ZM199.519 33.32H200.779C201.339 33.32 201.825 33.1707 202.235 32.872C202.665 32.5547 202.991 32.0133 203.215 31.248C203.458 30.4827 203.579 29.4 203.579 28C203.579 26.6 203.467 25.5173 203.243 24.752C203.019 23.968 202.711 23.4267 202.319 23.128C201.946 22.8293 201.526 22.68 201.059 22.68C200.705 22.68 200.397 22.736 200.135 22.848C199.874 22.96 199.669 23.0907 199.519 23.24V33.32Z" fill="black"/>
<path d="M32.4728 16.7091C27.0182 10.8182 12.1819 14.0909 11.5273 16.7091V33.2909C15.0182 38.0909 30.5092 37 32.4728 33.2909V16.7091Z" fill="#FF6112"/>
<path d="M32.8454 16.7135C32.34 14.8415 28.579 13 22 13C15.4209 13 11.6595 14.8415 11.1546 16.7135C11.1179 16.7776 11.0909 16.8479 11.0909 16.9273V17.1455V22.1636V22.3818V22.6V27.4V27.6182V27.8364V33.0727C11.0909 33.1434 11.1096 33.2102 11.1419 33.2695C11.6573 35.4055 16.2679 37 22 37C27.719 37 32.3222 35.4121 32.8545 33.2839C32.8894 33.2215 32.9091 33.1495 32.9091 33.0727V27.8364V27.6182V27.4V22.6V22.3818V22.1636V17.1455V16.9273C32.9091 16.8479 32.882 16.7776 32.8454 16.7135ZM32.0019 27.8298C31.9896 27.8826 31.9726 27.935 31.9512 27.9882C31.9338 28.0314 31.9124 28.0746 31.8888 28.1178C31.8596 28.1715 31.8269 28.2252 31.788 28.2788C31.7592 28.3194 31.7265 28.3596 31.6925 28.3997C31.644 28.4569 31.5925 28.514 31.5341 28.5708C31.4987 28.6052 31.4599 28.6393 31.4206 28.6737C31.3491 28.7361 31.2744 28.7981 31.1911 28.8596C31.1553 28.8863 31.1169 28.912 31.079 28.9382C30.9803 29.0063 30.8774 29.0739 30.7643 29.1402C30.7347 29.1581 30.7028 29.1751 30.6718 29.1926C30.5418 29.2659 30.4061 29.3388 30.2595 29.4095C30.2407 29.4186 30.2211 29.4273 30.2019 29.4361C30.0382 29.5133 29.8672 29.5892 29.6843 29.6625C29.6791 29.6647 29.6739 29.6665 29.6686 29.6687C28.6776 30.0644 27.41 30.3974 25.9329 30.6156C25.9255 30.6164 25.9181 30.6173 25.9107 30.6186C25.6235 30.6609 25.329 30.6985 25.0266 30.7316C24.9773 30.7369 24.9254 30.7404 24.8756 30.7456C24.6116 30.7731 24.3446 30.7984 24.0696 30.8185C23.944 30.8276 23.8122 30.832 23.6843 30.8399C23.4775 30.8521 23.2728 30.8656 23.0608 30.873C22.7143 30.8839 22.3608 30.8909 22 30.8909C21.6391 30.8909 21.2856 30.8839 20.9387 30.8717C20.7267 30.8643 20.522 30.8503 20.3152 30.8385C20.1873 30.8311 20.0555 30.8263 19.9299 30.8172C19.655 30.7971 19.3879 30.7718 19.1239 30.7443C19.0742 30.7391 19.0222 30.7356 18.9729 30.7303C18.6705 30.6972 18.376 30.6592 18.0888 30.6173C18.0814 30.6164 18.074 30.6156 18.0666 30.6143C16.5895 30.3961 15.3219 30.0631 14.3309 29.6673C14.3256 29.6656 14.3204 29.6634 14.3152 29.6612C14.1323 29.5879 13.9608 29.512 13.7976 29.4348C13.7789 29.4256 13.7588 29.4169 13.74 29.4081C13.5934 29.3375 13.4577 29.265 13.3277 29.1913C13.2971 29.1738 13.2648 29.1568 13.2352 29.1389C13.1222 29.0726 13.0192 29.0049 12.9206 28.9369C12.883 28.9107 12.8442 28.8849 12.8084 28.8583C12.7251 28.7968 12.6504 28.7348 12.5789 28.6724C12.54 28.6384 12.5008 28.6044 12.4654 28.5695C12.407 28.5127 12.3555 28.456 12.307 28.3984C12.273 28.3583 12.2403 28.3181 12.2115 28.2775C12.1731 28.2239 12.1403 28.1702 12.1107 28.1165C12.0871 28.0733 12.0662 28.0301 12.0483 27.9869C12.0269 27.9341 12.0099 27.8813 11.9976 27.8285C11.9815 27.7591 11.9636 27.6884 11.9636 27.6182C11.9636 27.5689 11.9693 27.5196 11.9771 27.4707C11.988 27.4048 11.9819 27.3389 11.9636 27.2765V24.0369C11.9758 24.0483 11.9911 24.0592 12.0038 24.0705C12.0989 24.1543 12.1958 24.2377 12.3048 24.318C13.9486 25.5612 17.2358 26.5273 22 26.5273C26.7441 26.5273 30.023 25.569 31.6737 24.3332C31.8055 24.2372 31.9242 24.1382 32.0359 24.0374L32.0363 27.2765C32.018 27.3389 32.0119 27.4048 32.0228 27.4707C32.0311 27.5196 32.0363 27.5689 32.0363 27.6182C32.0363 27.6884 32.0184 27.7591 32.0019 27.8298ZM32.0363 18.8006V22.0401C32.018 22.1025 32.0119 22.1684 32.0228 22.2343C32.0311 22.2832 32.0363 22.3325 32.0363 22.3818C32.0363 22.4521 32.0184 22.5228 32.0019 22.5935C31.9896 22.6463 31.9726 22.6986 31.9512 22.7519C31.9338 22.7951 31.9124 22.8383 31.8888 22.8815C31.8596 22.9351 31.8269 22.9888 31.788 23.0425C31.7592 23.0831 31.7265 23.1232 31.6925 23.1633C31.644 23.2205 31.5925 23.2777 31.5341 23.3344C31.4987 23.3689 31.4599 23.4029 31.4206 23.4374C31.3491 23.4998 31.2744 23.5617 31.1911 23.6233C31.1553 23.6499 31.1169 23.6756 31.079 23.7018C30.9803 23.7699 30.8774 23.8375 30.7643 23.9039C30.7347 23.9217 30.7028 23.9388 30.6718 23.9562C30.5418 24.0295 30.4061 24.1024 30.2595 24.1731C30.2407 24.1823 30.2211 24.191 30.2019 24.1997C30.0382 24.2769 29.8672 24.3529 29.6843 24.4262C29.6791 24.4284 29.6739 24.4301 29.6686 24.4323C28.6776 24.8281 27.41 25.161 25.9329 25.3792C25.9255 25.3801 25.9181 25.3809 25.9107 25.3823C25.6235 25.4246 25.329 25.4621 25.0266 25.4953C24.9773 25.5005 24.9254 25.504 24.8756 25.5092C24.6116 25.5367 24.3446 25.562 24.0696 25.5821C23.944 25.5913 23.8122 25.5956 23.6843 25.6035C23.4775 25.6157 23.2728 25.6292 23.0608 25.6367C22.7143 25.6476 22.3608 25.6545 22 25.6545C21.6391 25.6545 21.2856 25.6476 20.9387 25.6353C20.7267 25.6279 20.522 25.614 20.3152 25.6022C20.1873 25.5948 20.0555 25.59 19.9299 25.5808C19.655 25.5607 19.3879 25.5354 19.1239 25.5079C19.0742 25.5027 19.0222 25.4992 18.9729 25.494C18.6705 25.4608 18.376 25.4228 18.0888 25.3809C18.0814 25.3801 18.074 25.3792 18.0666 25.3779C16.5895 25.1597 15.3219 24.8268 14.3309 24.431C14.3256 24.4292 14.3204 24.4271 14.3152 24.4249C14.1323 24.3516 13.9608 24.2756 13.7976 24.1984C13.7789 24.1892 13.7588 24.1805 13.74 24.1718C13.5934 24.1011 13.4577 24.0287 13.3277 23.9549C13.2971 23.9375 13.2648 23.9204 13.2352 23.9025C13.1222 23.8362 13.0192 23.7686 12.9206 23.7005C12.883 23.6743 12.8442 23.6486 12.8084 23.622C12.7251 23.5604 12.6504 23.4985 12.5789 23.4361C12.54 23.402 12.5008 23.368 12.4654 23.3331C12.407 23.2764 12.3555 23.2196 12.307 23.162C12.273 23.1219 12.2403 23.0817 12.2115 23.0412C12.1731 22.9875 12.1403 22.9338 12.1107 22.8801C12.0871 22.8369 12.0662 22.7937 12.0483 22.7505C12.0269 22.6977 12.0099 22.6449 11.9976 22.5921C11.9815 22.5228 11.9636 22.4521 11.9636 22.3818C11.9636 22.3325 11.9693 22.2832 11.9771 22.2343C11.988 22.1684 11.9819 22.1025 11.9636 22.0401V18.8006C12.016 18.8481 12.0758 18.8948 12.1325 18.942C12.1639 18.9681 12.1931 18.9943 12.2263 19.0205C12.3572 19.1235 12.4986 19.2252 12.6518 19.3242C12.6836 19.3447 12.7194 19.3648 12.7526 19.3853C12.8808 19.4652 13.0166 19.5433 13.1592 19.6201C13.212 19.6484 13.2648 19.6764 13.3194 19.7043C13.4787 19.7855 13.6458 19.8644 13.8216 19.9408C13.8504 19.9535 13.8766 19.9665 13.9059 19.9788C14.1105 20.0656 14.3278 20.1485 14.5539 20.2288C14.6163 20.2511 14.6817 20.272 14.7459 20.2938C14.9256 20.3545 15.1115 20.4125 15.304 20.4688C15.3734 20.4889 15.4414 20.5098 15.5126 20.529C15.7678 20.5997 16.0314 20.6669 16.308 20.7289C16.346 20.7376 16.387 20.7446 16.4254 20.7529C16.6694 20.8061 16.9224 20.8554 17.1825 20.9017C17.2707 20.9174 17.3601 20.9322 17.45 20.9471C17.6974 20.9876 17.9523 21.0247 18.2136 21.0588C18.2808 21.0675 18.345 21.0775 18.4131 21.0858C18.7377 21.1251 19.0737 21.1587 19.4189 21.1875C19.504 21.1945 19.5926 21.1997 19.679 21.2058C19.9552 21.2259 20.2375 21.2425 20.5264 21.2556C20.6315 21.2604 20.7363 21.2652 20.8436 21.2691C21.2198 21.2817 21.6029 21.2909 22 21.2909C22.3971 21.2909 22.7802 21.2817 23.1563 21.2691C23.2632 21.2652 23.368 21.2604 23.4736 21.2556C23.7624 21.2425 24.0448 21.2259 24.321 21.2058C24.4074 21.1993 24.4955 21.1945 24.5811 21.1875C24.9262 21.1591 25.2622 21.1251 25.5869 21.0858C25.655 21.0775 25.7191 21.0675 25.7863 21.0588C26.0477 21.0247 26.3021 20.9876 26.5499 20.9471C26.6398 20.9322 26.7293 20.9174 26.8174 20.9017C27.0775 20.8554 27.3306 20.8061 27.5745 20.7529C27.6129 20.7446 27.6539 20.7372 27.6919 20.7289C27.9686 20.6669 28.2321 20.5993 28.4874 20.529C28.5585 20.5094 28.6266 20.4889 28.696 20.4688C28.8884 20.4125 29.0743 20.3545 29.2541 20.2938C29.3182 20.272 29.3837 20.2511 29.4461 20.2288C29.6721 20.1485 29.8899 20.0656 30.0941 19.9788C30.1233 19.9665 30.1495 19.9535 30.1783 19.9408C30.3542 19.864 30.5213 19.7855 30.6806 19.7043C30.7351 19.6764 30.7883 19.6484 30.8407 19.6201C30.9834 19.5437 31.1191 19.4656 31.2474 19.3853C31.2806 19.3648 31.3163 19.3447 31.3482 19.3242C31.5014 19.2252 31.6427 19.1239 31.7736 19.0205C31.8064 18.9943 31.8356 18.9681 31.8675 18.942C31.9242 18.8948 31.984 18.8481 32.0363 18.8006ZM22 13.8727C27.9149 13.8727 32.0363 15.5972 32.0363 17.1455C32.0363 18.6937 27.9149 20.4182 22 20.4182C16.0851 20.4182 11.9636 18.6937 11.9636 17.1455C11.9636 15.5972 16.0851 13.8727 22 13.8727ZM32.0363 32.9431C32.0302 32.9623 32.0259 32.982 32.0224 33.002C31.775 34.5114 27.6884 36.1273 22 36.1273C16.3115 36.1273 12.225 34.5114 11.9776 33.002C11.9741 32.9824 11.9693 32.9632 11.9636 32.9449V29.2733C11.9758 29.2847 11.9911 29.2956 12.0038 29.3069C12.0989 29.3907 12.1958 29.474 12.3048 29.5543C13.9486 30.7975 17.2358 31.7636 22 31.7636C26.7441 31.7636 30.023 30.8054 31.6737 29.5696C31.8055 29.4736 31.9242 29.3745 32.0359 29.2737L32.0363 32.9431Z" fill="white"/>
<path fill-rule="evenodd" clip-rule="evenodd" d="M34.1144 35.1692C35.8513 34.6959 37.2552 33.7912 37.6648 32.5868V17.3082C36.794 15.8442 35.5194 14.9945 34.1144 14.5814V35.1692Z" fill="#FF6112"/>
<path fill-rule="evenodd" clip-rule="evenodd" d="M34.1144 35.6819C36.1873 35.1466 37.6638 33.9926 37.8907 32.5805C37.9114 32.523 37.923 32.4566 37.923 32.3859V27.561V27.36V27.159V22.7362V22.5352V22.3342V17.7104V17.5093C37.923 17.4362 37.907 17.3714 37.8853 17.3123C37.6624 16.0271 36.3698 14.7575 34.1144 14.1938V15.0268C36.1366 15.5673 37.4064 16.6811 37.4064 17.7104C37.4064 18.7396 36.1366 19.8535 34.1144 20.394V21.2245C34.1294 21.2208 34.1443 21.217 34.1593 21.2132C34.2125 21.1995 34.2654 21.1859 34.3176 21.1714C34.4715 21.1288 34.6213 21.0833 34.7657 21.0343C34.7767 21.0306 34.7881 21.0271 34.7994 21.0235C34.8115 21.0198 34.8236 21.0161 34.8351 21.0122C34.9989 20.9551 35.1549 20.8927 35.306 20.828C35.3347 20.8157 35.3626 20.8029 35.3905 20.7902C35.4035 20.7843 35.4164 20.7784 35.4294 20.7725C35.5433 20.7207 35.6533 20.6672 35.7597 20.6113C35.7734 20.6041 35.7872 20.5969 35.8009 20.5898C35.8254 20.5771 35.8497 20.5645 35.8734 20.5514C36.0072 20.4774 36.136 20.401 36.2569 20.321C36.267 20.3145 36.2764 20.3077 36.2859 20.3008C36.2927 20.2959 36.2996 20.2909 36.3067 20.286C36.4108 20.2153 36.5097 20.1429 36.604 20.0681C36.6363 20.0424 36.6678 20.0166 36.6988 19.9905C36.7832 19.9201 36.8636 19.8482 36.9395 19.7742C36.9477 19.7663 36.9562 19.7585 36.9647 19.7506C36.9764 19.7398 36.9882 19.7289 36.9992 19.7179C37.0898 19.6266 37.1735 19.5334 37.251 19.4381C37.262 19.4243 37.2724 19.4105 37.2828 19.3967C37.2906 19.3864 37.2984 19.376 37.3065 19.3657C37.3165 19.3528 37.3266 19.3399 37.3367 19.3271C37.3607 19.2966 37.3847 19.2662 37.4064 19.2354V22.2204C37.3956 22.2779 37.392 22.3386 37.3984 22.3993C37.4033 22.4443 37.4064 22.4898 37.4064 22.5352C37.4064 22.5955 37.3973 22.6561 37.3881 22.7168C37.3874 22.7213 37.3867 22.7257 37.386 22.7302C37.3788 22.7788 37.3687 22.8271 37.3561 22.8762C37.3458 22.916 37.3331 22.9558 37.3192 22.9956C37.3018 23.045 37.2825 23.0945 37.2595 23.1439C37.2424 23.1813 37.2231 23.2183 37.2029 23.2553C37.1743 23.308 37.1438 23.3606 37.1092 23.4129C37.0886 23.4442 37.0659 23.4752 37.043 23.5065L37.042 23.5078C36.9997 23.5653 36.9555 23.6224 36.9062 23.6791C36.8896 23.6983 36.872 23.717 36.8544 23.7359C36.8495 23.741 36.8447 23.7462 36.8398 23.7515C36.7814 23.8142 36.7205 23.8765 36.6536 23.9376C36.6414 23.949 36.6286 23.9601 36.6158 23.9712C36.6101 23.976 36.6045 23.9809 36.5988 23.9859C36.5219 24.0534 36.4416 24.1206 36.3548 24.1857C36.3458 24.1925 36.3365 24.1991 36.3273 24.2056C36.3251 24.2071 36.3229 24.2087 36.3207 24.2102C36.2238 24.2814 36.1226 24.3513 36.0144 24.4189C36.0123 24.4202 36.0102 24.4214 36.0081 24.4227C36.0071 24.4233 36.0061 24.4239 36.0051 24.4245C35.4915 24.7438 34.8524 25.0188 34.1144 25.2172V26.0516C35.5257 25.6987 36.5601 25.0694 37.1918 24.3332C37.2698 24.2448 37.3401 24.1535 37.4062 24.0606L37.4064 27.0452C37.3956 27.1027 37.392 27.1634 37.3984 27.2241C37.4033 27.2691 37.4064 27.3146 37.4064 27.36C37.4064 27.4203 37.3973 27.481 37.3881 27.5416C37.3874 27.5461 37.3867 27.5506 37.386 27.555C37.3788 27.6037 37.3687 27.6519 37.3561 27.701C37.3458 27.7408 37.3331 27.7806 37.3192 27.8204C37.3018 27.8698 37.2825 27.9193 37.2595 27.9687C37.2424 28.0061 37.2231 28.0431 37.2029 28.0801C37.1743 28.1328 37.1438 28.1855 37.1092 28.2377C37.0886 28.269 37.0659 28.3 37.043 28.3313L37.042 28.3326C36.9997 28.3901 36.9555 28.4472 36.9062 28.5039C36.8896 28.5231 36.872 28.5418 36.8544 28.5607C36.8495 28.5659 36.8447 28.5711 36.8398 28.5763C36.7814 28.639 36.7205 28.7013 36.6536 28.7624C36.6414 28.7739 36.6286 28.7849 36.6158 28.796C36.6101 28.8009 36.6045 28.8057 36.5988 28.8107C36.5219 28.8782 36.4416 28.9454 36.3548 29.0105C36.3458 29.0173 36.3365 29.0239 36.3273 29.0304C36.3251 29.0319 36.3229 29.0335 36.3207 29.035C36.2238 29.1062 36.1226 29.1762 36.0144 29.2437C36.0113 29.2457 36.0082 29.2473 36.0051 29.2493C35.4915 29.5687 34.8524 29.8436 34.1144 30.042V30.8764C35.5257 30.5235 36.5601 29.8942 37.1918 29.1581C37.2698 29.0696 37.3401 28.9783 37.4062 28.8855L37.4064 32.2664C37.4028 32.2841 37.4002 32.3022 37.3982 32.3207C37.294 33.3098 36.0407 34.3485 34.1144 34.866V35.6819Z" fill="white"/>
<path fill-rule="evenodd" clip-rule="evenodd" d="M39.1283 35.1691C40.8652 34.6959 42.2691 33.7912 42.6786 32.5868V17.3082C41.8079 15.8443 40.5333 14.9945 39.1283 14.5814V35.1691Z" fill="#FF6112"/>
<path fill-rule="evenodd" clip-rule="evenodd" d="M39.1283 35.6819C41.2012 35.1466 42.6777 33.9926 42.9046 32.5805C42.9252 32.523 42.9369 32.4566 42.9369 32.3859V27.561V27.36V27.159V22.7362V22.5352V22.3342V17.7104V17.5093C42.9369 17.4362 42.9208 17.3714 42.8992 17.3123C42.6763 16.0271 41.3837 14.7575 39.1283 14.1938V15.0268C41.1505 15.5673 42.4203 16.6811 42.4203 17.7104C42.4203 18.7396 41.1505 19.8534 39.1283 20.394V21.2245C39.1433 21.2208 39.1582 21.217 39.1731 21.2132C39.2263 21.1995 39.2793 21.1859 39.3315 21.1714C39.4854 21.1288 39.6352 21.0833 39.7795 21.0343C39.7906 21.0306 39.802 21.0271 39.8133 21.0235C39.8254 21.0198 39.8374 21.0161 39.849 21.0122C40.0128 20.9551 40.1688 20.8927 40.3198 20.828C40.3486 20.8157 40.3765 20.8029 40.4044 20.7902C40.4174 20.7843 40.4303 20.7784 40.4433 20.7725C40.5572 20.7207 40.6672 20.6672 40.7736 20.6113C40.7873 20.6041 40.8011 20.5969 40.8148 20.5898C40.8392 20.5771 40.8636 20.5645 40.8873 20.5514C41.021 20.4774 41.1499 20.401 41.2708 20.321C41.2808 20.3145 41.2903 20.3077 41.2998 20.3008C41.3066 20.2959 41.3135 20.2909 41.3206 20.286C41.4247 20.2153 41.5236 20.1429 41.6179 20.0681C41.6502 20.0424 41.6817 20.0166 41.7127 19.9905C41.7971 19.9201 41.8775 19.8482 41.9534 19.7742C41.9616 19.7663 41.9701 19.7585 41.9785 19.7506C41.9903 19.7398 42.0021 19.7289 42.013 19.7179C42.1037 19.6266 42.1874 19.5334 42.2648 19.4381C42.2759 19.4243 42.2863 19.4105 42.2967 19.3967C42.3045 19.3864 42.3123 19.376 42.3204 19.3657C42.3304 19.3528 42.3405 19.3399 42.3506 19.3271C42.3746 19.2966 42.3985 19.2662 42.4203 19.2354V22.2204C42.4095 22.2779 42.4059 22.3386 42.4123 22.3993C42.4172 22.4443 42.4203 22.4898 42.4203 22.5352C42.4203 22.5955 42.4111 22.6561 42.4019 22.7168C42.4013 22.7213 42.4006 22.7257 42.3999 22.7302C42.3927 22.7788 42.3826 22.8271 42.37 22.8762C42.3596 22.916 42.347 22.9558 42.333 22.9956C42.3157 23.045 42.2964 23.0945 42.2734 23.1439C42.2563 23.1813 42.237 23.2183 42.2168 23.2553C42.1881 23.308 42.1577 23.3606 42.1231 23.4129C42.1024 23.4442 42.0798 23.4752 42.0569 23.5065L42.0559 23.5078C42.0136 23.5653 41.9694 23.6224 41.9201 23.6791C41.9035 23.6983 41.8859 23.717 41.8683 23.7359C41.8634 23.741 41.8585 23.7462 41.8537 23.7515C41.7953 23.8142 41.7344 23.8765 41.6675 23.9376C41.6553 23.949 41.6425 23.9601 41.6297 23.9712C41.624 23.976 41.6183 23.9809 41.6127 23.9859C41.5358 24.0534 41.4554 24.1206 41.3687 24.1857C41.3597 24.1925 41.3504 24.1991 41.3411 24.2056C41.3389 24.2071 41.3368 24.2087 41.3346 24.2102C41.2377 24.2814 41.1365 24.3513 41.0283 24.4189C41.0267 24.4199 41.0252 24.4208 41.0236 24.4217C41.0221 24.4226 41.0205 24.4235 41.019 24.4245C40.5054 24.7438 39.8663 25.0188 39.1283 25.2172V26.0516C40.5396 25.6987 41.574 25.0694 42.2057 24.3332C42.2837 24.2448 42.354 24.1535 42.4201 24.0606L42.4203 27.0452C42.4095 27.1027 42.4059 27.1634 42.4123 27.2241C42.4172 27.2691 42.4203 27.3146 42.4203 27.36C42.4203 27.4203 42.4111 27.481 42.4019 27.5416C42.4013 27.5461 42.4006 27.5506 42.3999 27.555C42.3927 27.6037 42.3826 27.6519 42.37 27.701C42.3596 27.7408 42.347 27.7806 42.333 27.8204C42.3157 27.8698 42.2964 27.9193 42.2734 27.9687C42.2563 28.0061 42.237 28.0431 42.2168 28.0801C42.1881 28.1328 42.1577 28.1855 42.1231 28.2377C42.1024 28.269 42.0798 28.3 42.0569 28.3313L42.0559 28.3326C42.0136 28.3901 41.9694 28.4472 41.9201 28.5039C41.9035 28.5231 41.8859 28.5418 41.8683 28.5607C41.8634 28.5659 41.8585 28.5711 41.8537 28.5763C41.7953 28.639 41.7344 28.7013 41.6675 28.7624C41.6553 28.7739 41.6425 28.7849 41.6297 28.796C41.624 28.8009 41.6183 28.8057 41.6127 28.8107C41.5358 28.8782 41.4554 28.9454 41.3687 29.0105C41.3576 29.0189 41.3459 29.027 41.3346 29.035C41.2377 29.1062 41.1365 29.1762 41.0283 29.2437C41.0267 29.2447 41.0252 29.2456 41.0236 29.2465C41.0221 29.2474 41.0205 29.2483 41.019 29.2493C40.5054 29.5686 39.8663 29.8436 39.1283 30.042V30.8764C40.5396 30.5235 41.574 29.8942 42.2057 29.1581C42.2837 29.0696 42.354 28.9783 42.4201 28.8855L42.4203 32.2664C42.4167 32.2841 42.4141 32.3022 42.4121 32.3207C42.3079 33.3098 41.0546 34.3484 39.1283 34.8659V35.6819Z" fill="white"/>
<path fill-rule="evenodd" clip-rule="evenodd" d="M44.1422 35.1691C45.8791 34.6959 47.283 33.7912 47.6925 32.5868V17.3082C46.8218 15.8443 45.5472 14.9945 44.1422 14.5814V35.1691Z" fill="#FF6112"/>
<path fill-rule="evenodd" clip-rule="evenodd" d="M44.1422 35.6819C46.215 35.1466 47.6915 33.9926 47.9185 32.5805C47.9391 32.523 47.9507 32.4566 47.9507 32.3859V27.561V27.36V27.159V22.7362V22.5352V22.3342V17.7104V17.5093C47.9507 17.4362 47.9347 17.3714 47.913 17.3123C47.6902 16.0271 46.3975 14.7575 44.1422 14.1938V15.0268C46.1644 15.5673 47.4342 16.6811 47.4342 17.7104C47.4342 18.7396 46.1644 19.8534 44.1422 20.394V21.2245C44.1572 21.2208 44.1721 21.217 44.187 21.2132C44.2402 21.1995 44.2932 21.1859 44.3453 21.1714C44.4993 21.1288 44.6491 21.0833 44.7934 21.0343C44.8044 21.0306 44.8158 21.0271 44.8272 21.0235C44.8393 21.0198 44.8513 21.0161 44.8629 21.0122C45.0266 20.9551 45.1826 20.8927 45.3337 20.828C45.3625 20.8157 45.3904 20.8029 45.4183 20.7902C45.4312 20.7843 45.4442 20.7784 45.4572 20.7725C45.5711 20.7207 45.6811 20.6672 45.7875 20.6113C45.8012 20.6041 45.8149 20.5969 45.8287 20.5898C45.8531 20.5771 45.8775 20.5645 45.9011 20.5514C46.0349 20.4774 46.1638 20.401 46.2847 20.321C46.2947 20.3145 46.3042 20.3077 46.3137 20.3008C46.3205 20.2959 46.3274 20.2909 46.3345 20.286C46.4386 20.2153 46.5375 20.1429 46.6318 20.0681C46.6641 20.0424 46.6956 20.0166 46.7266 19.9905C46.811 19.9201 46.8913 19.8482 46.9673 19.7742C46.9755 19.7663 46.984 19.7585 46.9924 19.7506C47.0042 19.7398 47.016 19.7289 47.0269 19.7179C47.1176 19.6266 47.2012 19.5334 47.2787 19.4381C47.2898 19.4243 47.3002 19.4105 47.3106 19.3967C47.3184 19.3864 47.3262 19.376 47.3343 19.3657C47.3442 19.3528 47.3544 19.3399 47.3645 19.3271C47.3885 19.2966 47.4124 19.2662 47.4342 19.2354V22.2204C47.4234 22.2779 47.4197 22.3386 47.4262 22.3993C47.4311 22.4443 47.4342 22.4898 47.4342 22.5352C47.4342 22.5955 47.425 22.6561 47.4158 22.7168C47.4151 22.7213 47.4145 22.7257 47.4138 22.7302C47.4066 22.7788 47.3965 22.8271 47.3838 22.8762C47.3735 22.916 47.3609 22.9558 47.3469 22.9956C47.3296 23.045 47.3102 23.0945 47.2873 23.1439C47.2702 23.1813 47.2508 23.2183 47.2307 23.2553C47.202 23.308 47.1715 23.3606 47.1369 23.4129C47.1163 23.4442 47.0937 23.4752 47.0708 23.5065L47.0698 23.5078C47.0274 23.5653 46.9833 23.6224 46.9339 23.6791C46.9173 23.6983 46.8998 23.717 46.8822 23.7359C46.8773 23.741 46.8724 23.7462 46.8676 23.7515C46.8092 23.8142 46.7482 23.8765 46.6814 23.9376C46.6692 23.949 46.6564 23.9601 46.6436 23.9712C46.6379 23.976 46.6322 23.9809 46.6266 23.9859C46.5496 24.0534 46.4693 24.1206 46.3825 24.1857C46.3736 24.1925 46.3643 24.1991 46.355 24.2056C46.3528 24.2071 46.3506 24.2087 46.3485 24.2102C46.2516 24.2814 46.1504 24.3513 46.0421 24.4189C46.0406 24.4199 46.039 24.4208 46.0375 24.4217C46.0359 24.4226 46.0344 24.4235 46.0328 24.4245C45.5193 24.7438 44.8802 25.0188 44.1422 25.2172V26.0516C45.5534 25.6987 46.5879 25.0694 47.2196 24.3332C47.2976 24.2448 47.3678 24.1535 47.4339 24.0606L47.4342 27.0452C47.4234 27.1027 47.4197 27.1634 47.4262 27.2241C47.4311 27.2691 47.4342 27.3146 47.4342 27.36C47.4342 27.4203 47.425 27.481 47.4158 27.5416C47.4151 27.5461 47.4145 27.5506 47.4138 27.555C47.4066 27.6037 47.3965 27.6519 47.3838 27.701C47.3735 27.7408 47.3609 27.7806 47.3469 27.8204C47.3296 27.8698 47.3102 27.9193 47.2873 27.9687C47.2702 28.0061 47.2508 28.0431 47.2307 28.0801C47.202 28.1328 47.1715 28.1855 47.1369 28.2377C47.1163 28.269 47.0937 28.3 47.0708 28.3313L47.0698 28.3326C47.0274 28.3901 46.9833 28.4472 46.9339 28.5039C46.9173 28.5231 46.8998 28.5418 46.8822 28.5607C46.8773 28.5659 46.8724 28.5711 46.8676 28.5763C46.8092 28.639 46.7482 28.7013 46.6814 28.7624C46.6692 28.7739 46.6564 28.7849 46.6436 28.796C46.6379 28.8009 46.6322 28.8057 46.6266 28.8107C46.5496 28.8782 46.4693 28.9454 46.3825 29.0105C46.3736 29.0173 46.3643 29.0239 46.355 29.0304C46.3528 29.0319 46.3506 29.0335 46.3485 29.035C46.2516 29.1062 46.1504 29.1762 46.0421 29.2437C46.0406 29.2447 46.039 29.2456 46.0375 29.2465C46.0359 29.2474 46.0344 29.2483 46.0328 29.2493C45.5193 29.5686 44.8802 29.8436 44.1422 30.042V30.8764C45.5534 30.5235 46.5879 29.8942 47.2196 29.1581C47.2976 29.0696 47.3678 28.9783 47.4339 28.8855L47.4342 32.2664C47.4306 32.2841 47.428 32.3022 47.4259 32.3207C47.3218 33.3098 46.0685 34.3484 44.1422 34.8659V35.6819Z" fill="white"/>
</g>
<defs>
<filter id="filter0_d_668_5" x="0" y="0" width="217" height="50" filterUnits="userSpaceOnUse" color-interpolation-filters="sRGB">
<feFlood flood-opacity="0" result="BackgroundImageFix"/>
<feColorMatrix in="SourceAlpha" type="matrix" values="0 0 0 0 0 0 0 0 0 0 0 0 0 0 0 0 0 0 127 0" result="hardAlpha"/>
<feOffset dx="1" dy="1"/>
<feGaussianBlur stdDeviation="0.5"/>
<feColorMatrix type="matrix" values="0 0 0 0 0 0 0 0 0 0 0 0 0 0 0 0 0 0 0.25 0"/>
<feBlend mode="normal" in2="BackgroundImageFix" result="effect1_dropShadow_668_5"/>
<feBlend mode="normal" in="SourceGraphic" in2="effect1_dropShadow_668_5" result="shape"/>
</filter>
</defs>
</svg>
