<svg width="20" height="21" viewBox="0 0 20 21" fill="none" xmlns="http://www.w3.org/2000/svg">
<path d="M0.307554 9.50891L9.50896 0.307513C9.91902 -0.102504 10.583 -0.102504 10.9931 0.307513C11.4031 0.7172 11.4031 1.38195 10.9931 1.79163L2.53369 10.251L10.993 18.7103C11.403 19.12 11.403 19.7847 10.993 20.1944C10.788 20.3995 10.5196 20.502 10.251 20.502C9.98229 20.502 9.71356 20.3995 9.50891 20.1944L0.307507 10.993C-0.102512 10.5833 -0.10251 9.9186 0.307554 9.50891Z" fill="white"/>
<path d="M9.00696 9.50891L18.2084 0.307513C18.6181 -0.102504 19.2828 -0.102504 19.6925 0.307513C20.1025 0.7172 20.1025 1.38195 19.6925 1.79163L11.2335 10.251L19.6924 18.7103C20.1025 19.12 20.1025 19.7847 19.6924 20.1944C19.4878 20.3995 19.2191 20.502 18.9504 20.502C18.6817 20.502 18.413 20.3995 18.2083 20.1944L9.00692 10.993C8.59695 10.5833 8.59695 9.9186 9.00696 9.50891Z" fill="white"/>
</svg>
