<svg width="21" height="21" viewBox="0 0 21 21" fill="none" xmlns="http://www.w3.org/2000/svg">
<path d="M20.211 9.5089L10.8896 0.307513C10.4742 -0.102504 9.80151 -0.102504 9.38609 0.307513C8.97073 0.717199 8.97073 1.38195 9.38609 1.79163L17.9558 10.251L9.38614 18.7103C8.97078 19.12 8.97078 19.7847 9.38614 20.1944C9.59385 20.3994 9.8657 20.502 10.1379 20.502C10.4101 20.502 10.6823 20.3994 10.8896 20.1944L20.211 10.993C20.6264 10.5833 20.6264 9.91859 20.211 9.5089Z" fill="white"/>
<path d="M11.3981 9.5089L2.07672 0.307513C1.66169 -0.102504 0.988271 -0.102504 0.573242 0.307513C0.157878 0.717199 0.157878 1.38195 0.573242 1.79163L9.14256 10.251L0.57329 18.7103C0.157926 19.12 0.157926 19.7847 0.57329 20.1944C0.780613 20.3994 1.05284 20.502 1.32503 20.502C1.59721 20.502 1.86944 20.3994 2.07677 20.1944L11.3982 10.993C11.8135 10.5833 11.8135 9.91859 11.3981 9.5089Z" fill="white"/>
</svg>
