<svg width="24" height="25" viewBox="0 0 24 25" fill="none" xmlns="http://www.w3.org/2000/svg">
  <path d="M18.3771 8.31726C18.102 8.31726 17.8789 8.09861 17.8789 7.82899V4.49023C17.8789 4.2206 18.102 4.00195 18.3771 4.00195C18.6522 4.00195 18.8752 4.2206 18.8752 4.49023V7.82899C18.8752 8.09861 18.6522 8.31726 18.3771 8.31726Z" fill="white" />
  <path d="M18.3771 3.40723C18.6522 3.40723 18.8752 3.18862 18.8752 2.91895C18.8752 2.64928 18.6522 2.43066 18.3771 2.43066C18.1019 2.43066 17.8789 2.64928 17.8789 2.91895C17.8789 3.18862 18.1019 3.40723 18.3771 3.40723Z" fill="white" />
  <path d="M23.6092 5.12974C23.6092 2.30117 21.2619 0 18.3766 0C17.1823 0 16.0803 0.394238 15.1986 1.05693H2.64111C1.64144 1.05693 0.828125 1.85405 0.828125 2.83394V20.5963C0.828125 21.5761 1.64144 22.3733 2.64111 22.3733H4.22185V23.2229C4.22185 24.2028 5.03516 25 6.03484 25H19.06C20.0597 25 20.873 24.2028 20.873 23.2229V16.4504C20.873 16.1808 20.6499 15.9621 20.3748 15.9621C20.0997 15.9621 19.8767 16.1808 19.8767 16.4504V23.2229C19.8767 23.6643 19.5103 24.0234 19.06 24.0234H6.03484C5.58454 24.0234 5.21819 23.6644 5.21819 23.2229V22.3733H15.6663C16.666 22.3733 17.4794 21.5762 17.4794 20.5963V10.184C17.771 10.2336 18.0707 10.2595 18.3766 10.2595C18.8978 10.2595 19.4014 10.1844 19.8767 10.0447V12.0358C19.8767 12.3054 20.0998 12.5241 20.3749 12.5241C20.65 12.5241 20.873 12.3054 20.873 12.0358V9.63711C22.5017 8.7667 23.6092 7.07266 23.6092 5.12974V5.12974ZM16.483 20.5963C16.483 21.0377 16.1167 21.3968 15.6663 21.3968H2.64111C2.19082 21.3968 1.82446 21.0377 1.82446 20.5963V2.83394C1.82446 2.39258 2.19082 2.0335 2.64111 2.0335H14.2071C13.5818 2.84077 13.1946 3.83442 13.1486 4.91309H4.66527C4.39018 4.91309 4.1671 5.13174 4.1671 5.40137V7.46357C4.1671 7.7332 4.39018 7.95186 4.66527 7.95186H13.6422C13.7554 7.95186 13.8598 7.91479 13.9435 7.85239C14.5386 8.78032 15.4284 9.50918 16.483 9.91191V20.5963ZM13.144 5.88965V6.97529H5.16344V5.88965H13.144ZM18.3766 9.28286C16.0407 9.28286 14.1403 7.41978 14.1403 5.12969C14.1403 2.83965 16.0407 0.976514 18.3766 0.976514C20.7125 0.976514 22.6129 2.8396 22.6129 5.12969C22.6129 7.41978 20.7125 9.28286 18.3766 9.28286Z" fill="white" />
  <path d="M20.374 14.7227C20.1688 14.7227 19.9806 14.5939 19.9083 14.4061C19.834 14.2135 19.8948 13.9869 20.0582 13.8566C20.2218 13.726 20.4574 13.7104 20.6369 13.8195C20.8161 13.9285 20.9078 14.1435 20.8593 14.3451C20.8069 14.5632 20.6029 14.7227 20.374 14.7227Z" fill="white" />
  <path d="M13.6431 10.627H4.66614C4.39105 10.627 4.16797 10.4083 4.16797 10.1387C4.16797 9.86904 4.39105 9.65039 4.66614 9.65039H13.6431C13.9182 9.65039 14.1412 9.86904 14.1412 10.1387C14.1412 10.4083 13.9182 10.627 13.6431 10.627Z" fill="white" />
  <path d="M13.6431 12.9432H4.66614C4.39105 12.9432 4.16797 12.7246 4.16797 12.455C4.16797 12.1854 4.39105 11.9668 4.66614 11.9668H13.6431C13.9182 11.9668 14.1412 12.1854 14.1412 12.455C14.1412 12.7246 13.9182 12.9432 13.6431 12.9432Z" fill="white" />
  <path d="M13.6431 15.2588H4.66614C4.39105 15.2588 4.16797 15.0401 4.16797 14.7705C4.16797 14.5009 4.39105 14.2822 4.66614 14.2822H13.6431C13.9182 14.2822 14.1412 14.5009 14.1412 14.7705C14.1412 15.0402 13.9182 15.2588 13.6431 15.2588Z" fill="white" />
  <path d="M13.6431 17.5742H4.66614C4.39105 17.5742 4.16797 17.3556 4.16797 17.0859C4.16797 16.8163 4.39105 16.5977 4.66614 16.5977H13.6431C13.9182 16.5977 14.1412 16.8163 14.1412 17.0859C14.1412 17.3556 13.9182 17.5742 13.6431 17.5742Z" fill="white" />
</svg>
  