    <svg
      width="24"
      height="24"
      viewBox="0 0 16 16"
      fill="none"
      xmlns="http://www.w3.org/2000/svg"
    >
      <path
        d="M7.97344 14.6443H1.99334C1.62656 14.6443 1.32891 14.3466 1.32891 13.9799V2.01974C1.32891 1.65296 1.62659 1.3553 1.99334 1.3553H7.97344C8.34087 1.3553 8.63787 1.0583 8.63787 0.690867C8.63787 0.32343 8.34087 0.0263672 7.97344 0.0263672H1.99334C0.894344 0.0263672 0 0.920742 0 2.01974V13.9799C0 15.0789 0.894344 15.9732 1.99334 15.9732H7.97344C8.34087 15.9732 8.63787 15.6762 8.63787 15.3088C8.63787 14.9413 8.34087 14.6443 7.97344 14.6443Z"
        fill="white"
      />
      <path
        d="M15.802 7.52713L11.7622 3.54041C11.5017 3.2826 11.0805 3.28594 10.8226 3.54707C10.5648 3.80819 10.5675 4.22879 10.8293 4.4866L13.7163 7.33576H5.98011C5.61267 7.33576 5.31567 7.63276 5.31567 8.00019C5.31567 8.36763 5.61267 8.66466 5.98011 8.66466H13.7163L10.8293 11.5138C10.5675 11.7716 10.5655 12.1922 10.8226 12.4534C10.9529 12.5849 11.1243 12.6514 11.2957 12.6514C11.4645 12.6514 11.6333 12.5876 11.7622 12.46L15.802 8.47326C15.9283 8.34835 16 8.17823 16 8.00016C16 7.82216 15.929 7.65272 15.802 7.52713Z"
        fill="white"
      />
    </svg>