<svg width="26" height="25" viewBox="0 0 26 25" fill="none" xmlns="http://www.w3.org/2000/svg">
  <path fill-rule="evenodd" clip-rule="evenodd" d="M12.649 0C5.664 0 0 5.664 0 12.65c0 5.59 3.624 10.33 8.651 12.004.633.116.864-.275.864-.61 0-.3-.011-1.096-.018-2.151-3.518.764-4.26-1.696-4.26-1.696-.576-1.461-1.405-1.85-1.405-1.85-1.149-.785.087-.77.087-.77 1.27.09 1.937 1.304 1.937 1.304 1.128 1.933 2.961 1.375 3.682 1.052.115-.818.441-1.376.803-1.692-2.809-.319-5.762-1.405-5.762-6.252 0-1.38.493-2.51 1.302-3.394-.13-.32-.565-1.606.123-3.348 0 0 1.063-.34 3.48 1.297 1.008-.28 2.09-.421 3.166-.426 1.074.005 2.157.145 3.167.426 2.415-1.637 3.475-1.297 3.475-1.297.69 1.742.257 3.028.126 3.348.811.884 1.301 2.013 1.301 3.394 0 4.86-2.958 5.93-5.776 6.242.454.39.859 1.163.859 2.343 0 1.69-.016 3.055-.016 3.47 0 .338.228.732.87.609 5.023-1.677 8.644-6.415 8.644-12.002C25.3 5.664 19.636 0 12.649 0Z" fill="#fff" />
</svg>