<svg width="62" height="47" viewBox="0 0 62 47" fill="none" xmlns="http://www.w3.org/2000/svg">
<path d="M36.5182 10.0273C27.6546 0.454555 3.54551 5.77274 2.48189 10.0273V36.9727C8.1546 44.7727 33.3273 43 36.5182 36.9727V10.0273Z" fill="#FF6112"/>
<path d="M37.1237 10.0344C36.3026 6.99236 30.191 4 19.5 4C8.80904 4 2.69668 6.99236 1.87626 10.0344C1.8167 10.1386 1.77274 10.2528 1.77274 10.3818V10.7364V18.8909V19.2455V19.6V27.4V27.7545V28.1091V36.6182C1.77274 36.7331 1.80323 36.8415 1.8557 36.938C2.69314 40.409 10.1854 43 19.5 43C28.7933 43 36.2736 40.4196 37.1386 36.9614C37.1954 36.86 37.2273 36.743 37.2273 36.6182V28.1091V27.7545V27.4V19.6V19.2455V18.8909V10.7364V10.3818C37.2273 10.2528 37.1833 10.1386 37.1237 10.0344ZM35.7531 28.0985C35.7332 28.1843 35.7056 28.2693 35.6708 28.3559C35.6425 28.4261 35.6077 28.4963 35.5694 28.5665C35.5219 28.6537 35.4687 28.7409 35.4056 28.8281C35.3588 28.8941 35.3056 28.9593 35.2503 29.0245C35.1716 29.1174 35.0879 29.2103 34.9929 29.3025C34.9355 29.3585 34.8724 29.4138 34.8086 29.4698C34.6923 29.5712 34.571 29.6719 34.4356 29.7719C34.3774 29.8152 34.315 29.857 34.2533 29.8995C34.0931 30.0102 33.9258 30.1201 33.7421 30.2279C33.6939 30.2569 33.6421 30.2846 33.5918 30.3129C33.3805 30.4321 33.1599 30.5505 32.9217 30.6654C32.8912 30.6803 32.8593 30.6944 32.8281 30.7086C32.5622 30.8341 32.2842 30.9575 31.9871 31.0766C31.9786 31.0802 31.9701 31.083 31.9616 31.0866C30.3512 31.7297 28.2913 32.2707 25.891 32.6253C25.879 32.6267 25.8669 32.6281 25.8549 32.6303C25.3883 32.699 24.9097 32.76 24.4183 32.8139C24.3381 32.8224 24.2537 32.8281 24.1729 32.8366C23.7439 32.8813 23.31 32.9224 22.8632 32.955C22.659 32.9699 22.4449 32.977 22.2371 32.9898C21.901 33.0096 21.5684 33.0316 21.2238 33.0437C20.6608 33.0614 20.0864 33.0727 19.5 33.0727C18.9136 33.0727 18.3392 33.0614 17.7755 33.0415C17.4309 33.0295 17.0983 33.0068 16.7622 32.9876C16.5544 32.9756 16.3403 32.9678 16.1361 32.9529C15.6894 32.9203 15.2554 32.8791 14.8264 32.8345C14.7456 32.826 14.6612 32.8203 14.581 32.8118C14.0896 32.7579 13.611 32.6962 13.1444 32.6281C13.1324 32.6267 13.1203 32.6253 13.1083 32.6232C10.708 32.2686 8.64808 31.7276 7.03773 31.0844C7.02923 31.0816 7.02072 31.0781 7.01221 31.0745C6.7151 30.9554 6.43643 30.832 6.17123 30.7065C6.14074 30.6916 6.10812 30.6774 6.07763 30.6632C5.83937 30.5484 5.61884 30.4307 5.40754 30.3108C5.3579 30.2825 5.30543 30.2548 5.25721 30.2257C5.07355 30.1179 4.90621 30.008 4.74595 29.8974C4.68497 29.8549 4.62186 29.813 4.56372 29.7698C4.42828 29.6698 4.30703 29.5691 4.19074 29.4677C4.12763 29.4124 4.06381 29.3571 4.00637 29.3004C3.91135 29.2082 3.82768 29.116 3.74897 29.0224C3.69366 28.9572 3.64048 28.8919 3.59368 28.826C3.53128 28.7388 3.4781 28.6515 3.42988 28.5643C3.39159 28.4941 3.35755 28.4239 3.32848 28.3537C3.29374 28.2679 3.26608 28.1821 3.24623 28.0963C3.21999 27.9836 3.19092 27.8687 3.19092 27.7545C3.19092 27.6744 3.20014 27.5943 3.2129 27.5149C3.23063 27.4078 3.2207 27.3007 3.19092 27.1993V21.935C3.21077 21.9535 3.23559 21.9712 3.25615 21.9896C3.41074 22.1258 3.56815 22.2612 3.74543 22.3917C6.41657 24.4119 11.7582 25.9818 19.5 25.9818C27.2092 25.9818 32.5373 24.4247 35.2198 22.4165C35.434 22.2605 35.6269 22.0995 35.8084 21.9357L35.8091 27.1993C35.7793 27.3007 35.7694 27.4078 35.7871 27.5149C35.8006 27.5943 35.8091 27.6744 35.8091 27.7545C35.8091 27.8687 35.78 27.9836 35.7531 28.0985ZM35.8091 13.4259V18.6902C35.7793 18.7916 35.7694 18.8987 35.7871 19.0058C35.8006 19.0852 35.8091 19.1653 35.8091 19.2455C35.8091 19.3596 35.78 19.4745 35.7531 19.5894C35.7332 19.6752 35.7056 19.7603 35.6708 19.8468C35.6425 19.917 35.6077 19.9872 35.5694 20.0574C35.5219 20.1446 35.4687 20.2318 35.4056 20.319C35.3588 20.385 35.3056 20.4502 35.2503 20.5154C35.1716 20.6083 35.0879 20.7012 34.9929 20.7934C34.9355 20.8494 34.8724 20.9047 34.8086 20.9607C34.6923 21.0621 34.571 21.1628 34.4356 21.2628C34.3774 21.3061 34.315 21.3479 34.2533 21.3905C34.0931 21.5011 33.9258 21.611 33.7421 21.7188C33.6939 21.7478 33.6421 21.7755 33.5918 21.8039C33.3805 21.923 33.1599 22.0414 32.9217 22.1563C32.8912 22.1712 32.8593 22.1853 32.8281 22.1995C32.5622 22.325 32.2842 22.4484 31.9871 22.5675C31.9786 22.5711 31.9701 22.5739 31.9616 22.5775C30.3512 23.2206 28.2913 23.7617 25.891 24.1162C25.879 24.1176 25.8669 24.119 25.8549 24.1212C25.3883 24.1899 24.9097 24.2509 24.4183 24.3048C24.3381 24.3133 24.2537 24.319 24.1729 24.3275C23.7439 24.3722 23.31 24.4133 22.8632 24.4459C22.659 24.4608 22.4449 24.4679 22.2371 24.4807C21.901 24.5005 21.5684 24.5225 21.2238 24.5346C20.6608 24.5523 20.0864 24.5636 19.5 24.5636C18.9136 24.5636 18.3392 24.5523 17.7755 24.5324C17.4309 24.5204 17.0983 24.4977 16.7622 24.4785C16.5544 24.4665 16.3403 24.4587 16.1361 24.4438C15.6894 24.4112 15.2554 24.3701 14.8264 24.3254C14.7456 24.3169 14.6612 24.3112 14.581 24.3027C14.0896 24.2488 13.611 24.1871 13.1444 24.119C13.1324 24.1176 13.1203 24.1162 13.1083 24.1141C10.708 23.7595 8.64808 23.2185 7.03773 22.5753C7.02923 22.5725 7.02072 22.569 7.01221 22.5654C6.7151 22.4463 6.43643 22.3229 6.17123 22.1974C6.14074 22.1825 6.10812 22.1683 6.07763 22.1541C5.83937 22.0393 5.61884 21.9216 5.40754 21.8017C5.3579 21.7734 5.30543 21.7457 5.25721 21.7166C5.07355 21.6089 4.90621 21.4989 4.74595 21.3883C4.68497 21.3458 4.62186 21.3039 4.56372 21.2607C4.42828 21.1607 4.30703 21.06 4.19074 20.9586C4.12763 20.9033 4.06381 20.848 4.00637 20.7913C3.91135 20.6991 3.82768 20.6069 3.74897 20.5133C3.69366 20.4481 3.64048 20.3828 3.59368 20.3169C3.53128 20.2297 3.4781 20.1425 3.42988 20.0552C3.39159 19.985 3.35755 19.9148 3.32848 19.8446C3.29374 19.7588 3.26608 19.673 3.24623 19.5872C3.21999 19.4745 3.19092 19.3596 3.19092 19.2455C3.19092 19.1653 3.20014 19.0852 3.2129 19.0058C3.23063 18.8987 3.2207 18.7916 3.19092 18.6902V13.4259C3.27601 13.5032 3.37315 13.5791 3.46534 13.6557C3.51639 13.6982 3.5639 13.7408 3.61779 13.7833C3.83052 13.9507 4.06026 14.1159 4.30915 14.2769C4.36092 14.3102 4.41906 14.3428 4.47295 14.3761C4.68143 14.5059 4.90195 14.6328 5.13383 14.7576C5.21963 14.8037 5.30543 14.8491 5.39406 14.8945C5.65288 15.0264 5.92446 15.1547 6.21023 15.2788C6.25703 15.2994 6.29957 15.3206 6.34708 15.3405C6.67964 15.4816 7.03277 15.6163 7.40008 15.7468C7.50148 15.783 7.60784 15.817 7.71208 15.8525C8.00423 15.951 8.3063 16.0453 8.61901 16.1368C8.73175 16.1694 8.84237 16.2035 8.95795 16.2347C9.37277 16.3495 9.80106 16.4587 10.2506 16.5594C10.3123 16.5736 10.379 16.5849 10.4414 16.5984C10.8378 16.6849 11.249 16.7651 11.6716 16.8402C11.8149 16.8657 11.9602 16.8899 12.1063 16.914C12.5084 16.9799 12.9225 17.0402 13.3472 17.0955C13.4564 17.1097 13.5607 17.126 13.6713 17.1395C14.1988 17.2033 14.7448 17.2579 15.3057 17.3047C15.444 17.316 15.588 17.3245 15.7284 17.3345C16.1772 17.3671 16.636 17.394 17.1054 17.4153C17.2763 17.4231 17.4465 17.4309 17.6209 17.4373C18.2322 17.4578 18.8547 17.4727 19.5 17.4727C20.1453 17.4727 20.7679 17.4578 21.3791 17.4373C21.5528 17.4309 21.723 17.4231 21.8946 17.4153C22.364 17.394 22.8228 17.3671 23.2717 17.3345C23.4121 17.3238 23.5553 17.316 23.6943 17.3047C24.2552 17.2586 24.8012 17.2033 25.3287 17.1395C25.4394 17.126 25.5436 17.1097 25.6528 17.0955C26.0775 17.0402 26.4909 16.9799 26.8937 16.914C27.0398 16.8899 27.1851 16.8657 27.3284 16.8402C27.751 16.7651 28.1623 16.6849 28.5586 16.5984C28.621 16.5849 28.6877 16.5729 28.7494 16.5594C29.1989 16.4587 29.6272 16.3488 30.0421 16.2347C30.1576 16.2027 30.2683 16.1694 30.381 16.1368C30.6937 16.0453 30.9958 15.951 31.2879 15.8525C31.3922 15.817 31.4985 15.783 31.5999 15.7468C31.9672 15.6163 32.3211 15.4816 32.6529 15.3405C32.7004 15.3206 32.743 15.2994 32.7898 15.2788C33.0756 15.154 33.3471 15.0264 33.606 14.8945C33.6946 14.8491 33.7811 14.8037 33.8662 14.7576C34.0981 14.6335 34.3186 14.5066 34.5271 14.3761C34.581 14.3428 34.6391 14.3102 34.6909 14.2769C34.9398 14.1159 35.1695 13.9514 35.3822 13.7833C35.4354 13.7408 35.4829 13.6982 35.5347 13.6557C35.6269 13.5791 35.724 13.5032 35.8091 13.4259ZM19.5 5.41818C29.1117 5.41818 35.8091 8.22051 35.8091 10.7364C35.8091 13.2522 29.1117 16.0545 19.5 16.0545C9.88828 16.0545 3.19092 13.2522 3.19092 10.7364C3.19092 8.22051 9.88828 5.41818 19.5 5.41818ZM35.8091 36.4076C35.7992 36.4388 35.7921 36.4707 35.7864 36.5033C35.3843 38.9561 28.7437 41.5818 19.5 41.5818C10.2563 41.5818 3.61566 38.9561 3.21361 36.5033C3.20794 36.4714 3.20014 36.4402 3.19092 36.4104V30.4441C3.21077 30.4626 3.23559 30.4803 3.25615 30.4987C3.41074 30.6349 3.56815 30.7703 3.74543 30.9008C6.41657 32.921 11.7582 34.4909 19.5 34.4909C27.2092 34.4909 32.5373 32.9337 35.2198 30.9256C35.434 30.7696 35.6269 30.6086 35.8084 30.4448L35.8091 36.4076Z" fill="white"/>
<path fill-rule="evenodd" clip-rule="evenodd" d="M39.186 40.0248C42.0085 39.2559 44.2898 37.7856 44.9553 35.8285V11.0008C43.5404 8.62185 41.4691 7.24099 39.186 6.56979V40.0248Z" fill="#FF6112"/>
<path fill-rule="evenodd" clip-rule="evenodd" d="M39.186 40.8581C42.5543 39.9882 44.9536 38.113 45.3224 35.8182C45.3559 35.7248 45.3748 35.617 45.3748 35.502V27.6617V27.335V27.0083V19.8214V19.4947V19.168V11.6544V11.3277C45.3748 11.2088 45.3488 11.1036 45.3136 11.0075C44.9514 8.91905 42.8509 6.85596 39.186 5.93993V7.29349C42.472 8.1719 44.5355 9.98183 44.5355 11.6544C44.5355 13.3269 42.472 15.1368 39.186 16.0152V17.3648C39.2103 17.3587 39.2346 17.3526 39.2588 17.3464C39.3452 17.3242 39.4313 17.302 39.516 17.2785C39.7662 17.2092 40.0096 17.1354 40.2442 17.0557C40.2621 17.0497 40.2806 17.044 40.2991 17.0383C40.3187 17.0322 40.3383 17.0262 40.3571 17.0198C40.6232 16.927 40.8767 16.8257 41.1222 16.7205C41.1689 16.7004 41.2143 16.6797 41.2596 16.659C41.2806 16.6495 41.3016 16.6399 41.3228 16.6304C41.5079 16.5461 41.6866 16.4592 41.8596 16.3684C41.8818 16.3566 41.9041 16.345 41.9265 16.3334C41.9662 16.3129 42.0058 16.2923 42.0442 16.271C42.2616 16.1508 42.471 16.0266 42.6675 15.8966C42.6838 15.886 42.6991 15.8749 42.7146 15.8638C42.7257 15.8558 42.7368 15.8477 42.7485 15.8398C42.9176 15.7248 43.0783 15.6072 43.2315 15.4857C43.284 15.4439 43.3352 15.402 43.3855 15.3596C43.5228 15.2452 43.6533 15.1283 43.7767 15.0081C43.79 14.9952 43.8038 14.9825 43.8176 14.9698C43.8367 14.9521 43.8558 14.9345 43.8736 14.9166C44.0209 14.7683 44.1569 14.6167 44.2828 14.4619C44.3008 14.4394 44.3177 14.417 44.3346 14.3946C44.3472 14.3778 44.3599 14.361 44.373 14.3442C44.3893 14.3233 44.4057 14.3024 44.4222 14.2815C44.4611 14.232 44.5001 14.1826 44.5355 14.1326V18.9831C44.5178 19.0765 44.512 19.1752 44.5225 19.2738C44.5304 19.347 44.5355 19.4209 44.5355 19.4947C44.5355 19.5927 44.5205 19.6912 44.5056 19.7898C44.5045 19.7971 44.5034 19.8043 44.5023 19.8116C44.4906 19.8906 44.4742 19.969 44.4536 20.0487C44.4368 20.1134 44.4163 20.1781 44.3936 20.2428C44.3655 20.3231 44.334 20.4035 44.2967 20.4839C44.269 20.5446 44.2375 20.6047 44.2048 20.6649C44.1582 20.7504 44.1086 20.836 44.0524 20.921C44.0189 20.9719 43.9821 21.0221 43.9449 21.073L43.9433 21.0752C43.8745 21.1686 43.8027 21.2614 43.7225 21.3535C43.6956 21.3847 43.667 21.4152 43.6384 21.4457C43.6305 21.4542 43.6226 21.4626 43.6147 21.4711C43.5198 21.573 43.4208 21.6743 43.3121 21.7736C43.2923 21.7922 43.2715 21.8101 43.2507 21.8281C43.2415 21.8361 43.2322 21.844 43.2231 21.852C43.098 21.9618 42.9675 22.0709 42.8265 22.1767C42.8119 22.1878 42.7968 22.1985 42.7818 22.209C42.7782 22.2116 42.7747 22.2141 42.7711 22.2166C42.6137 22.3322 42.4492 22.4459 42.2734 22.5557C42.2709 22.5573 42.2683 22.5588 42.2658 22.5602C42.2633 22.5617 42.2608 22.5632 42.2583 22.5648C41.4237 23.0837 40.3852 23.5305 39.186 23.8529V25.2088C41.4792 24.6354 43.1602 23.6128 44.1867 22.4165C44.3135 22.2728 44.4276 22.1245 44.535 21.9735L44.5355 26.8234C44.5178 26.9169 44.512 27.0155 44.5225 27.1142C44.5304 27.1873 44.5355 27.2612 44.5355 27.335C44.5355 27.433 44.5205 27.5315 44.5056 27.6301C44.5045 27.6374 44.5034 27.6446 44.5023 27.6519C44.4906 27.7309 44.4742 27.8093 44.4536 27.8891C44.4368 27.9537 44.4163 28.0184 44.3936 28.0831C44.3655 28.1635 44.334 28.2438 44.2967 28.3242C44.269 28.385 44.2375 28.4451 44.2048 28.5052C44.1582 28.5908 44.1086 28.6764 44.0524 28.7613C44.0189 28.8122 43.9821 28.8624 43.9449 28.9133L43.9433 28.9155C43.8745 29.0089 43.8027 29.1017 43.7225 29.1938C43.6956 29.2251 43.667 29.2555 43.6384 29.2861C43.6305 29.2945 43.6226 29.3029 43.6147 29.3114C43.5198 29.4133 43.4208 29.5146 43.3121 29.6139C43.2923 29.6325 43.2715 29.6505 43.2507 29.6684C43.2414 29.6764 43.2322 29.6843 43.2231 29.6923C43.098 29.8021 42.9675 29.9112 42.8265 30.0171C42.8119 30.0281 42.7968 30.0388 42.7818 30.0494C42.7782 30.0519 42.7747 30.0544 42.7711 30.0569C42.6137 30.1726 42.4492 30.2862 42.2734 30.396C42.2708 30.3976 42.2683 30.3991 42.2658 30.4006C42.2633 30.4021 42.2608 30.4035 42.2583 30.4052C41.4237 30.924 40.3852 31.3708 39.186 31.6932V33.0492C41.4792 32.4757 43.1602 31.4531 44.1867 30.2568C44.3135 30.1131 44.4276 29.9648 44.535 29.8139L44.5355 35.308C44.5296 35.3367 44.5254 35.3661 44.522 35.3962C44.3528 37.0034 42.3162 38.6912 39.186 39.5321V40.8581Z" fill="white"/>
<path fill-rule="evenodd" clip-rule="evenodd" d="M47.3336 40.0248C50.156 39.2559 52.4373 37.7856 53.1028 35.8285V11.0008C51.6879 8.62185 49.6166 7.24099 47.3336 6.56979V40.0248Z" fill="#FF6112"/>
<path fill-rule="evenodd" clip-rule="evenodd" d="M47.3335 40.8581C50.7019 39.9883 53.1012 38.113 53.4699 35.8183C53.5035 35.7248 53.5224 35.617 53.5224 35.502V27.6617V27.335V27.0083V19.8214V19.4947V19.168V11.6544V11.3277C53.5224 11.2088 53.4964 11.1036 53.4611 11.0075C53.099 8.91905 50.9984 6.85595 47.3335 5.93993V7.29349C50.6195 8.17189 52.683 9.98184 52.683 11.6544C52.683 13.3269 50.6195 15.1369 47.3335 16.0153V17.3648C47.3579 17.3587 47.3821 17.3526 47.4064 17.3464C47.4928 17.3242 47.5788 17.302 47.6636 17.2785C47.9138 17.2092 48.1572 17.1354 48.3918 17.0557C48.4097 17.0497 48.4282 17.044 48.4467 17.0383C48.4663 17.0322 48.4859 17.0262 48.5047 17.0198C48.7707 16.927 49.0242 16.8257 49.2697 16.7205C49.3165 16.7004 49.3619 16.6797 49.4072 16.6591C49.4282 16.6495 49.4492 16.6399 49.4704 16.6304C49.6554 16.5461 49.8342 16.4592 50.0071 16.3684C50.0293 16.3566 50.0517 16.345 50.0741 16.3334C50.1138 16.3129 50.1534 16.2923 50.1918 16.271C50.4092 16.1508 50.6186 16.0267 50.815 15.8966C50.8314 15.886 50.8467 15.8749 50.8621 15.8638C50.8733 15.8558 50.8844 15.8477 50.896 15.8398C51.0652 15.7248 51.2259 15.6072 51.3791 15.4857C51.4315 15.4439 51.4827 15.402 51.5331 15.3596C51.6703 15.2452 51.8009 15.1283 51.9243 15.0081C51.9376 14.9952 51.9514 14.9825 51.9651 14.9698C51.9843 14.9521 52.0034 14.9345 52.0212 14.9166C52.1685 14.7683 52.3045 14.6167 52.4304 14.4619C52.4484 14.4395 52.4653 14.4171 52.4822 14.3947C52.4948 14.3779 52.5075 14.3611 52.5206 14.3443C52.5368 14.3233 52.5533 14.3024 52.5698 14.2815C52.6087 14.232 52.6476 14.1826 52.683 14.1326V18.9831C52.6654 19.0765 52.6595 19.1752 52.67 19.2739C52.678 19.347 52.683 19.4209 52.683 19.4947C52.683 19.5927 52.6681 19.6912 52.6532 19.7898C52.6521 19.7971 52.651 19.8043 52.6499 19.8116C52.6381 19.8906 52.6218 19.969 52.6012 20.0487C52.5844 20.1134 52.5638 20.1781 52.5412 20.2428C52.5131 20.3232 52.4816 20.4035 52.4442 20.4839C52.4165 20.5446 52.3851 20.6048 52.3523 20.6649C52.3057 20.7505 52.2562 20.836 52.2 20.921C52.1665 20.9719 52.1297 21.0221 52.0925 21.073L52.0909 21.0752C52.022 21.1686 51.9503 21.2614 51.8701 21.3535C51.8431 21.3847 51.8146 21.4152 51.786 21.4458C51.7781 21.4542 51.7701 21.4626 51.7623 21.4711C51.6674 21.573 51.5684 21.6743 51.4597 21.7736C51.4399 21.7922 51.4191 21.8101 51.3982 21.8281C51.389 21.8361 51.3798 21.844 51.3707 21.852C51.2456 21.9618 51.1151 22.0709 50.9741 22.1767C50.9595 22.1878 50.9444 22.1985 50.9294 22.2091C50.9258 22.2116 50.9222 22.2141 50.9187 22.2166C50.7613 22.3322 50.5968 22.4459 50.4209 22.5557C50.4184 22.5573 50.4159 22.5588 50.4134 22.5603C50.4109 22.5617 50.4084 22.5632 50.4058 22.5648C49.5713 23.0837 48.5327 23.5305 47.3335 23.8529V25.2089C49.6268 24.6354 51.3078 23.6128 52.3343 22.4165C52.461 22.2728 52.5752 22.1245 52.6826 21.9735L52.683 26.8234C52.6654 26.9169 52.6595 27.0155 52.67 27.1142C52.678 27.1874 52.683 27.2612 52.683 27.335C52.683 27.433 52.6681 27.5316 52.6532 27.6301C52.6521 27.6374 52.651 27.6446 52.6499 27.6519C52.6381 27.731 52.6218 27.8094 52.6012 27.8891C52.5844 27.9538 52.5638 28.0184 52.5412 28.0831C52.5131 28.1635 52.4816 28.2438 52.4442 28.3242C52.4165 28.385 52.3851 28.4451 52.3523 28.5052C52.3057 28.5908 52.2562 28.6764 52.2 28.7613C52.1665 28.8122 52.1297 28.8624 52.0925 28.9133L52.0909 28.9155C52.022 29.0089 51.9503 29.1017 51.8701 29.1938C51.8431 29.2251 51.8146 29.2555 51.786 29.2861C51.7781 29.2945 51.7701 29.303 51.7623 29.3114C51.6674 29.4134 51.5684 29.5146 51.4597 29.6139C51.4399 29.6325 51.4191 29.6505 51.3982 29.6684C51.389 29.6764 51.3798 29.6843 51.3707 29.6923C51.2456 29.8021 51.1151 29.9112 50.9741 30.0171C50.9595 30.0281 50.9444 30.0388 50.9294 30.0494C50.9258 30.0519 50.9222 30.0544 50.9187 30.0569C50.7613 30.1726 50.5968 30.2862 50.4209 30.396C50.4184 30.3976 50.4159 30.3991 50.4134 30.4006C50.4109 30.4021 50.4084 30.4035 50.4058 30.4052C49.5713 30.9241 48.5327 31.3708 47.3335 31.6932V33.0492C49.6268 32.4757 51.3078 31.4531 52.3343 30.2568C52.461 30.1131 52.5752 29.9648 52.6826 29.8139L52.683 35.308C52.6772 35.3367 52.673 35.3661 52.6696 35.3962C52.5004 37.0034 50.4637 38.6912 47.3335 39.5322V40.8581Z" fill="white"/>
<path fill-rule="evenodd" clip-rule="evenodd" d="M55.481 40.0248C58.3035 39.2559 60.5848 37.7856 61.2503 35.8285V11.0008C59.8354 8.62185 57.7641 7.24098 55.481 6.56979V40.0248Z" fill="#FF6112"/>
<path fill-rule="evenodd" clip-rule="evenodd" d="M55.4811 40.8581C58.8495 39.9883 61.2488 38.113 61.6175 35.8182C61.6511 35.7248 61.67 35.617 61.67 35.502V27.6617V27.335V27.0083V19.8214V19.4947V19.168V11.6544V11.3277C61.67 11.2088 61.6439 11.1036 61.6087 11.0075C61.2466 8.91905 59.146 6.85596 55.4811 5.93993V7.29349C58.7671 8.17189 60.8306 9.98183 60.8306 11.6544C60.8306 13.3269 58.7671 15.1368 55.4811 16.0152V17.3648C55.5054 17.3587 55.5297 17.3526 55.5539 17.3464C55.6404 17.3242 55.7264 17.302 55.8112 17.2785C56.0613 17.2092 56.3047 17.1354 56.5393 17.0557C56.5572 17.0497 56.5757 17.044 56.5942 17.0383C56.6138 17.0322 56.6334 17.0262 56.6522 17.0198C56.9183 16.927 57.1718 16.8257 57.4173 16.7205C57.464 16.7004 57.5094 16.6797 57.5547 16.6591C57.5758 16.6495 57.5968 16.6399 57.6179 16.6304C57.803 16.5461 57.9818 16.4592 58.1547 16.3684C58.1769 16.3566 58.1993 16.345 58.2216 16.3334C58.2613 16.3129 58.3009 16.2923 58.3393 16.271C58.5567 16.1508 58.7662 16.0267 58.9626 15.8966C58.9789 15.886 58.9943 15.8749 59.0097 15.8638C59.0208 15.8558 59.032 15.8477 59.0436 15.8398C59.2127 15.7248 59.3734 15.6072 59.5266 15.4857C59.5791 15.4439 59.6303 15.402 59.6807 15.3596C59.8179 15.2452 59.9484 15.1283 60.0718 15.0081C60.0851 14.9952 60.0989 14.9825 60.1127 14.9698C60.1318 14.9521 60.1509 14.9345 60.1687 14.9166C60.3161 14.7683 60.452 14.6167 60.5779 14.4619C60.5959 14.4395 60.6128 14.4171 60.6297 14.3947C60.6424 14.3779 60.655 14.3611 60.6682 14.3443C60.6844 14.3233 60.7009 14.3024 60.7173 14.2815C60.7563 14.232 60.7952 14.1826 60.8306 14.1326V18.9831C60.813 19.0765 60.8071 19.1752 60.8176 19.2739C60.8256 19.347 60.8306 19.4209 60.8306 19.4947C60.8306 19.5927 60.8157 19.6912 60.8007 19.7898C60.7996 19.7971 60.7985 19.8043 60.7974 19.8116C60.7857 19.8906 60.7693 19.969 60.7487 20.0487C60.732 20.1134 60.7114 20.1781 60.6887 20.2428C60.6606 20.3232 60.6291 20.4035 60.5918 20.4839C60.5641 20.5446 60.5326 20.6047 60.4999 20.6649C60.4533 20.7504 60.4038 20.836 60.3475 20.921C60.314 20.9719 60.2772 21.0221 60.24 21.073L60.2384 21.0752C60.1696 21.1686 60.0978 21.2614 60.0177 21.3535C59.9907 21.3847 59.9622 21.4152 59.9335 21.4458C59.9256 21.4542 59.9177 21.4626 59.9098 21.4711C59.815 21.573 59.7159 21.6743 59.6072 21.7736C59.5874 21.7922 59.5666 21.8101 59.5458 21.8281C59.5366 21.8361 59.5274 21.844 59.5182 21.852C59.3932 21.9618 59.2627 22.0709 59.1216 22.1767C59.1071 22.1878 59.0919 22.1985 59.0769 22.2091C59.0733 22.2116 59.0698 22.2141 59.0662 22.2166C58.9089 22.3322 58.7443 22.4459 58.5685 22.5557C58.566 22.5573 58.5635 22.5588 58.561 22.5602C58.5584 22.5617 58.5559 22.5632 58.5534 22.5648C57.7188 23.0837 56.6803 23.5305 55.4811 23.8529V25.2089C57.7743 24.6354 59.4553 23.6128 60.4818 22.4165C60.6086 22.2728 60.7227 22.1245 60.8302 21.9735L60.8306 26.8234C60.813 26.9169 60.8071 27.0155 60.8176 27.1142C60.8256 27.1874 60.8306 27.2612 60.8306 27.335C60.8306 27.433 60.8157 27.5316 60.8007 27.6301C60.7996 27.6374 60.7985 27.6446 60.7974 27.6519C60.7857 27.7309 60.7693 27.8094 60.7487 27.8891C60.732 27.9537 60.7114 28.0184 60.6887 28.0831C60.6606 28.1635 60.6291 28.2438 60.5918 28.3242C60.5641 28.385 60.5326 28.4451 60.4999 28.5052C60.4533 28.5908 60.4038 28.6764 60.3475 28.7613C60.314 28.8122 60.2773 28.8624 60.24 28.9133L60.2384 28.9155C60.1696 29.0089 60.0978 29.1017 60.0177 29.1938C59.9907 29.2251 59.9622 29.2555 59.9335 29.2861C59.9256 29.2945 59.9177 29.303 59.9098 29.3114C59.815 29.4134 59.7159 29.5146 59.6072 29.6139C59.5874 29.6325 59.5666 29.6505 59.5458 29.6684C59.5366 29.6764 59.5274 29.6843 59.5182 29.6923C59.3932 29.8021 59.2627 29.9112 59.1216 30.0171C59.1071 30.0281 59.0919 30.0388 59.0769 30.0494C59.0733 30.0519 59.0698 30.0544 59.0662 30.0569C58.9089 30.1726 58.7443 30.2862 58.5685 30.396C58.5635 30.3993 58.5584 30.4019 58.5534 30.4052C57.7188 30.924 56.6803 31.3708 55.4811 31.6932V33.0492C57.7743 32.4757 59.4553 31.4531 60.4818 30.2568C60.6086 30.1131 60.7227 29.9648 60.8302 29.8139L60.8306 35.308C60.8247 35.3367 60.8205 35.3661 60.8172 35.3962C60.6479 37.0034 58.6113 38.6912 55.4811 39.5322V40.8581Z" fill="white"/>
</svg>
