<?xml version="1.0" encoding="utf-8"?>
<!-- Svg Vector Icons : http://www.onlinewebfonts.com/icon -->
<!DOCTYPE svg PUBLIC "-//W3C//DTD SVG 1.1//EN" "http://www.w3.org/Graphics/SVG/1.1/DTD/svg11.dtd">
<svg version="1.1" xmlns="http://www.w3.org/2000/svg" xmlns:xlink="http://www.w3.org/1999/xlink" x="0px" y="0px" viewBox="0 0 256 256" enable-background="new 0 0 256 256" xml:space="preserve">
<metadata> Svg Vector Icons : http://www.onlinewebfonts.com/icon </metadata>
<g><g><path fill="#000000" d="M182.2,79.5h-49.2v43.2h55.6C188.1,107.2,185.9,92.6,182.2,79.5z"/><path fill="#000000" d="M132.9,235.9c19.8-2.9,36.8-22.7,46.7-51.3h-46.7V235.9z"/><path fill="#000000" d="M132.9,20.3v48.5h45.8C168.7,41.6,152.1,23.1,132.9,20.3z"/><path fill="#000000" d="M123.1,133.5H67.5c0.4,15.8,2.7,30.7,6.6,44h49L123.1,133.5L123.1,133.5z"/><path fill="#000000" d="M188.6,133.5h-55.6v44h49C185.8,164.2,188.1,149.3,188.6,133.5z"/><path fill="#000000" d="M192.1,177.5h43.2c6.3-13.5,10-28.3,10.7-44h-47.6C198,149.1,195.8,164,192.1,177.5z"/><path fill="#000000" d="M67,68.7c12.3-35.1,35-58.8,61-58.8s48.7,23.7,60.9,58.8h41.3c-20.5-35.2-58.6-59-102.2-59c-43.6,0-81.7,23.8-102.2,59H67z"/><path fill="#000000" d="M192.3,79.5c3.6,13.3,5.7,27.9,6.2,43.2H246c-0.7-15.3-4.2-29.9-10.3-43.2H192.3z"/><path fill="#000000" d="M66,184.7H24.2c20.1,36.7,59.1,61.6,103.8,61.6C101.3,246.3,78,221.3,66,184.7z"/><path fill="#000000" d="M190,184.7c-12,36.7-35.3,61.6-62,61.6c44.7,0,83.7-24.9,103.8-61.6H190z"/><path fill="#000000" d="M20.3,79.5c-6,13.3-9.6,27.9-10.3,43.2h47.6c0.4-15.4,2.6-29.9,6.2-43.2H20.3z"/><path fill="#000000" d="M123.1,20.3C103.9,23,87.3,41.6,77.3,68.7h45.8V20.3z"/><path fill="#000000" d="M123.1,79.5H73.8c-3.7,13.1-5.9,27.7-6.4,43.2h55.6V79.5L123.1,79.5z"/><path fill="#000000" d="M123.1,235.9v-51.3H76.3C86.2,213.3,103.3,233.1,123.1,235.9z"/><path fill="#000000" d="M57.6,133.5H10c0.7,15.7,4.5,30.5,10.7,44h43.2C60.2,164,58,149.1,57.6,133.5z"/></g></g>
</svg>